<?xml version="1.0" encoding="UTF-8"?>
<svg id="Camisa" xmlns="http://www.w3.org/2000/svg" version="1.1" viewBox="0 0 205 267">
  <defs>
    <style>
      .cls-1 {
        stroke: #1e120d;
      }

      .cls-1, .cls-2, .cls-3, .cls-4, .cls-5, .cls-6, .cls-7, .cls-8, .cls-9, .cls-10, .cls-11, .cls-12, .cls-13, .cls-14, .cls-15, .cls-16, .cls-17, .cls-18, .cls-19, .cls-20 {
        stroke-miterlimit: 10;
      }

      .cls-1, .cls-4, .cls-8, .cls-10, .cls-11 {
        fill: none;
      }

      .cls-2, .cls-4, .cls-5, .cls-6, .cls-7, .cls-9, .cls-20 {
        stroke: #000;
      }

      .cls-2, .cls-17 {
        fill: #fff;
      }

      .cls-3 {
        stroke: #af703d;
      }

      .cls-3, .cls-5 {
        fill: #af703d;
      }

      .cls-6 {
        fill: #d1c2b8;
      }

      .cls-21 {
        fill: #050606;
        stroke-width: 0px;
      }

      .cls-7, .cls-12, .cls-14, .cls-15 {
        fill: #e5b795;
      }

      .cls-8 {
        stroke: #898888;
      }

      .cls-9 {
        fill: #2a5696;
      }

      .cls-10, .cls-13, .cls-17, .cls-18 {
        stroke: #050606;
      }

      .cls-11, .cls-15, .cls-16, .cls-19 {
        stroke: #1d1d1b;
      }

      .cls-12, .cls-14 {
        stroke: #1e110c;
      }

      .cls-13 {
        fill: #808081;
      }

      .cls-14 {
        stroke-width: .98px;
      }

      .cls-16 {
        fill: #e55a81;
      }

      .cls-18 {
        fill: #1d1d1b;
      }

      .cls-19 {
        fill: #c7ebef;
      }

      .cls-20 {
        fill: #898888;
        stroke-width: .5px;
      }
    </style>
  </defs>
  <path class="cls-5" d="M21.41,246.12s21.78-19.63,15.66-44.41"/>
  <path class="cls-5" d="M155,190.96s22.75-9.11,30.83,3.74"/>
  <polyline class="cls-8" points="97.36 164.48 105.95 176.98 113.5 164.21"/>
  <path class="cls-7" d="M34.55,254.54c-17.88,61.92-35.76,123.85-53.63,185.77-2.03,2.94-4.66,6.14-8.06,9.28-10.84,10.01-23.24,13.56-30.12,14.95,1.33-2.48,2.95-5.14,4.94-7.86,5.21-7.14,11.06-12.19,15.85-15.62,0,0-39.09-7.04-60.07,19-1.09.03-1.85-.2-2.29-.69-1.94-2.18,2.43-9.51,13.11-21.99,7.6-2.01,15.43-3.97,23.49-5.86,11.89-2.78,14.06-2.05,19.71-4.35,0,0,4.55-1.85,9.38-5.28,9.63-6.83,18.2-23.03,21.31-43.8L15.79,248.89l18.76,5.65Z"/>
  <path class="cls-7" d="M-52.53,439.95s-1.96,9.37-16.42,20.38c0,0-11.47,1.5,7.95-20.28l8.47-.09Z"/>
  <path class="cls-7" d="M-83.96,454.98s3.75-8.54,3.65-8.58c-.08-.03-3.6,4.72-3.39,10.57.12,3.33,1.47,7.8,3.67,8.07,3.04.37,6.37-8.37,6.37-8.37,0,0,8.54-14.45,11.66-16.21l-18.31,5.94"/>
  <polygon class="cls-14" points="46.85 228.45 107.53 205 165.48 229.16 139.58 369.12 74.12 369.12 46.85 228.45"/>
  <ellipse class="cls-12" cx="58.16" cy="222.78" rx="23.07" ry="23.99"/>
  <polyline class="cls-12" points="64 456.53 101.8 460.03 64.87 819.93 53.88 818.92 63.41 646.1 64 456.53"/>
  <ellipse class="cls-12" cx="70.92" cy="670.19" rx="16.86" ry="16.1"/>
  <polyline class="cls-12" points="156.59 454.44 118.78 457.93 155.72 817.84 166.71 816.82 157.17 644.01 156.59 454.44"/>
  <path class="cls-14" d="M78.24,344.95h58.22l23.05,109.46s-44.27,63.02-103.71,1.66l22.44-111.12Z"/>
  <ellipse class="cls-12" cx="149.28" cy="670.19" rx="16.86" ry="16.1"/>
  <ellipse class="cls-12" cx="162.25" cy="224.3" rx="23.07" ry="23.99"/>
  <ellipse class="cls-12" cx="79.22" cy="246.77" rx="25.74" ry="24.59"/>
  <ellipse class="cls-12" cx="136.51" cy="246.77" rx="25.74" ry="24.59"/>
  <ellipse class="cls-19" cx="57.11" cy="110.53" rx=".49" ry=".86" transform="translate(-13.85 8.34) rotate(-7.45)"/>
  <path class="cls-15" d="M147.62,86.29c1.84-4.71,5.14-6.93,7.79-5.24,2.67,1.7,3.94,6.91,2.99,12.24-.23,1.92-.66,4.31-1.47,6.87-2.54,8.01-6.89,11.49-8.2,12.44,0,0-4.04,2.96-4.44-2.52l-.27-1.97"/>
  <path class="cls-11" d="M152.18,105.39s6.63-7.66,4.16-16.18c0,0-2.93-11.77-6.58-.75,0,0-1.14,2.69.59,5.85,0,0,1.31,1.28,1.58,2.9"/>
  <path class="cls-11" d="M149.75,88.45c.23.62.51,1.28.87,1.94.8,1.5,1.67,2.43,2.36,3.02,0,0,3.19,6.54-1.73,9.2-1.01.15-2.02.31-3.03.46,0,0-2.53,1.75-2.91.47-.19-.63.22-1.96.63-2.75.52-1.01.97-.98,1.42-1.98.33-.74.44-1.54.48-2.07.23-.63.46-.9.62-1.03.77-.64,1.88.32,2.64,2.57"/>
  <ellipse class="cls-19" cx="147.69" cy="110.22" rx=".86" ry=".49" transform="translate(19.25 242.37) rotate(-82.55)"/>
  <path class="cls-15" d="M57.17,86.61c-1.84-4.71-5.14-6.93-7.79-5.24-2.67,1.7-3.94,6.91-2.99,12.24.23,1.92.66,4.31,1.47,6.87,2.54,8.01,6.89,11.49,8.2,12.44,0,0,4.04,2.96,4.44-2.52l.27-1.97"/>
  <path class="cls-11" d="M52.61,105.7s-6.63-7.66-4.16-16.18c0,0,2.93-11.77,6.58-.75,0,0,1.14,2.69-.59,5.85,0,0-1.31,1.28-1.58,2.9"/>
  <path class="cls-11" d="M55.04,88.77c-.23.62-.51,1.28-.87,1.94-.8,1.5-1.67,2.43-2.36,3.02,0,0-3.19,6.54,1.73,9.2,1.01.15,2.02.31,3.03.46,0,0,2.53,1.75,2.91.47.19-.63-.22-1.96-.63-2.75-.52-1.01-.97-.98-1.42-1.98-.33-.74-.44-1.54-.48-2.07-.23-.63-.46-.9-.62-1.03-.77-.64-1.88.32-2.64,2.57"/>
  <g>
    <g>
      <path class="cls-5" d="M86.01,189.21s-3.63,10.09-9.49,17.32c0,0-19.07,2.76-25.89,28.21,0,0-20.03,10.71-17.9,38.39,0,0-8.52-3.12-4.26-26.78,0,0-16.19,10.71-24.72-1.79,0,0,7.67,0,11.08-13.39l3.41-13.39s-26-22.76,1.7-31.25c0,0,5.11-6.7-3.84-8.48,0,0-6.39-4.91-2.56-15.18,0,0-5.54-4.46-2.98-15.62,0,0,15.34-19.64,29.83-59.81,0,0,1.28-60.26,38.78-69.63,0,0,47.3-46.42,81.4,37.49l11.93,22.32,6.39,2.23,11.08,27.23s-5.97-8.48-11.51-8.93c0,0,8.1,4.46,5.97,16.96,0,0-6.82-10.27-13.64-9.37,0,0,11.51,26.34,16.62,23.66,0,0,10.46,9.74,6.26,21.1-.2.55-.44,1.11-.72,1.67,0,0,7.67,7.14,2.98,15.62,0,0-2.56-13.84-16.62-16.96,0,0,7.67,26.78,1.28,33.92,0,0,17.9,10.27,11.93,25.44,0,0,14.06,21.43-8.95,24.1,0,0-3.41,6.25-9.38,5.8,0,0,12.78-16.52-11.51-20.98,0,0-.43,19.19-20.46,10.71,0,0,17.05-7.59,12.78-18.3-4.26-10.71-19.6-2.68-13.64,3.12,0,0-11.51-2.68-2.13-18.75l5.54-2.23s4.69-8.93-14.49-12.94c0,0-2.56-15.62-44.32,8.48Z"/>
      <path class="cls-5" d="M172.52,77.42s-10.44-1.56-19.6-.45"/>
      <path class="cls-5" d="M178.48,97.95s-14.27-6.03-25.35.45"/>
      <path class="cls-5" d="M170.82,105.54s-11.93.45-20.88,9.15"/>
      <path class="cls-5" d="M13.56,162.68s16.41-32.14,40.06-37.27c23.65-5.13,20.24,29.24,4.47,28.12-15.77-1.12-8.74-24.33,3.2-18.52"/>
      <path class="cls-5" d="M19.96,186.33s32.39-31.92,53.27-18.75c20.88,13.17-20.46,42.85-22.16,20.53-1.7-22.32,17.69-15.4,13.64-8.03"/>
      <path class="cls-5" d="M180.62,184.55s-11.29-10.04-29.83-4.46"/>
      <path class="cls-5" d="M179.34,150.62s-19.39-9.15-36.22-3.12c-16.83,6.03-6.61,37.72,6.39,24.55,13-13.17-2.56-17.63-3.84-10.94"/>
    </g>
    <path class="cls-5" d="M185.17,129.2s-4.9,12.5-21.31,4.35"/>
  </g>
  <rect class="cls-6" x="38.96" y="187.33" width="135.7" height="79.21"/>
  <path class="cls-6" d="M177.34,188.49s-32.17-12.15-40.21-15.98c-8.04-3.84-2.68-.64-2.68-.64-8.71,21.74-27.47,19.82-27.47,19.82-2.96-.4-9.82-1.73-16.37-6.89-6-4.73-8.68-10.26-9.76-12.93l-42.22,16.62c-10.72,1.92-15.41,14.7-15.41,14.7l-19.43,60.73,38.87,10.23,2.01-8.95c-2.66-7.61-5.98-75.69-6.03-76.7,0,0,0-.01,0-.01"/>
  <line class="cls-6" x1="47.17" y1="302.96" x2="166.45" y2="301.68"/>
  <path class="cls-20" d="M106.23,182.19s.04-.13.12-.24c.44-.61,2.01-2.04,2.01-2.04,1.3-1.54.36-2.28.36-2.28-1.56-1.54-2.49.45-2.49.45,0,0-.62-1.98-2.75-.4,0,0-.47,1.24.78,2.43,0,0,1.66,1.44,1.97,2.08Z"/>
  <g>
    <polygon class="cls-20" points="-6.23 402.91 -7.71 405.55 -12.4 403.18 -10.92 400.54 -6.23 402.91"/>
    <polygon class="cls-20" points="-13.27 399.39 -14.75 402.03 -19.17 399.8 -17.69 397.16 -13.27 399.39"/>
    <path class="cls-20" d="M-11.71,399.52c1.05.53,1.44,1.78.87,2.79s-1.88,1.4-2.92.87-1.44-1.78-.87-2.79,1.88-1.4,2.92-.87Z"/>
  </g>
  <g>
    <path class="cls-9" d="M71.5,343.52l68.66-.67s25.66,77.07,23.58,209.19l8.32,249.23s-37.45,15.01-63.46,2l-2.08-354.32-4.16,353.32s-37.45,13.01-62.42-3l7.28-249.23s9.39-142.16,19.9-191.88c1.44-6.82,2.91-11.9,4.37-14.64Z"/>
    <line class="cls-2" x1="106.47" y1="449.74" x2="106.81" y2="346.76"/>
    <path class="cls-4" d="M143.32,358.26s-56.4.25-73.92-.22"/>
    <ellipse class="cls-4" cx="103.4" cy="353.28" rx="2.39" ry="2.28"/>
    <rect class="cls-4" x="86.34" y="346.11" width="3.07" height="11.41"/>
    <rect class="cls-4" x="126.08" y="346.11" width="3.07" height="11.41"/>
    <path class="cls-4" d="M86.34,358.82s-3.07,21.83-23.88,33.24"/>
    <path class="cls-4" d="M126.25,358.17s3.07,32.59,24.56,33.89"/>
    <path class="cls-4" d="M99.3,358.82v41.39s-1.36,15.32,6.82,19.23"/>
  </g>
  <path class="cls-7" d="M177.43,253.09c18.62,64.5,37.25,129.01,55.87,193.51,2.12,3.06,4.86,6.4,8.4,9.67,11.29,10.43,24.21,14.13,31.37,15.58-1.38-2.58-3.07-5.35-5.14-8.19-5.43-7.44-11.52-12.7-16.51-16.27,0,0,40.72-7.33,62.57,19.79,1.13.04,1.93-.2,2.39-.72,2.02-2.27-2.53-9.91-13.65-22.91-7.91-2.1-16.07-4.14-24.47-6.1-12.39-2.89-14.65-2.14-20.53-4.53,0,0-4.74-1.93-9.77-5.5-10.03-7.11-18.96-23.99-22.2-45.63l-28.79-134.58-19.54,5.88Z"/>
  <path class="cls-7" d="M272.11,448.78s2.04,9.76,17.1,21.23c0,0,11.94,1.56-8.28-21.13l-8.82-.1Z"/>
  <path class="cls-6" d="M43.15,265.2c5.36,7.04,2.68,45.45,2.68,45.45h120.62s0-34.57,2.01-45.45l3.35,8.96,38.2-10.24s-18.09-65.29-20.77-65.29c0,0-4.02-6.4-13.4-10.24,0,0-3.35,67.85-7.37,74.25"/>
  <path class="cls-7" d="M304.76,465.18s-3.9-8.9-3.8-8.94c.08-.03,3.75,4.91,3.53,11.01-.12,3.47-1.53,8.13-3.82,8.4-3.17.38-6.63-8.72-6.63-8.72,0,0-8.89-15.05-12.15-16.89l19.07,6.19"/>
  <path class="cls-14" d="M76.24,130.65s20.22,19.05,21.12,33.84l-8.13.09s.38,3.71,2.87,8.45c.66,1.26,1.38,2.59,2.13,3.95.67,1.21,1.37,2.44,2.09,3.65,3.76,6.36,7.88,10.52,10.62,10.64,2.39-1.18,5.9-3.33,8.86-7.06,6.74-8.46,5.34-18.32,4.97-20.51l-7.29.51c.25-19.91,15.44-32.93,15.44-32.93l-52.7-.64Z"/>
  <path class="cls-14" d="M103.24,33.74s-28.11-2.95-40.65,25.37c0,0-11.01,21.55-1.32,50.46,0,0,.89,4.6,2.77,8.99,0,0,7.03,12.82,22.46,22.84,0,0,14.29,11.76,30.16,1.46,0,0,18.69-13.36,22.89-21.45,0,0,3.01-5.08,4.77-12.69,0,0,6.8-19.1,1.76-39.25,0,0-3.2-22.68-23.68-31.59,0,0-5.87-3.85-19.18-4.16Z"/>
  <path class="cls-18" d="M88.01,69.92c-4.58-2.74-13.94-6.76-25.63-3.26,0,0,8.43-13.39,26.61-4.84.66.31,1.13,1.08,1.23,2.01l.36,3.46c.2,1.94-1.24,3.42-2.57,2.63Z"/>
  <path class="cls-6" d="M88.47,164.94l15.52,26.33s-14.77.79-25.37-18.5l9.85-7.83Z"/>
  <path class="cls-18" d="M116.12,69.78c4.58-2.74,13.94-6.76,25.63-3.26,0,0-8.43-13.39-26.61-4.84-.66.31-1.13,1.08-1.23,2.01l-.36,3.46c-.2,1.94,1.24,3.42,2.57,2.63Z"/>
  <path class="cls-4" d="M73.3,174.3s14.74,24.32,30.16,23.68c0,0,30.83-1.28,34.85-23.68"/>
  <g>
    <g>
      <path class="cls-3" d="M56.29,49.93c2.36-2.7,4.36-17.2,10.11-20.56,13.94-8.16,32.5-12.37,36.53-12.18,6.81.33,19.9,1.03,30.69,7.98,18.09,11.64,16.97,45.85,17.41,49.23l-16.12-11.86,6.57,8.12c-11.46-.03-33.47-7.63-33.47-7.63l4.54,4.19c-18.59-6.82-31.44-8.87-31.44-8.87,6.41,5.84,21.98,6.62,21.98,6.62-26.69.5-42.74-17.81-42.74-17.81,4.09,12.04,21.18,17.36,21.18,17.36-14.75-1.38-25.25-14.59-25.25-14.59"/>
      <g>
        <path class="cls-4" d="M57.98,51.82s9.23,11.32,23.56,12.7c0,0-17.57-6.18-20.5-16.47,0,0,17.29,17.84,41.89,17.01,0,0-13.88-.57-21.8-6.8-11.57-9.09-9.6-16.92-9.6-16.92"/>
        <path class="cls-4" d="M81.6,58.62s19.14,3.71,31.07,8.75l-4.59-4.21c-28.21-24.15-17.17-30.69-17.17-30.69"/>
        <path class="cls-4" d="M108.08,63.16c23.18,7.97,33.57,7.57,33.57,7.57l-5.89-7.16c-31.71-34.45-19.03-44.74-19.03-44.74"/>
      </g>
    </g>
    <line class="cls-5" x1="147.75" y1="71.98" x2="135.77" y2="63.57"/>
    <path class="cls-6" d="M120.78,163.71s2.57,19.72-13.81,27.98c0,0,16.06,1.96,27.47-19.82l-13.67-8.17Z"/>
  </g>
  <path class="cls-16" d="M110.31,125.63c-2.05-.03-3.48-.6-4.42-1.14,0,0-1.98-1.13-3.32-.99-.81.08-1.41.42-1.78.68-.44-.26-1.1-.58-1.95-.62-1.2-.06-2.94,1.08-4.29,1.53-.73.25-1.83.45-3.3.13.67.78,5.03,5.71,11.27,4.85,4.08-.56,6.8-3.3,7.8-4.43Z"/>
  <path class="cls-11" d="M85.57,122.63c2.13,1.02,4.27,2.04,6.4,3.05,2.43.46,5.33.84,8.61.95,3.61.11,6.79-.14,9.41-.51,1.67-.76,3.33-1.53,5-2.29"/>
  <path class="cls-11" d="M94.07,106.64s-2.2,4.16.94,3.69c0,0,1.42-.94,2.68.39,0,0,3.23,2.2,5.12,0,0,0,.71-1.57,2.91-.63,0,0,3.54,0,.31-3.84"/>
  <path class="cls-11" d="M103.47,89.08s-.74,7.6.53,9.33"/>
  <path class="cls-17" d="M91.81,86.67s-6.8-14.84-24.1-11.37c0,0-2.64.35-5.01-2.22,0,0,2.38,23.56,29.11,13.59Z"/>
  <path class="cls-21" d="M92.14,85.46c-4.52-6.79-12.16-13.36-20.85-11.33-1.2.2-2.34.62-3.51,1.02,9.69-5.86,20.16,1.1,24.36,10.3h0Z"/>
  <ellipse class="cls-13" cx="80.58" cy="83.02" rx="6.27" ry="5.87"/>
  <path class="cls-10" d="M72.31,74.76s-8.63,1.36-5.11,8.91"/>
  <ellipse class="cls-18" cx="80.71" cy="82.92" rx="2.37" ry="1.96" transform="translate(-18.49 142.48) rotate(-76.76)"/>
  <path class="cls-17" d="M112.64,86.83s6.8-14.84,24.1-11.37c0,0,2.64.35,5.01-2.22,0,0-2.38,23.56-29.11,13.59Z"/>
  <path class="cls-21" d="M112.32,85.62c4.21-9.21,14.67-16.16,24.36-10.3-1.17-.4-2.31-.83-3.51-1.02-8.7-2.03-16.33,4.54-20.85,11.33h0Z"/>
  <ellipse class="cls-13" cx="123.87" cy="83.18" rx="6.27" ry="5.87"/>
  <path class="cls-10" d="M132.14,74.92s8.63,1.36,5.11,8.91"/>
  <ellipse class="cls-18" cx="123.74" cy="83.08" rx="1.96" ry="2.37" transform="translate(-15.74 30.56) rotate(-13.24)"/>
  <path class="cls-1" d="M314.65,417.34"/>
</svg>