<?xml version="1.0" encoding="UTF-8"?>
<svg xmlns="http://www.w3.org/2000/svg" version="1.1" viewBox="0 0 205 267">
  <defs>
    <style>
      .cls-1, .cls-2, .cls-3, .cls-4, .cls-5, .cls-6, .cls-7, .cls-8, .cls-9, .cls-10, .cls-11, .cls-12, .cls-13, .cls-14, .cls-15, .cls-16 {
        stroke-miterlimit: 10;
      }

      .cls-1, .cls-6 {
        stroke: #1e120d;
      }

      .cls-1, .cls-9 {
        fill: none;
      }

      .cls-2, .cls-3, .cls-4, .cls-5, .cls-7, .cls-8, .cls-9, .cls-10, .cls-11, .cls-12, .cls-13, .cls-14, .cls-15, .cls-16 {
        stroke: #000;
      }

      .cls-2, .cls-4 {
        fill: #000;
      }

      .cls-17, .cls-18, .cls-19, .cls-20, .cls-21 {
        stroke-width: 0px;
      }

      .cls-17, .cls-8 {
        fill: #e6cbaf;
      }

      .cls-3 {
        fill: #99774f;
      }

      .cls-3, .cls-4, .cls-16 {
        stroke-width: .75px;
      }

      .cls-5 {
        fill: #1d2030;
      }

      .cls-6, .cls-18 {
        fill: #e8cbaf;
      }

      .cls-7, .cls-21 {
        fill: #2d210c;
      }

      .cls-10 {
        fill: #a3a09f;
      }

      .cls-19, .cls-13 {
        fill: #666;
      }

      .cls-11 {
        fill: #c1bab8;
      }

      .cls-20, .cls-14 {
        fill: #e7cbaf;
      }

      .cls-12 {
        fill: #514a47;
      }

      .cls-15 {
        fill: #423a32;
      }

      .cls-16 {
        fill: #fff;
      }
    </style>
  </defs>
  <g id="Cuello">
    <path class="cls-14" d="M117.5,199.95c-1.43,10.41-6.38,26.46-13,27.03-6,.51-13.38-11.69-16.36-30.13,4.64-21.12-.64-47.1-.64-47.1.93-8.3,4.68-15.46,10-18.02,7.83-3.76,18.6,2.65,22.5,16.53-1.22,7.1-2.54,17.36-2.5,29.81.04,10.74,1.05,14.21,0,21.88Z"/>
    <path class="cls-21" d="M111.4,172.49c.97,0,.97-1.5,0-1.5s-.97,1.5,0,1.5h0Z"/>
  </g>
  <g id="AnteBrazo_1" data-name="AnteBrazo 1">
    <path class="cls-6" d="M40.5,290.51c-2.61-1.02-5.22-.23-6,0-7,2.11-11.51,11.38-11.59,23.1l-5.74,15.96-2.72,20.74-1.22,19.5.07,21.56.06,17.42,11.62.47,2.79-17.94,4.64-19.01,9.72-25.38,2.92-16.82,1.12-15.87c2.53-12.09-.05-21.53-5.67-23.73Z"/>
  </g>
  <g id="brazo_1" data-name="brazo 1">
    <g>
      <path class="cls-6" d="M24.68,295.57l-1.46,10.57c7.61-.48,15.49-.73,23.02.71l.76-11.55,4.36-36.34-4.49-30.96c-.87-15.37-7.45-25.57-12.37-25.5-4.81.07-10.8,9.96-11.83,24.25,1.06,9.47,2.12,18.93,3.18,28.4l-1.17,40.43Z"/>
      <ellipse class="cls-18" cx="35" cy="305" rx="10" ry="11"/>
    </g>
  </g>
  <g id="Mano_1" data-name="Mano 1">
    <g>
      <path class="cls-6" d="M26.5,396.5c.17.87,1.25,2.81,1.42,3.81s.35,2.04.52,3.12c.91,5.7,1.83,12.34,2.74,16.89l-5.15,16.18h-7.73s-7.59-17.04-7.59-17.04c1.21-3.19,1.61-8.85,2.23-13.82.17-1.37.36-2.7.59-3.9s-.39-4.34-.04-5.24"/>
      <polyline class="cls-6" points="20.95 436.5 13.56 420.22 15.57 413.68"/>
      <polyline class="cls-6" points="23.79 436.13 16.97 420.22 18.66 415.21"/>
      <polyline class="cls-6" points="23.79 420.25 24.92 422.49 22.15 432.32"/>
    </g>
    <path class="cls-1" d="M224,393.5"/>
    <path class="cls-1" d="M-7,392.5"/>
  </g>
  <g id="AnteBrazo_2" data-name="AnteBrazo 2">
    <path class="cls-6" d="M194.53,368.94l-.66-9.44-.95-13.6-1.41-20.07-.95-8.82c-2.69-10.17-5.37-20.34-8.06-30.5-1.36-5.94-6.22-10-11-10-6.15,0-12.29,6.72-11,15,1.56,7.62,3.11,15.23,4.67,22.85l1.27,11.51,1.43,20.07,4.44,14.51,2.03,10.32,4.04,15.29,1.18,13.1-1.66,12.33,14.46,1.14c.34-4.14.69-8.27,1.03-12.41l1.33-10.95-.2-20.33Z"/>
  </g>
  <g id="brazo_2" data-name="brazo 2">
    <g>
      <path class="cls-6" d="M187.17,304.67l-2.38-8.64-.17-27.09-.6-16.98c.78-7.81,1.56-15.63,2.35-23.44-1.41-15.91-8.72-26.26-13.87-26.01-5.06.24-11.12,10.86-11.5,26.01l-.39,21.85-1.92,17.55,1.73,27.65,2.5,9.87c4.05.09,8.09.08,12.14-.04s8.08-.36,12.11-.73Z"/>
      <ellipse class="cls-18" cx="175" cy="305" rx="10" ry="11"/>
    </g>
  </g>
  <g id="Mano_2" data-name="Mano 2">
    <g>
      <path class="cls-6" d="M179.5,397.5c-.17.87-.35,2.81-.52,3.81-.17.99-.35,2.04-.52,3.12-.91,5.7-1.83,12.34-2.74,16.89l5.15,16.18h7.73l7.59-17.04c-1.21-3.19-1.61-8.85-2.23-13.82-.17-1.37-.36-2.7-.59-3.9s.49-5.34.14-6.24"/>
      <polyline class="cls-6" points="185.95 437.5 193.34 421.22 191.33 414.68"/>
      <polyline class="cls-6" points="183.12 437.13 189.93 421.22 188.24 416.21"/>
      <polyline class="cls-6" points="183.12 421.25 181.98 423.49 184.75 433.32"/>
    </g>
  </g>
  <g id="Pierna_1" data-name="Pierna 1">
    <path class="cls-6" d="M85.5,386.5c-12.79-7.35-26.04-2.72-28-2-2.93,10.05-5.85,20.09-8.78,30.14l-4.7,36.6-3.67,40.87,6.84,34.85-.05,39.84v.07c2.51.01,5.03.01,7.55.04,10.46.1,20.93.28,31.39.38.03-.83.06-1.66.1-2.48.62-11.93-2.43-24.04-2.42-36.13,0-11.79,6.34-23.53,6.22-35.28-.08-8.16,1.51-16.26,2.93-24.3,1.02-5.77,1.95-11.51,2.11-17.21.16-5.83,2.91-11.6,2.83-17.32-.09-6.57,2.81-11.64,3.87-15.16,1.28-13.59-5.08-26.49-16.2-32.88Z"/>
  </g>
  <g id="Pie_1" data-name="Pie 1">
    <g>
      <path class="cls-6" d="M92.86,704.31c1.86.21,4.29,3.42,4.26,5.69,0,.29-.05.57-.14.82-.1.28-.26.53-.48.73-2,1.88-5-1.88-5-1.88-6,5.63-22,.94-22,.94,0,0-13-2.82-15.7-.62s-9.05,0-9.05,0c-7.75-3.44-3.25-20.98-1.25-22.86.57-.53-.11-4.29.07-9.41.13-3.89.18-8.57.18-13.21,0-2.42-.01-4.83-.03-7.12-.07-7.96.78-14.4.78-14.4l23,1.5s.61,4.3,0,10c-.37,3.41.19,7.76.13,11.44-.06,4.18-.8,8.09.09,10.77.43,1.31,1.02,2.32,1.78,2.92,6,4.7,17,14.09,33,17.84,0,0,10-.94,6,5.63"/>
      <path class="cls-6" d="M94.5,703.11s8,2.82,5,7.51c0,0-2.76,2.52-3.38-.62"/>
      <path class="cls-6" d="M97.34,701.22s9.16,2.82,6.16,7.52c0,0-1.68,1.88-3.34,0"/>
      <path class="cls-6" d="M99.5,699.35s9,.94,8,4.7c0,0,1,3.76-2,3.76s-1.92-2.62-1.92-2.62"/>
    </g>
    <line class="cls-1" x1="266.5" y1="712.5" x2="7.5" y2="712.5"/>
  </g>
  <g id="Pantorrilla_1" data-name="Pantorrilla 1">
    <rect class="cls-18" x="125.21" y="525" width="32.5" height="42.5" transform="translate(282.93 1092.5) rotate(-180)"/>
  </g>
  <g id="Pierna_2" data-name="Pierna 2">
    <path class="cls-6" d="M121.71,386.5c12.79-7.35,26.04-2.72,28-2,2.93,10.05,5.85,20.09,8.78,30.14l4.7,36.6,3.67,40.87-6.84,34.85.05,39.84v.07c-2.51.01-5.03.01-7.55.04-10.46.1-20.93.28-31.39.38-.03-.83-.06-1.66-.1-2.48-.62-11.93,2.43-24.04,2.42-36.13,0-11.79-6.34-23.53-6.22-35.28.08-8.16-1.51-16.26-2.93-24.3-1.02-5.77-1.95-11.51-2.11-17.21-.16-5.83-2.91-11.6-2.83-17.32.09-6.57-2.81-11.64-3.87-15.16-1.28-13.59,5.08-26.49,16.2-32.88Z"/>
  </g>
  <g id="Pie_2" data-name="Pie 2">
    <g>
      <g>
        <path class="cls-6" d="M84.49,542.51c-13-.16-24.46-.45-37.45-.53l-1.8,28.12-1.62,27.2,1.78,22-1.93,36.45.04,20.63c5.9.5,18.3,1.11,24.2,1.61.71-8.54-.41-15.36.2-21.7.76-7.85,1.71-15.02,3.47-23.96.75-3.79.17-7.58,1.27-11.35,2.15-7.4,2.87-14.87,3.46-22.65.74-9.71,10.35-19.62,10.13-29.77-.19-8.69-1.96-17.45-1.76-26.06Z"/>
        <ellipse class="cls-18" cx="65.8" cy="543.5" rx="16.62" ry="20.5"/>
      </g>
      <ellipse class="cls-18" cx="55.5" cy="672.25" rx="11.5" ry="16.25"/>
    </g>
    <g>
      <path class="cls-6" d="M188.15,704.54c1.86.21,4.29,3.42,4.26,5.69,0,.29-.05.57-.14.82-.1.28-.26.53-.48.73-2,1.88-5-1.88-5-1.88-6,5.63-22,.94-22,.94,0,0-13-2.82-15.7-.62s-9.05,0-9.05,0c-7.75-3.44-3.25-20.98-1.25-22.86.57-.53-.11-4.29.07-9.41.13-3.89.18-8.57.18-13.21,0-2.42-.01-4.83-.03-7.12-.07-7.96.78-14.4.78-14.4l21.71,3.26s2,3,2.16,8.71c.1,3.43-.68,7.29-.73,10.97-.06,4.18-.8,8.09.09,10.77.43,1.31,1.02,2.32,1.78,2.92,6,4.7,17,14.09,33,17.84,0,0,10-.94,6,5.63"/>
      <path class="cls-6" d="M190.79,703.34s8,2.82,5,7.51c0,0-2.76,2.52-3.38-.62"/>
      <path class="cls-6" d="M193.63,701.46s9.16,2.82,6.16,7.52c0,0-1.68,1.88-3.34,0"/>
      <path class="cls-6" d="M195.79,699.58s9,.94,8,4.7c0,0,1,3.76-2,3.76s-1.92-2.62-1.92-2.62"/>
    </g>
  </g>
  <g id="Pantorrilla_2" data-name="Pantorrilla 2">
    <g>
      <g>
        <path class="cls-6" d="M122.71,542.5c13-.15,24.46-.43,37.45-.5l1.78,28.12,1.6,27.2-1.79,22,1.9,36.45-1.16,21.72c-5.9.5-17.2,0-23.1.5-.71-8.54.42-15.36-.19-21.7-.76-7.85-1.7-15.02-3.45-23.96-.74-3.79-.17-7.58-1.26-11.35-2.15-7.4-2.86-14.87-3.44-22.65-.74-9.71-10.34-19.63-10.11-29.78.19-8.69,1.98-17.45,1.78-26.06Z"/>
        <ellipse class="cls-18" cx="140.96" cy="542.42" rx="16.62" ry="20.5"/>
      </g>
      <ellipse class="cls-18" cx="150.87" cy="673.57" rx="11.13" ry="16.25"/>
    </g>
  </g>
  <g id="Torso">
    <g>
      <path class="cls-6" d="M48.53,227h113.48l-.63,40.24-2.28,25.96-1.95,22.31-2.68,46.42-.51,27.6s-74.13,34.6-98.77-3.15l-1.29-29.57-1.52-41.29.48-28.52-2.02-22.9-2.29-37.08Z"/>
      <path class="cls-6" d="M187.92,227.25H23.83c-8.01-10.75,4.01-27.46,4.01-27.46l50.73-23.88s22.98,39.41,54.21,0l43.25,16.72s21.12,17.91,11.9,34.63Z"/>
    </g>
    <g>
      <rect class="cls-18" x="52" y="209" width="107" height="52"/>
      <ellipse class="cls-18" cx="36.5" cy="227" rx="11.5" ry="16"/>
      <ellipse class="cls-18" cx="174.5" cy="227" rx="11.5" ry="16"/>
    </g>
  </g>
  <g id="Cadera">
    <path class="cls-6" d="M53.89,383.14l.51-4.14,3.72,1.08,5.23,1.1,5.25.65,14.98,1.06,24-.26,33.67-1.93,6.99-.49,6.26-.72v17l1.27,5.71,1.08,5.67,1.15,5.47s-4.03.22-8.67.54c-2.77.19-5.75.42-8.22.65-8.55.81-22.06.64-38.98.77-7.68.06-16.06-.27-25-.37-3.61-.04-7.3.09-11.08.06-2.38-.02-4.79-.11-7.23-.36-3.23-.32-6.5-.69-9.83-1.1l1.33-10.01,1.33-7.4,1.33-6.99.91-5.99Z"/>
    <g>
      <rect class="cls-18" x="55" y="361.5" width="97" height="46.5"/>
      <rect class="cls-18" x="49.95" y="398.72" width="48.81" height="38" transform="translate(56.53 -6.19) rotate(7.69)"/>
      <rect class="cls-18" x="108.66" y="403.48" width="48.81" height="38" transform="translate(-78.12 33.13) rotate(-10.99)"/>
    </g>
  </g>
  <g id="cabeza">
    <path class="cls-9" d="M117.36,128.8"/>
    <path class="cls-9" d="M46.05,71.97s3.91-16.37,10.94-17.84"/>
    <path class="cls-14" d="M151.32,72.15c.4,3.88.63,7.96.63,7.96.22,2.43.22,5.39.29,7.3.07,2.17-.07,3.79.08,5.84.4,5.74-.06,10.84.4,14.22.37,2.68-.44,4.29-.44,4.29-.85,1.81-2.04,4.22-3.6,6.98-1.29,2.28-4.02,7.05-8.05,12.12-6.14,7.71-12.39,12.44-13.65,13.38-8.37,6.24-14.63,10.92-23.23,11.15-11.41.3-20.41-7.4-27.49-13.48-5.01-4.29-7.99-8.22-8.84-9.38-5.88-7.94-8.24-15.72-9.29-20.51,0,0-2.87-13.54-2.87-30.2,0-14.49,2.06-26.5,13.07-38.18,2.63-2.79,16.83-17.2,38.91-15.88,1.71.1,21.74,1.59,33.69,16.72,0,0,8.66,10.61,10.4,27.68Z"/>
    <g>
      <path class="cls-8" d="M151.86,90.91c2.48-5.2,6.6-7.91,9.39-7.1,1.5.44,2.62,1.9,2.8,2.16,1.74,2.35,1.26,5.03,1.16,5.52-.54,2.7-1.38,5.79-2.72,9.1-2.82,6.97-6.69,12.05-9.73,15.36,0,0-1.26.42-2.2-.27-.81-.58-.94-1.03-.73-2.07"/>
      <path class="cls-8" d="M160.49,102.16s5.88-14.08-.34-16.57c0,0-2.24.72-3.84,5.07-.23.62-.45,1.32-.64,2.1,0,0-1.64,3.62-1.28,5.33.36,1.7-.94,5.02-.94,5.02,0,0-1.78,1.88-1.84,4.18"/>
      <path class="cls-8" d="M151.87,106s5.38-1.99,6.2-4.1,1.64-4.92.38-7.34c-1.26-2.42-1.35.08-2.33-3.55"/>
    </g>
    <path class="cls-8" d="M55.84,90.33c-2.48-5.2-5.44-7.04-8.23-6.22-1.5.44-2.62,1.9-2.8,2.16-1.74,2.35-1.26,5.03-1.16,5.52.54,2.7,1.38,5.79,2.72,9.1,2.82,6.97,6.69,12.05,9.73,15.36,0,0,1.26.42,2.2-.27.81-.58,1.23-1.61,1.02-2.65"/>
    <path class="cls-8" d="M48.37,102.45s-5.88-14.08.34-16.57c0,0,2.24.72,3.84,5.07.23.62.45,1.32.64,2.1,0,0,1.64,3.62,1.28,5.33s.94,5.02.94,5.02c0,0,1.78,1.88,1.84,4.18"/>
    <path class="cls-8" d="M56.99,106.29s-5.38-1.99-6.2-4.1c-.82-2.11-1.64-4.92-.38-7.34,1.26-2.42,1.35.08,2.33-3.55"/>
    <path class="cls-14" d="M152.17,92.1"/>
    <path class="cls-17" d="M152.27,109.05c1.93,0,1.93-3,0-3s-1.93,3,0,3h0Z"/>
    <path class="cls-17" d="M152.01,109.23c1.93,0,1.93-3,0-3s-1.93,3,0,3h0Z"/>
    <path class="cls-17" d="M152.01,109.66c1.93,0,1.93-3,0-3s-1.93,3,0,3h0Z"/>
    <path class="cls-17" d="M153.33,93.78c.04-.72.02-1.45-.08-2.17,0-.21-.04-.4-.13-.58-.06-.19-.16-.35-.31-.48-.26-.26-.69-.46-1.06-.44s-.79.14-1.06.44l-.23.3c-.14.23-.2.49-.2.76.09.72.12,1.44.08,2.17,0,.21.04.4.13.58.06.19.16.35.31.48.26.26.69.46,1.06.44s.79-.14,1.06-.44l.23-.3c.14-.23.2-.49.2-.76h0Z"/>
    <path class="cls-16" d="M77.87,95.57s-8.17-1.81-10.7-8.87c-2.59-7.22,11.1-11.56,11.09-11.17,16.75-1.71,15.85,15.23,15.85,15.23,0,0,.48,2.01-1.97,3.01-6.92,2.83-14.28,1.8-14.28,1.8Z"/>
    <path class="cls-3" d="M74.73,87.36c.2,4.36,3.86,7.5,8.16,7.01,4.3-.49,7.62-4.41,7.42-8.77-.2-4.36-3.86-7.5-8.16-7.01-4.3.49-7.62,4.41-7.42,8.77Z"/>
    <path class="cls-4" d="M79.58,86.81c.17,1.99,1.71,3.33,3.45,3,1.73-.34,3-2.22,2.83-4.22-.17-1.99-1.71-3.33-3.45-3-1.73.34-3,2.22-2.83,4.22Z"/>
    <path class="cls-16" d="M129.38,95.57s8.17-1.81,10.7-8.87c2.59-7.22-11.1-11.56-11.09-11.17-16.75-1.71-15.85,15.23-15.85,15.23,0,0-.48,2.01,1.97,3.01,6.92,2.83,14.28,1.8,14.28,1.8Z"/>
    <path class="cls-3" d="M132.53,87.36c-.2,4.36-3.86,7.5-8.16,7.01-4.3-.49-7.62-4.41-7.42-8.77.2-4.36,3.86-7.5,8.16-7.01,4.3.49,7.62,4.41,7.42,8.77Z"/>
    <path class="cls-4" d="M127.67,86.81c-.17,1.99-1.71,3.33-3.45,3-1.73-.34-3-2.22-2.83-4.22s1.71-3.33,3.45-3c1.73.34,3,2.22,2.83,4.22Z"/>
    <path class="cls-21" d="M60.63,72.4c7.95-3.8,17.03-2.22,17.03-2.22,0,0,19.04,2.14,19.37,2.13l.21-3.54-15.06-1.75s-12.33-.9-15.25.84-6.3,4.54-6.3,4.54Z"/>
    <path class="cls-21" d="M147.51,72.57c-7.95-3.8-17.03-2.22-17.03-2.22,0,0-19.04,2.14-19.37,2.13l-.21-3.54,15.06-1.75s12.33-.9,15.25.84c2.91,1.74,6.3,4.54,6.3,4.54Z"/>
    <path class="cls-9" d="M102.07,89.54s-.51,12.38-3.35,17c-2.84,4.62-2.74,9.56,1.68,9.26"/>
    <path class="cls-9" d="M109.28,104.61s6.4,10.44-.91,11.48"/>
    <path class="cls-9" d="M99.22,113.21s.71-1.14,2.84,1.6,3.66-.23,3.66-.23c0,0,1.52-1.98,3.15-1.12"/>
    <g>
      <path class="cls-9" d="M90.42,126.99s-1.45.99-1.52,2.07"/>
      <path class="cls-9" d="M117.7,128.88s1.39,1.32,1.49,2.28"/>
      <path class="cls-9" d="M89.35,128s3.69,3.92,11.34,4.59c0,0,2.76,1.69,6,.41,0,0,8.28.13,11.77-3.28"/>
      <path class="cls-9" d="M99.02,135.14s4.39,3.02,9.7.67"/>
    </g>
    <path class="cls-7" d="M51.98,94.97c.14.27.28.53.42.79,0,0-2.06-9.89-.9-9.98,1.16-.09,7.04,8.01,7.04,8.01,0,0-2.32-18.37,0-20.81,2.32-2.44,8.04-7.03,8.04-7.03,0,0-3.91,10.96-5.48,11.21-1.57.25,6.86-1.61,12.41-15.21,0,0,20.01-10.46,28.56-9.08,0,0,15.84,2.18,23.27,19.52,0,0-1.95-5.5-3.15-7.41,0,0,10.57,0,12.77,8.66,0,0-1.19-4.36-11.44-16.73,0,0,3.19,1.8,8.36,4.25,0,0,8.23,9.17,7.92,15.26h0l.6,2.09c.1,0,.11-.51.13-.62,1.06-9.18-3.44-17.83-2.34-18.19.46-.15,3.54,4.69,6.16,8.51.98,1.43,1.78,2.65,2.35,3.52.84,2.65,1.63,5.49,2.35,8.51,1.21,5.09,1.99,9.87,2.49,14.23.66-1.57,1.28-3.22,1.85-4.94,3.91-11.75,4.15-22.82,3.22-31.69,0,0-2.97-10.58-5.88-12.43l9.17,1.69c-6.6-.99-17.39-15.21-17.39-15.21-5.05-6.96-13.89-11.28-13.89-11.28-11.16-8.21-28.14-5.51-28.14-5.51,5.38-3.94,11.42-4.73,11.42-4.73-33.51-3.83-49.18,23.11-49.18,23.11-8.48.18-18.49,17.23-18.49,17.23,0,0,7.03-5.56,8.17-6.1-1.77,2.83-2.9,7.13-4.22,12.04-2.61,9.66-.12,17.62-.11,21.87.69,6.72,1.7,12.15,3.91,16.43Z"/>
    <g>
      <path class="cls-7" d="M92.16,36.06s7.08-5.36,9.86-5.2"/>
      <path class="cls-7" d="M79.56,31.71s3.76-7.2,16.6-4.2c.25.06.5.12.76.19,13.45,3.46-.26-.07-.26-.07,0,0,8.43,1.51,10.41.64,0,0-5.32,3.7-10.4,3.44-5.09-.26-8.71,4.07-8.71,4.07"/>
      <path class="cls-7" d="M86.68,30.29s15.52-.25,18.95-1.14"/>
    </g>
    <g>
      <path class="cls-7" d="M137.24,46.77c-13.08-23.21-22.27-21.05-22.27-21.05"/>
      <path class="cls-7" d="M116.65,37.18s4.69-4.65,20.06,8.66c.26.23-.4-.53-.6-.79-10.03-13.14-15.13-13.14-15.13-13.14"/>
      <path class="cls-7" d="M123.45,35.19s4.76,2.22,11.92,8.91"/>
    </g>
    <path class="cls-9" d="M46.05,71.97s4.43-16.23,11.2-19.09"/>
    <path class="cls-9" d="M44.23,50.72s8.22-9.43,12.76-10.86"/>
    <path class="cls-9" d="M143.93,39.86s2.79,5.03,8.89,6.02"/>
    <path class="cls-9" d="M148.38,41.37s4.24,3.76,9.96,5.4"/>
    <path class="cls-9" d="M61.64,76.78s8.21-8.02,7.77-11.76"/>
    <path class="cls-9" d="M114.31,55.67s8.76-.24,17.09,12.42"/>
    <path class="cls-9" d="M85.87,48.41s9.56.45,18.93,5.12"/>
    <path class="cls-9" d="M144.58,54.13s12.61,17.31,6.97,40.35"/>
    <path class="cls-9" d="M132.53,56.66s6.9,6.96,7.87,21.86"/>
    <path class="cls-7" d="M75.1,46.77c-9.46.56-11.15,8.24-11.15,8.24,0,0,3.89-6.04,9.46-4.12"/>
    <path class="cls-7" d="M78.93,51.78c-11.72-1.25-15.27,3.89-15.27,3.89,0,0,5.58-3.08,9.61-.66"/>
    <ellipse class="cls-20" cx="103.5" cy="191" rx="12.5" ry="15"/>
  </g>
  <g id="Zapatos">
    <path class="cls-15" d="M40.8,687.48s2.16-10.74,2.22-10.39-1.24-5.38,4.2-5.7c5.44-.32,12.08-2.24,12.08-2.24,0,0,6.67-4.76,9.58-3.02s4.41,2.91,4.73,7.64c0,0,.16,2.26-.83,2.97s3.22,5,3.22,5l21.44,12.42,3.96,1.78s23.92,1.66,23.21,8.06c0,0,1.68,3.62-.05,5.01,0,0-18.43,4.24-25.5,3.88l-23.77.67-35.52-2.18s-1.82-2.03-.32-6.82c0,0,.12-15.56,1.35-17.08Z"/>
    <path class="cls-9" d="M43.22,678.04s3.64-3.19,6.72-2.39,10.8-2.78,10.8-2.78c0,0,9.25-5.89,10.87-3.81"/>
    <path class="cls-9" d="M41.02,684.13s9.2,4.09,13.6,4.52c.48.05.9.05,1.25,0,3.54-.52,14.94-3.34,18.27-8.84"/>
    <path class="cls-9" d="M55.13,688.68s17.61-10.46,17.86-11.35"/>
    <polyline class="cls-9" points="40.1 688.73 56.26 695.73 61.43 708.15"/>
    <path class="cls-9" d="M66.5,685.45s1.56,2.96,8.4,2.82c0,0,4.41,1.49,6.16,4.4s4.57,2.16,4.57,2.16"/>
    <polyline class="cls-9" points="85.62 687.54 85.51 697.29 77.7 707.61"/>
    <path class="cls-9" d="M100.7,696c.17-.42-8.58,10.34-10.05,11.34"/>
    <path class="cls-9" d="M96.77,701.04s.4,4.2,5.97-.1c0,0,13.41.51,16.93-1.36"/>
    <path class="cls-9" d="M39.37,704.62s33.59,8.52,85.82-.79"/>
    <path class="cls-15" d="M128.02,686.02s2.16-10.74,2.22-10.39-1.24-5.38,4.2-5.7,12.08-2.24,12.08-2.24c0,0,6.67-4.76,9.58-3.02,2.92,1.74,4.41,2.91,4.73,7.64,0,0,.16,2.26-.83,2.97s3.22,5,3.22,5l21.44,12.42,3.96,1.78s23.92,1.66,23.21,8.06c0,0,1.68,3.62-.05,5.01,0,0-18.43,4.24-25.5,3.88l-23.77.67-35.52-2.18s-1.82-2.03-.32-6.82c0,0,.12-15.56,1.35-17.08Z"/>
    <path class="cls-9" d="M130.44,676.58s3.64-3.19,6.72-2.39,10.8-2.78,10.8-2.78c0,0,9.25-5.89,10.87-3.81"/>
    <path class="cls-9" d="M128.24,682.68s9.2,4.09,13.6,4.52c.48.05.9.05,1.25,0,3.54-.52,14.94-3.34,18.27-8.84"/>
    <path class="cls-9" d="M142.35,687.23s17.61-10.46,17.86-11.35"/>
    <polyline class="cls-9" points="127.32 687.27 143.48 694.28 148.65 706.69"/>
    <path class="cls-9" d="M153.72,684s1.56,2.96,8.4,2.82c0,0,4.41,1.49,6.16,4.4s4.57,2.16,4.57,2.16"/>
    <polyline class="cls-9" points="172.84 686.09 172.73 695.84 164.92 706.15"/>
    <path class="cls-9" d="M187.92,694.55c.17-.42-8.58,10.34-10.05,11.34"/>
    <path class="cls-9" d="M183.99,699.59s.4,4.2,5.97-.1c0,0,13.41.51,16.93-1.36"/>
    <path class="cls-9" d="M126.59,703.16s33.59,8.52,85.82-.79"/>
  </g>
  <g id="Pantalón">
    <path class="cls-6" d="M24.99,409.25"/>
    <path class="cls-5" d="M104.76,466.7c-13.88,4.55-16.66,202.4-16.66,202.4-27.76,9.1-52.74-2.27-52.74-2.27-8.33-168.29,11.1-270.62,11.1-270.62h56.88l1.42,70.5Z"/>
    <polyline class="cls-5" points="75.65 396.2 75.65 410.98 79.5 410.98 80.55 396.2"/>
    <line class="cls-5" x1="44.65" y1="407.31" x2="104.76" y2="408.47"/>
    <polyline class="cls-5" points="60.57 408.47 38.68 458.13 52.16 407.45"/>
    <polyline class="cls-5" points="35.93 494.61 61.61 494.61 61.61 556.98 33.29 556.98"/>
    <line class="cls-5" x1="34.95" y1="512.75" x2="61.02" y2="512.75"/>
    <path class="cls-5" d="M88.11,669.1l2.78-.37v11.74c-24.98,6.82-55.52-1.11-55.52-1.11v-12.53s26.37,10.23,52.74,2.27Z"/>
    <path class="cls-5" d="M102.69,466.7c13.88,4.55,16.66,202.4,16.66,202.4,27.76,9.1,52.74-2.27,52.74-2.27,8.33-168.29-11.1-270.62-11.1-270.62h-29.18s-27.7,0-27.7,0l-1.42,70.5Z"/>
    <polyline class="cls-5" points="131.81 396.2 131.81 410.98 127.95 410.98 126.9 396.2"/>
    <line class="cls-5" x1="162.8" y1="407.31" x2="102.69" y2="408.47"/>
    <polyline class="cls-5" points="146.88 408.47 168.77 458.13 155.3 407.45"/>
    <polyline class="cls-5" points="171.52 494.61 146.88 494.61 146.88 556.98 174.16 556.98"/>
    <line class="cls-5" x1="172.51" y1="512.75" x2="146.88" y2="512.75"/>
    <path class="cls-5" d="M172.09,666.82v12.53s-30.54,7.94-55.52,1.11v-11.74s2.78.37,2.78.37c0,0,24.2,8.19,52.74-2.27Z"/>
    <path class="cls-5" d="M114.22,408.47v32.46s1.65,12.22-9.45,8.76"/>
    <ellipse class="cls-5" cx="110.32" cy="403.02" rx="2.78" ry="2.27"/>
  </g>
  <g id="Camisa">
    <rect class="cls-12" x="-265.98" y="571.04" width="2.2" height="10.45" transform="translate(-859.65 796.45) rotate(-135)"/>
    <rect class="cls-12" x="-265.98" y="575.25" width="2.2" height="10.45" transform="translate(-847.83 839.87) rotate(-138.51)"/>
    <path class="cls-2" d="M-153.27,590.66h2.63l1.3,51.72c2.2,12.1-7.13,9.36-7.13,9.36l-96.56-.16c-14.01,1.49-11.67-8.02-11.67-8.02v-52.9h3.12s-4.4-70.43,21.46-80.88c0,0,32.46-19.81,71.53,3.85,0,0,24.05,19.81,15.33,77.03Z"/>
    <path class="cls-2" d="M-219.3,503.74s12.24-44.92,24.36-5.12c.34,1.11.68,2.29,1.01,3.53.03.1.05.19.08.29h-7.43s-5.58-27.02-9.9,0l-8.12,1.3Z"/>
    <rect class="cls-11" x="-252.22" y="596.99" width="91.06" height="7.4"/>
    <rect class="cls-10" x="-252.22" y="604.39" width="91.06" height="6.5"/>
    <polygon class="cls-12" points="-246.2 604.35 -243.01 605.41 -242.51 621.62 -245.7 620.56 -246.2 604.35"/>
    <path class="cls-13" d="M159.3,286.7l.22-59.57,20.53-33.31-47.61-18.64c-32.79,43.36-53.93-2.06-52.85,0l-57.15,25.46,27.16,27.69,2.08,33.77-4.77,133.26h113.8l-1.41-108.67"/>
    <g>
      <polygon class="cls-13" points="21.84 266.34 21.84 270.72 51.2 280.36 51.2 276.61 21.84 266.34"/>
      <g>
        <path class="cls-13" d="M22.34,201.85s-9.37,39.75-.5,64.48l29.36,10.28.39-16.6-1.37-30.87-27.88-27.29Z"/>
        <rect class="cls-19" x="22.82" y="201.74" width="31.32" height="27.4"/>
      </g>
    </g>
    <g>
      <polygon class="cls-13" points="159.16 273.09 158.75 277.75 188.03 271.83 188.03 267.01 159.16 273.09"/>
      <g>
        <path class="cls-13" d="M179.94,195.06s24.55,28.58,8.09,71.95l-28.88,6.08.25-44.87,20.53-33.15Z"/>
        <polygon class="cls-19" points="154.4 223.33 163.16 232.7 182.84 200.17 179.9 195.38 175.01 193.42 154.4 223.33"/>
      </g>
    </g>
  </g>
</svg>