<?xml version="1.0" encoding="UTF-8"?>
<svg id="Capa_1" data-name="Capa 1" xmlns="http://www.w3.org/2000/svg" version="1.1" viewBox="0 0 865 506">
  <defs>
    <style>
      .cls-1, .cls-2 {
        fill: #000;
      }

      .cls-1, .cls-3 {
        stroke: #000;
        stroke-miterlimit: 10;
      }

      .cls-2, .cls-4 {
        stroke-width: 0px;
      }

      .cls-3 {
        fill: none;
      }

      .cls-4 {
        fill: #991f1c;
      }
    </style>
  </defs>
  <path class="cls-3" d="M706.18,244.81"/>
  <path class="cls-2" d="M97.63,331.67l-31.84-82.89c-1.96-5.19-4.63-10.1-9.4-10.94-1.12-.14-1.4-.56-1.4-1.54s.56-1.54,1.54-1.54h39.69c.98,0,1.54.56,1.54,1.54s-.28,1.4-1.4,1.54c-7.57.98-9.26,3.93-6.59,10.94l17.95,47.55,17.53-47.55c1.96-5.19,1.26-9.54-6.17-10.94-1.12-.14-1.4-.56-1.4-1.54s.56-1.54,1.54-1.54h27.21c.98,0,1.54.56,1.54,1.54s-.28,1.4-1.4,1.54c-3.36.42-6.03,3.93-8.83,10.94l-32.26,82.89c-.7,1.82-2.1,2.67-4.07,2.67s-3.09-.84-3.79-2.67Z"/>
  <path class="cls-2" d="M150.09,331.39c0-.98.28-1.4,1.4-1.54,4.77-.84,7.57-5.33,7.57-10.94v-70.13c0-5.61-2.81-10.1-7.57-10.94-1.12-.14-1.4-.56-1.4-1.54s.56-1.54,1.54-1.54h37.31c.98,0,1.54.56,1.54,1.54s-.28,1.4-1.4,1.54c-4.77.84-7.57,5.33-7.57,10.94v70.13c0,5.61,2.8,10.1,7.57,10.94,1.12.14,1.4.56,1.4,1.54s-.56,1.54-1.54,1.54h-37.31c-.98,0-1.54-.56-1.54-1.54Z"/>
  <path class="cls-2" d="M200.3,327.46c-.84-.56-1.68-.7-1.96-3.23l-2.94-30.44c-.28-2.81,3.09-3.36,3.65-1.26,4.63,18.09,17.53,29.87,35.48,29.87,9.54,0,16.97-4.63,16.97-12.9,0-19.5-50.49-16.27-50.49-47.13,0-14.87,12.62-29.03,38.71-29.03,11.22,0,20.48,2.39,24.83,3.37.98.28,1.54.7,1.97,3.23l4.63,28.33c.42,2.81-2.66,3.23-3.64,1.26-10.52-20.62-19.5-24.96-28.61-24.96-8.41,0-14.59,4.91-14.59,11.5,0,19.78,50.63,13.18,50.63,48.53,0,20.06-15.57,29.74-41.37,29.74-16.69,0-27.07-2.81-33.24-6.87Z"/>
  <path class="cls-2" d="M285.72,299.27v-50.35c0-5.61-2.81-10.1-7.57-10.94-1.12-.14-1.4-.56-1.4-1.54s.56-1.54,1.54-1.54h37.31c.98,0,1.54.56,1.54,1.54s-.28,1.4-1.4,1.54c-4.77.84-7.57,5.33-7.57,10.94v50.35c0,12.06,5.33,21.32,18.94,21.32,11.64,0,17.67-6.73,17.67-22.58v-48.25c0-7.43-5.19-10.94-9.96-11.78-1.12-.14-1.4-.56-1.4-1.54s.56-1.54,1.54-1.54h27.91c.98,0,1.54.56,1.54,1.54s-.28,1.4-1.4,1.54c-4.77.84-6.31,5.33-6.31,10.94v50.35c0,22.72-12.06,35.06-34.5,35.06-25.1,0-36.47-15.43-36.47-35.06Z"/>
  <path class="cls-2" d="M367.91,331.39c0-.98.28-1.4,1.4-1.54,4.77-.84,6.31-5.33,6.31-10.94v-70.69l-.14.56c0-5.61-2.8-10.1-7.57-10.94-1.12-.14-1.4-.56-1.4-1.54s.56-1.54,1.54-1.54h26.51c10.8.42,10.24,4.63,20.62,26.51l12.06,25.53,19.64-46c1.26-2.94,2.1-6.03,5.19-6.03h30.44c.98,0,1.54.56,1.54,1.54s-.28,1.4-1.4,1.54c-4.77.84-7.57,5.33-7.57,10.94v70.13c0,5.61,2.81,10.1,7.57,10.94,1.12.14,1.4.56,1.4,1.54s-.56,1.54-1.54,1.54h-37.31c-.98,0-1.68-.56-1.68-1.54s.42-1.4,1.54-1.54c4.77-.56,7.57-5.33,7.57-10.94v-64.52l-30.29,70.41c-1.68,3.93-3.36,3.93-5.19,0l-29.59-66.34v60.45c0,5.61,3.51,10.1,8.27,10.94,1.12.14,1.41.56,1.41,1.54s-.56,1.54-1.54,1.54h-26.23c-.98,0-1.54-.56-1.54-1.54Z"/>
  <path class="cls-2" d="M674.51,331.39c0-.98.28-1.4,1.41-1.54,4.77-.84,7.57-5.33,7.57-10.94v-70.13c0-5.61-2.8-10.1-7.57-10.94-1.12-.14-1.41-.56-1.41-1.54s.56-1.54,1.54-1.54h37.31c.98,0,1.54.56,1.54,1.54s-.28,1.4-1.4,1.54c-4.77.84-7.57,5.33-7.57,10.94v70.13c0,5.61,2.81,10.1,7.57,10.94,1.12.14,1.4.56,1.4,1.54s-.56,1.54-1.54,1.54h-37.31c-.98,0-1.54-.56-1.54-1.54Z"/>
  <path class="cls-2" d="M721.22,283.56c0-31.84,14.72-50.21,44.32-50.21s44.46,18.37,44.46,50.21-14.87,50.35-44.46,50.35-44.32-18.51-44.32-50.35ZM785.45,283.7c0-24.26-5.33-37.73-19.92-37.73s-19.77,13.46-19.77,37.73,5.19,37.59,19.77,37.59,19.92-13.33,19.92-37.59Z"/>
  <path class="cls-4" d="M785.86,287.19v-4.68c-1.33-5.87-5.79-10.47-11.42-11.78-6.56-1.53-13.6,1.67-17.03,7.91-1.78-.48-5.29-1.14-9.31.07-8.14,2.45-11.16,10.42-11.53,11.44-.81,1.99-1.65,4.56-2.18,7.62-.44,2.59-.55,4.92-.52,6.84,0,0-.94,6.89,3.46,24.11,0,0,5.98,32.97,2.2,44.29,0,0-1.57,10.83-10.69,5.91,0,0-7.86-5.91-11.32,3.94,0,0,4.17-3.94,10.26,0,.78.4,1.56.81,2.36,1.24,1.64.89,3.19,1.79,4.68,2.69,0,0-3.14,2.95-6.29.98-10.71-6.7-15.41,6.4-15.41,6.4,2.52-4.43,8.18-3.94,8.18-3.94.39.02,1,.07,1.71.27,3.95,1.1,4.68,4.94,7.73,6.62,1.36.75,3.57,1.29,7.24.14,1.99-.56,3.51-1.28,4.56-1.87,2.97-1.65,5.81-4.18,5.81-4.18,15.41-15.26,11.63-50.69,11.63-50.69-.09-8.54.56-18.22,2.59-28.67.55-2.81,1.16-5.52,1.83-8.12.16-.7.89-3.53,3.57-5.19,1.71-1.06,3.43-1.15,4.1-1.12,3.94.14,8.5,5.79,10.24,13.51,0,0,3.56-9.74,3.56-23.77Z"/>
  <g>
    <path class="cls-2" d="M486.85,331.39c0-.98.28-1.4,1.4-1.54,4.77-.84,7.57-5.33,7.57-10.94v-70.13c0-5.61-2.8-10.1-7.57-10.94-1.12-.14-1.4-.56-1.4-1.54s.56-1.54,1.54-1.54h42.92c24.4,0,38.29,7.29,38.29,24.68,0,12.9-7.72,20.76-23.98,20.76,17.81,0,29.31,8.42,29.31,24.69,0,18.65-15.01,28.05-42.21,28.05h-44.32c-.98,0-1.54-.56-1.54-1.54ZM544.64,259.86c0-9.12-5.05-15.01-15.01-15.01h-11.36v30.58h9.68c10.94,0,16.69-5.89,16.69-15.57ZM549.96,304.88c0-12.06-8.69-19.36-20.61-19.36h-11.08v37.31h13.18c10.94,0,18.51-6.59,18.51-17.95Z"/>
    <rect class="cls-1" x="514.04" y="240.55" width="30.77" height="36.2"/>
  </g>
  <g>
    <path class="cls-2" d="M579.84,331.39c0-.98.28-1.4,1.4-1.54,4.77-.84,7.57-5.33,7.57-10.94v-70.13c0-5.61-2.8-10.1-7.57-10.94-1.12-.14-1.4-.56-1.4-1.54s.56-1.54,1.54-1.54h41.09c27.07,0,41.24,10.1,41.24,29.17,0,11.36-4.91,19.21-16.27,23.42l3.37,14.59c1.96,8.69,9.96,26.65,20.19,27.77.98.14,1.4.7,1.4,1.54v.28c0,.98-.42,1.4-1.4,1.4-11.5,0-29.17-.28-38.99-23.84l-7.71-18.65-5.19-10.1c12.34,0,19.64-5.33,19.64-17.81,0-11.5-6.17-17.53-17.95-17.53h-9.54v73.91c0,5.61,2.8,10.1,7.57,10.94,1.12.14,1.4.56,1.4,1.54s-.56,1.54-1.54,1.54h-37.31c-.98,0-1.54-.56-1.54-1.54Z"/>
    <path class="cls-2" d="M610.3,272.54c.36.31.55.75.82,1.23.32.57.74,1.1,1.2,1.57.93.94,2.03,1.73,3.1,2.5,2.12,1.54,4.37,2.89,6.73,4.05.73.36,1.62.2,2.05-.54.39-.66.19-1.69-.54-2.05-2.29-1.12-4.49-2.43-6.56-3.93-.92-.66-1.86-1.35-2.66-2.15s-1.12-2.03-2.02-2.8c-.62-.52-1.52-.61-2.12,0-.54.54-.62,1.59,0,2.12h0Z"/>
    <rect class="cls-1" x="605.08" y="244.13" width="36.09" height="33.19" transform="translate(247.13 -300.42) rotate(33.47)"/>
  </g>
</svg>