<?xml version="1.0" encoding="UTF-8"?>
<svg id="Capa_2" data-name="Capa 2" xmlns="http://www.w3.org/2000/svg" viewBox="0 0 334.02 260.49">
  <defs>
    <style>
      .cls-1, .cls-2 {
        fill: #8bb145;
      }

      .cls-1, .cls-2, .cls-3, .cls-4 {
        stroke-width: 0px;
      }

      .cls-1, .cls-3, .cls-4 {
        opacity: .9;
      }

      .cls-2 {
        opacity: .8;
      }

      .cls-3 {
        fill: #62883e;
      }

      .cls-5 {
        fill: #45672b;
        stroke: #364f20;
        stroke-miterlimit: 10;
        stroke-width: 3px;
      }

      .cls-4 {
        fill: #729a3f;
      }
    </style>
  </defs>
  <g id="_Àrbol" data-name="Àrbol">
    <g>
      <path class="cls-5" d="M48.6,92.74c-6.3-6.15-7.49-15.81-3-23,4.11-6.58,12.2-9.86,20-8,.53-2.07,2.34-8.01,8-12,6.69-4.72,16.07-4.8,24-.29-.19-.44-3.78-9.08,1-15.71,4.51-6.26,14.63-8.19,23-3,2.15-7.2,7.46-12.63,14-14,4.37-.92,8.09.23,10,1,.08-1.28.51-5.66,4-9,3.88-3.71,9.98-4.64,15.51-2.36.84-.75,7.05-6.06,15.49-4.64,7.1,1.19,12.97,6.67,15,14,.96-.69,6.87-4.77,14-3,7.11,1.77,12.51,8.63,13,17,5.04-6.22,13.16-6.67,17-3,2.6,2.48,3.26,6.85,2,11,2.09.36,7.33,1.56,12,6,5.7,5.42,6.76,12.06,7,14,5.47-6.47,14.81-8.12,22-4,6.87,3.93,10.23,12.23,8,20,7,2.71,12.01,8.83,13,16,1.21,8.78-4.17,15.06-5,16,10.19-2.85,19.97,2.94,22,11,1.5,5.94-1.29,12.76-7,17,6.85.17,11.98,5.44,12,11,.01,4.11-2.77,8.07-7,10,13.93,8.07,16.99,23.91,11,32-4.08,5.51-12.55,7.69-21,6,2.48,7.29.97,15.33-4,21-5.6,6.39-14.7,8.78-23,6,2.03,6.23,0,13.05-5,17-5.44,4.29-13.31,4.33-19,0,.15,6.8-3.95,12.86-10,15-5.04,1.79-10.77.61-14.98-3-1.47,1.74-7.58,8.58-18.02,10-8.3,1.13-14.68-1.79-17-3-18-.33-36-.67-54-1-1.46.56-4.36,1.44-8,1-4.7-.56-7.82-2.98-9-4-.69.49-4.35,2.96-9,2-4.34-.89-7.84-4.4-9-9-2.9,6.31-9.25,9.9-15,9-7.44-1.17-13.36-9.77-11-19-5.61,5.7-14.55,6.52-21,2-6.64-4.65-8.84-13.71-5-21-4.11,2.83-9.4,2.78-13,0-4.14-3.2-4.02-8.46-4-9-.71.17-7.5,1.7-13-3-4.43-3.78-4.92-8.96-5-10-9.8.78-17.86-5.49-19-13-1.17-7.72,5.46-13.59,5.93-14-4.86-2.8-7.61-8.01-6.93-13,.88-6.44,7.37-11.65,15-11-1.48-.9-8.68-5.45-9-12-.39-7.98,9.51-17.6,25-18-.69-.63-5.98-5.61-5-11,1.1-6.08,9.99-11.57,21-9Z"/>
      <path class="cls-3" d="M51.35,97.12c-6.32-5.36-7.43-14.51-2.79-20.9,4.93-6.8,15-8.59,22.35-3.64-.15-2.35-.03-6.82,2.79-10.91,4.52-6.54,14.11-9.38,23.9-6.82-.11-1.03-.68-7.42,4.04-12.26,4.44-4.56,11.76-5.88,18.31-3.2,2-5.94,6.95-10.43,13.04-11.57,4.07-.76,7.54.19,9.31.83.07-1.06.47-4.68,3.73-7.44,3.61-3.07,9.3-3.83,14.45-1.95.79-.62,6.57-5.01,14.43-3.84,6.61.98,12.08,5.51,13.97,11.57.9-.57,6.4-3.94,13.04-2.48,6.62,1.46,11.65,7.13,12.11,14.05,4.69-5.14,12.26-5.51,15.83-2.48,2.42,2.05,3.04,5.66,1.86,9.09,5.12,2.87,7.49,5.96,8.7,8.32.69,1.35,1.22,2.88,2.79,4.54,2,2.12,4.44,3.13,6.2,3.66,5.39-.48,9.93-.32,13.36-.02,6.05.53,7.71,1.42,8.38,1.82,4.92,2.94,5.94,9.15,6.2,11.43,2.13,1.16,8.68,5.09,12.11,13.22,4.46,10.59.15,20.09-.62,21.7,6.5-1.61,13.21,1.55,15.83,7.27,2.4,5.24.92,11.58-3.73,15.45.72.49,5.93,4.15,6.52,10.91.66,7.57-5.08,12.32-5.59,12.72,12.61,5.84,16.04,19.28,11.18,26.36-3.47,5.06-11.49,7.32-19.56,5.45.96-5.09,1.36-6.45,1.51-6.43.55.07,2.03,17.81-7.1,26.42-5.59,5.27-14,6.02-21.42,5.45-1.98,2.2-3.17,3.02-3.73,2.73-1.2-.62.16-6.51,1.55-6.57.73-.04,1.48,1.56,2.18,3.85,2.26,5.13,1.09,11-2.79,14.54-4.64,4.24-12.35,4.42-17.7,0-11.27,1.13-24.61,1.45-39.44-.21-5.61-.63-10.9-1.48-15.83-2.48-16.77-.28-33.53-.55-50.3-.83-1.36.46-4.06,1.19-7.45.83-4.37-.47-7.28-2.46-8.38-3.31-.65.4-4.05,2.44-8.38,1.65-4.04-.74-7.3-3.64-8.38-7.44-2.7,5.22-8.61,8.18-13.97,7.44-6.93-.97-12.45-8.08-10.25-15.7-5.22,4.71-13.56,5.38-19.56,1.65-6.18-3.84-8.23-11.33-4.66-17.35-3.83,2.34-8.76,2.29-12.11,0-3.86-2.64-3.75-6.99-3.73-7.44-3.25-.16-7.49-.75-12.11-2.48-10.77-4.03-16.81-11.7-19.24-15.24-4.11-4.14-6.12-9.73-4.66-14.54,2.18-7.19,12-12.28,22.35-9.09-9.13-2.4-16.56-7.03-16.77-11.81-.25-5.84,10.19-13.41,27.01-14.54q2.17,2.12,6.52,6.36-4.35-4.24-6.52-6.36c-3.97-2.45-6.78-6.26-6.52-10,.39-5.67,7.9-11.51,17.7-10Z"/>
      <path class="cls-4" d="M53.89,94.16c-5.81-4.84-6.82-13.1-2.57-18.87,4.53-6.14,13.79-7.76,20.54-3.28-.13-2.12-.03-6.16,2.57-9.85,4.15-5.9,12.97-8.47,21.96-6.16-.1-.93-.62-6.7,3.71-11.07,4.08-4.12,10.81-5.31,16.83-2.89,1.84-5.37,6.38-9.42,11.98-10.44,3.74-.68,6.93.17,8.56.75.07-.95.43-4.22,3.42-6.71,3.32-2.77,8.54-3.46,13.28-1.76.72-.56,6.03-4.52,13.26-3.46,6.08.89,11.1,4.98,12.84,10.44.83-.51,5.88-3.56,11.98-2.24,6.09,1.32,10.71,6.44,11.13,12.68,4.31-4.64,11.26-4.97,14.55-2.24,2.22,1.85,2.79,5.11,1.71,8.21,4.71,2.59,6.88,5.38,7.99,7.51.64,1.22,1.12,2.6,2.57,4.1,1.84,1.91,4.08,2.83,5.7,3.3,4.95-.43,9.13-.29,12.27-.02,5.56.48,7.09,1.28,7.7,1.64,4.52,2.66,5.46,8.26,5.7,10.32,1.96,1.05,7.98,4.59,11.13,11.93,4.1,9.56.14,18.13-.57,19.59,5.97-1.45,12.14,1.4,14.55,6.56,2.21,4.73.84,10.46-3.42,13.95.67.44,5.45,3.74,5.99,9.85.6,6.84-4.67,11.12-5.14,11.49,11.59,5.27,14.74,17.4,10.27,23.79-3.19,4.56-10.55,6.61-17.97,4.92.88-4.6,1.25-5.82,1.39-5.8.51.07,1.87,16.08-6.53,23.85-5.14,4.76-12.86,5.44-19.69,4.92-1.82,1.99-2.91,2.72-3.42,2.46-1.1-.56.15-5.87,1.42-5.93.67-.03,1.36,1.41,2,3.47,2.08,4.63,1,9.93-2.57,13.13-4.27,3.82-11.35,3.99-16.26,0-10.36,1.02-22.62,1.31-36.24-.19-5.16-.57-10.01-1.34-14.55-2.24-15.41-.25-30.81-.5-46.22-.75-1.25.42-3.73,1.07-6.85.75-4.02-.42-6.69-2.22-7.7-2.98-.59.36-3.72,2.2-7.7,1.49-3.71-.66-6.71-3.29-7.7-6.71-2.48,4.71-7.91,7.39-12.84,6.71-6.37-.87-11.44-7.29-9.41-14.17-4.8,4.25-12.46,4.86-17.97,1.49-5.68-3.47-7.56-10.23-4.28-15.66-3.52,2.11-8.05,2.07-11.13,0-3.54-2.39-3.44-6.31-3.42-6.71-2.99-.14-6.88-.68-11.13-2.24-9.9-3.64-15.45-10.56-17.68-13.75-3.77-3.74-5.62-8.79-4.28-13.13,2-6.49,11.03-11.08,20.54-8.2-8.39-2.17-15.22-6.35-15.41-10.67-.23-5.27,9.36-12.1,24.82-13.13q2,1.91,5.99,5.74-3.99-3.83-5.99-5.74c-3.64-2.21-6.23-5.66-5.99-9.02.36-5.12,7.26-10.39,16.26-9.02Z"/>
      <path class="cls-2" d="M109.39,70.93c-3.83-3.33-4.5-9-1.69-12.97,2.99-4.22,9.08-5.33,13.53-2.26-.09-1.46-.02-4.23,1.69-6.77,2.74-4.05,8.54-5.82,14.47-4.23-.07-.64-.41-4.61,2.45-7.61,2.69-2.83,7.12-3.65,11.09-1.99,1.21-3.69,4.2-6.47,7.89-7.18,2.47-.47,4.56.12,5.64.51.04-.66.29-2.9,2.26-4.61,2.19-1.9,5.63-2.38,8.75-1.21.48-.38,3.98-3.11,8.73-2.38,4,.61,7.31,3.42,8.46,7.18.54-.35,3.88-2.45,7.89-1.54,4.01.91,7.05,4.42,7.33,8.71,2.84-3.19,7.42-3.42,9.59-1.54,1.46,1.27,1.84,3.51,1.13,5.64,3.1,1.78,4.53,3.7,5.27,5.16.42.84.74,1.79,1.69,2.82,1.21,1.32,2.69,1.94,3.76,2.27,3.26-.3,6.01-.2,8.08-.01,3.66.33,4.67.88,5.07,1.13,2.98,1.83,3.6,5.68,3.76,7.09,1.29.72,5.26,3.16,7.33,8.2,2.7,6.57.09,12.46-.37,13.46,3.93-1,7.99.96,9.59,4.51,1.46,3.25.55,7.19-2.26,9.59.44.3,3.59,2.57,3.95,6.77.4,4.7-3.07,7.64-3.38,7.89,7.63,3.62,9.71,11.96,6.77,16.35-2.1,3.14-6.95,4.54-11.84,3.38.58-3.16.82-4,.92-3.99.33.05,1.23,11.05-4.3,16.39-3.38,3.27-8.47,3.74-12.97,3.38-1.2,1.37-1.92,1.87-2.26,1.69-.72-.39.1-4.04.94-4.08.44-.02.9.97,1.32,2.39,1.37,3.18.66,6.82-1.69,9.02-2.81,2.63-7.48,2.74-10.71,0-6.82.7-14.9.9-23.87-.13-3.4-.39-6.6-.92-9.59-1.54-10.15-.17-20.3-.34-30.45-.51-.82.29-2.46.74-4.51.51-2.65-.29-4.41-1.53-5.07-2.05-.39.25-2.45,1.51-5.07,1.03-2.44-.46-4.42-2.26-5.07-4.61-1.64,3.24-5.21,5.08-8.46,4.61-4.2-.6-7.53-5.01-6.2-9.74-3.16,2.92-8.21,3.34-11.84,1.03-3.74-2.38-4.98-7.03-2.82-10.76-2.32,1.45-5.3,1.42-7.33,0-2.33-1.64-2.27-4.33-2.26-4.61-1.97-.1-4.53-.46-7.33-1.54-6.52-2.5-10.18-7.26-11.65-9.45-2.49-2.57-3.7-6.04-2.82-9.02,1.32-4.46,7.27-7.62,13.53-5.64-5.52-1.49-10.02-4.36-10.15-7.33-.15-3.62,6.17-8.32,16.35-9.02q1.32,1.32,3.95,3.95-2.63-2.63-3.95-3.95c-2.4-1.52-4.1-3.89-3.95-6.2.24-3.52,4.78-7.14,10.71-6.2Z"/>
      <path class="cls-1" d="M153.61,95.87c-3.41-3.17-4.01-8.59-1.51-12.37,2.66-4.03,8.1-5.09,12.07-2.15-.08-1.39-.02-4.04,1.51-6.45,2.44-3.87,7.62-5.55,12.91-4.04-.06-.61-.36-4.39,2.18-7.26,2.4-2.7,6.35-3.48,9.89-1.89,1.08-3.52,3.75-6.17,7.04-6.85,2.2-.45,4.07.11,5.03.49.04-.62.26-2.77,2.01-4.4,1.95-1.81,5.02-2.27,7.8-1.15.42-.37,3.55-2.96,7.79-2.27,3.57.58,6.53,3.26,7.55,6.85.49-.34,3.46-2.33,7.04-1.47,3.58.86,6.29,4.22,6.54,8.31,2.53-3.04,6.62-3.26,8.55-1.47,1.31,1.21,1.64,3.35,1.01,5.38,2.77,1.7,4.04,3.53,4.7,4.92.37.8.66,1.7,1.51,2.69,1.08,1.25,2.4,1.85,3.35,2.17,2.91-.28,5.36-.19,7.21-.01,3.27.31,4.16.84,4.53,1.08,2.66,1.74,3.21,5.42,3.35,6.76,1.15.69,4.69,3.01,6.54,7.82,2.41,6.27.08,11.89-.33,12.84,3.51-.95,7.13.92,8.55,4.3,1.3,3.1.49,6.85-2.01,9.14.39.29,3.21,2.45,3.52,6.45.35,4.48-2.74,7.29-3.02,7.53,6.81,3.45,8.66,11.41,6.04,15.6-1.88,2.99-6.2,4.33-10.56,3.23.52-3.02.73-3.82.82-3.8.3.04,1.1,10.54-3.84,15.64-3.02,3.12-7.56,3.56-11.57,3.23-1.07,1.3-1.71,1.79-2.01,1.61-.65-.37.09-3.85.84-3.89.4-.02.8.92,1.18,2.28,1.22,3.04.59,6.51-1.51,8.61-2.51,2.51-6.67,2.61-9.56,0-6.09.67-13.29.86-21.3-.12-3.03-.37-5.88-.88-8.55-1.47-9.05-.16-18.11-.33-27.16-.49-.73.27-2.19.7-4.02.49-2.36-.28-3.93-1.46-4.53-1.96-.35.24-2.19,1.45-4.53.98-2.18-.44-3.94-2.15-4.53-4.4-1.46,3.09-4.65,4.84-7.55,4.4-3.74-.57-6.72-4.78-5.53-9.29-2.82,2.79-7.32,3.19-10.56.98-3.34-2.27-4.45-6.7-2.52-10.27-2.07,1.38-4.73,1.36-6.54,0-2.08-1.56-2.02-4.14-2.01-4.4-1.76-.09-4.04-.44-6.54-1.47-5.82-2.39-9.08-6.92-10.39-9.02-2.22-2.45-3.3-5.76-2.52-8.61,1.18-4.25,6.48-7.27,12.07-5.38-4.93-1.42-8.94-4.16-9.05-6.99-.14-3.45,5.5-7.93,14.59-8.61q1.17,1.25,3.52,3.76-2.35-2.51-3.52-3.76c-2.14-1.45-3.66-3.71-3.52-5.92.21-3.36,4.26-6.81,9.56-5.92Z"/>
      <path class="cls-1" d="M91.19,110.65c-3.41-3.17-4.01-8.59-1.51-12.37,2.66-4.03,8.1-5.09,12.07-2.15-.08-1.39-.02-4.04,1.51-6.45,2.44-3.87,7.62-5.55,12.91-4.04-.06-.61-.36-4.39,2.18-7.26,2.4-2.7,6.35-3.48,9.89-1.89,1.08-3.52,3.75-6.17,7.04-6.85,2.2-.45,4.07.11,5.03.49.04-.62.26-2.77,2.01-4.4,1.95-1.81,5.02-2.27,7.8-1.15.42-.37,3.55-2.96,7.79-2.27,3.57.58,6.53,3.26,7.55,6.85.49-.34,3.46-2.33,7.04-1.47,3.58.86,6.29,4.22,6.54,8.31,2.53-3.04,6.62-3.26,8.55-1.47,1.31,1.21,1.64,3.35,1.01,5.38,2.77,1.7,4.04,3.53,4.7,4.92.37.8.66,1.7,1.51,2.69,1.08,1.25,2.4,1.85,3.35,2.17,2.91-.28,5.36-.19,7.21-.01,3.27.31,4.16.84,4.53,1.08,2.66,1.74,3.21,5.42,3.35,6.76,1.15.69,4.69,3.01,6.54,7.82,2.41,6.27.08,11.89-.33,12.84,3.51-.95,7.13.92,8.55,4.3,1.3,3.1.49,6.85-2.01,9.14.39.29,3.21,2.45,3.52,6.45.35,4.48-2.74,7.29-3.02,7.53,6.81,3.45,8.66,11.41,6.04,15.6-1.88,2.99-6.2,4.33-10.56,3.23.52-3.02.73-3.82.82-3.8.3.04,1.1,10.54-3.84,15.64-3.02,3.12-7.56,3.56-11.57,3.23-1.07,1.3-1.71,1.79-2.01,1.61-.65-.37.09-3.85.84-3.89.4-.02.8.92,1.18,2.28,1.22,3.04.59,6.51-1.51,8.61-2.51,2.51-6.67,2.61-9.56,0-6.09.67-13.29.86-21.3-.12-3.03-.37-5.88-.88-8.55-1.47-9.05-.16-18.11-.33-27.16-.49-.73.27-2.19.7-4.02.49-2.36-.28-3.93-1.46-4.53-1.96-.35.24-2.19,1.45-4.53.98-2.18-.44-3.94-2.15-4.53-4.4-1.46,3.09-4.65,4.84-7.55,4.4-3.74-.57-6.72-4.78-5.53-9.29-2.82,2.79-7.32,3.19-10.56.98-3.34-2.27-4.45-6.7-2.52-10.27-2.07,1.38-4.73,1.36-6.54,0-2.08-1.56-2.02-4.14-2.01-4.4-1.76-.09-4.04-.44-6.54-1.47-5.82-2.39-9.08-6.92-10.39-9.02-2.22-2.45-3.3-5.76-2.52-8.61,1.18-4.25,6.48-7.27,12.07-5.38-4.93-1.42-8.94-4.16-9.05-6.99-.14-3.45,5.5-7.93,14.59-8.61q1.17,1.25,3.52,3.76-2.35-2.51-3.52-3.76c-2.14-1.45-3.66-3.71-3.52-5.92.21-3.36,4.26-6.81,9.56-5.92Z"/>
    </g>
  </g>
</svg>