<?xml version="1.0" encoding="UTF-8"?>
<svg id="Capa_2" data-name="Capa 2" xmlns="http://www.w3.org/2000/svg" xmlns:xlink="http://www.w3.org/1999/xlink" viewBox="0 0 1925.5 1081.5">
  <defs>
    <style>
      .cls-1 {
        fill: #595957;
      }

      .cls-1, .cls-2, .cls-3, .cls-4, .cls-5, .cls-6, .cls-7, .cls-8, .cls-9, .cls-10, .cls-11, .cls-12, .cls-13, .cls-14, .cls-15, .cls-16, .cls-17, .cls-18, .cls-19, .cls-20 {
        stroke-miterlimit: 10;
      }

      .cls-1, .cls-2, .cls-3, .cls-5, .cls-7, .cls-8, .cls-9, .cls-10, .cls-11, .cls-12, .cls-13, .cls-15, .cls-16, .cls-17, .cls-18, .cls-19 {
        stroke: #000;
      }

      .cls-1, .cls-2, .cls-3, .cls-5, .cls-7, .cls-11, .cls-12, .cls-13, .cls-17, .cls-18, .cls-20 {
        stroke-width: 2px;
      }

      .cls-2 {
        fill: #919191;
      }

      .cls-3, .cls-6 {
        fill: #cccec2;
      }

      .cls-4, .cls-7, .cls-11, .cls-12 {
        fill: #aebebf;
      }

      .cls-4, .cls-14 {
        stroke: #fff;
      }

      .cls-5, .cls-9, .cls-21, .cls-22 {
        fill: none;
      }

      .cls-23 {
        fill: #92b054;
      }

      .cls-23, .cls-24, .cls-25, .cls-21, .cls-26, .cls-27, .cls-28, .cls-29 {
        stroke-width: 0px;
      }

      .cls-6 {
        stroke: #233f26;
      }

      .cls-7, .cls-25 {
        opacity: .4;
      }

      .cls-8 {
        fill: #776139;
      }

      .cls-24 {
        fill: #8bb145;
      }

      .cls-10, .cls-14 {
        fill: #282826;
      }

      .cls-11 {
        opacity: .3;
      }

      .cls-25 {
        fill: url(#Sombreado);
      }

      .cls-12 {
        opacity: .7;
      }

      .cls-13 {
        fill: #f7f6f0;
      }

      .cls-26 {
        opacity: .02;
      }

      .cls-26, .cls-29 {
        fill: #000;
      }

      .cls-15 {
        fill: #7e683b;
      }

      .cls-27 {
        fill: #729a3f;
      }

      .cls-16 {
        fill: #292a2d;
      }

      .cls-17 {
        fill: #424240;
      }

      .cls-18 {
        fill: #e0e0e0;
      }

      .cls-22 {
        stroke: #1d1d1b;
        stroke-width: .3px;
      }

      .cls-28 {
        fill: #daeaed;
      }

      .cls-19 {
        fill: #212226;
      }

      .cls-29 {
        opacity: .1;
      }

      .cls-20 {
        fill: #45672b;
        stroke: #1d3d23;
      }
    </style>
    <pattern id="Sombreado" x="0" y="0" width="72" height="72" patternTransform="translate(-4426 59)" patternUnits="userSpaceOnUse" viewBox="0 0 72 72">
      <g>
        <rect class="cls-21" x="0" width="72" height="72"/>
        <g>
          <line class="cls-22" x1="67.96" y1="72.85" x2="69.08" y2="69.89"/>
          <line class="cls-22" x1="63.13" y1="72.98" x2="62.5" y2="69.71"/>
          <line class="cls-22" x1="47.91" y1="73.84" x2="48.03" y2="70.84"/>
          <line class="cls-22" x1="32.21" y1="72.24" x2="30.79" y2="70.19"/>
          <line class="cls-22" x1="15.95" y1="72.38" x2="17.27" y2="70.42"/>
          <line class="cls-22" x1="4.89" y1="73.71" x2="3.22" y2="71.39"/>
          <line class="cls-22" x1="55.47" y1="74.02" x2="57.47" y2="71.02"/>
        </g>
        <g>
          <line class="cls-22" x1="74.75" y1="24" x2="71.75" y2="24"/>
          <line class="cls-22" x1="73.75" y1="39.75" x2="71.75" y2="41.25"/>
        </g>
        <g>
          <line class="cls-22" x1="5.75" y1="10.75" x2="3" y2="12.75"/>
          <line class="cls-22" x1="4.25" y1="67" x2="2" y2="68.75"/>
          <line class="cls-22" x1="73.25" y1="7" x2="70" y2="7.75"/>
          <line class="cls-22" x1="72" y1="18.75" x2="69.5" y2="20.5"/>
          <line class="cls-22" x1="74.75" y1="24" x2="71.75" y2="24"/>
          <line class="cls-22" x1="71.5" y1="31.5" x2="68.75" y2="29.75"/>
          <line class="cls-22" x1="73.75" y1="39.75" x2="71.75" y2="41.25"/>
          <line class="cls-22" x1="71.25" y1="51.75" x2="68.5" y2="49.5"/>
          <line class="cls-22" x1="73.25" y1="62.75" x2="69" y2="62"/>
          <line class="cls-22" x1="63.5" y1="61" x2="61.25" y2="62.75"/>
          <line class="cls-22" x1="71.75" y1="45" x2="68.75" y2="45"/>
          <line class="cls-22" x1="58" y1="17.5" x2="56.11" y2="14.68"/>
          <line class="cls-22" x1="28" y1="16" x2="26.35" y2="13.44"/>
          <line class="cls-22" x1="43.04" y1="11.56" x2="44.89" y2="8.88"/>
          <line class="cls-22" x1="67.96" y1="72.85" x2="69.08" y2="69.89"/>
          <line class="cls-22" x1="63.13" y1="72.98" x2="62.5" y2="69.71"/>
          <line class="cls-22" x1="57" y1="48" x2="55.11" y2="45.18"/>
          <line class="cls-22" x1="48.65" y1="19.56" x2="47" y2="17"/>
          <line class="cls-22" x1="47.91" y1="73.84" x2="48.03" y2="70.84"/>
          <line class="cls-22" x1="40.54" y1="70.31" x2="42.39" y2="67.63"/>
          <line class="cls-22" x1="32.21" y1="72.24" x2="30.79" y2="70.19"/>
          <line class="cls-22" x1="50.32" y1="40.79" x2="52.67" y2="38.13"/>
          <line class="cls-22" x1="15.95" y1="72.38" x2="17.27" y2="70.42"/>
          <line class="cls-22" x1="9.25" y1="70.87" x2="10.16" y2="66.65"/>
          <line class="cls-22" x1="4.89" y1="73.71" x2="3.22" y2="71.39"/>
          <line class="cls-22" x1="27.04" y1="70.04" x2="27.16" y2="67.05"/>
          <line class="cls-22" x1="7.25" y1="5.25" x2="10.75" y2="6.75"/>
          <line class="cls-22" x1="4.5" y1="20.75" x2="4.75" y2="17.5"/>
          <line class="cls-22" x1="8" y1="43.75" x2="9.5" y2="47.5"/>
          <line class="cls-22" x1="5.25" y1="38.25" x2="7.5" y2="34.5"/>
          <line class="cls-22" x1="29.25" y1="4.5" x2="27" y2="7"/>
          <line class="cls-22" x1="33.5" y1="4.5" x2="36.75" y2="7.25"/>
          <line class="cls-22" x1="50.25" y1="4.5" x2="53.5" y2="6.5"/>
          <line class="cls-22" x1="52.5" y1="10.5" x2="50.5" y2="13.75"/>
          <line class="cls-22" x1="59.5" y1="9.25" x2="64.5" y2="7"/>
          <line class="cls-22" x1="67" y1="12.75" x2="64.5" y2="14.5"/>
          <line class="cls-22" x1="18.75" y1="4.75" x2="18.75" y2="7.75"/>
          <line class="cls-22" x1="15.75" y1="9.75" x2="12.5" y2="10.25"/>
          <line class="cls-22" x1="20" y1="14.25" x2="20.5" y2="17.5"/>
          <line class="cls-22" x1="21" y1="9.75" x2="24.5" y2="9"/>
          <line class="cls-22" x1="9.25" y1="21.5" x2="12" y2="19.5"/>
          <line class="cls-22" x1="7.5" y1="64" x2="7.75" y2="60"/>
          <line class="cls-22" x1="7.25" y1="55.75" x2="9.5" y2="53.25"/>
          <line class="cls-22" x1="21.25" y1="65.75" x2="18.75" y2="62.25"/>
          <line class="cls-22" x1="29.75" y1="28.5" x2="27.25" y2="30.25"/>
          <line class="cls-22" x1="57.75" y1="33.75" x2="55" y2="32.25"/>
          <line class="cls-22" x1="26.75" y1="40" x2="23" y2="39.25"/>
          <line class="cls-22" x1="31.5" y1="49.5" x2="29.5" y2="51"/>
          <line class="cls-22" x1="29" y1="61.5" x2="26.25" y2="59.25"/>
          <line class="cls-22" x1="32.25" y1="65.75" x2="30.25" y2="64.5"/>
          <line class="cls-22" x1="29.5" y1="54.75" x2="26.5" y2="54.75"/>
          <line class="cls-22" x1="39.75" y1="19" x2="37.25" y2="20.75"/>
          <line class="cls-22" x1="42.5" y1="24.25" x2="39.5" y2="24.25"/>
          <line class="cls-22" x1="39.25" y1="31.75" x2="36.5" y2="30"/>
          <line class="cls-22" x1="38.5" y1="42.5" x2="37.75" y2="45"/>
          <line class="cls-22" x1="39" y1="52" x2="36.25" y2="49.75"/>
          <line class="cls-22" x1="39.5" y1="60" x2="37.5" y2="58.75"/>
          <line class="cls-22" x1="62.97" y1="44.52" x2="59.97" y2="44.52"/>
          <line class="cls-22" x1="22.25" y1="43" x2="24.75" y2="44.75"/>
          <line class="cls-22" x1="27" y1="20.5" x2="30" y2="20.5"/>
          <line class="cls-22" x1="14.75" y1="34.75" x2="17.25" y2="36.5"/>
          <line class="cls-22" x1="12" y1="40" x2="15" y2="40"/>
          <line class="cls-22" x1="15.25" y1="47.5" x2="18" y2="45.75"/>
          <line class="cls-22" x1="47.25" y1="33" x2="49.63" y2="31.44"/>
          <line class="cls-22" x1="47.59" y1="25.47" x2="49.97" y2="27.29"/>
          <line class="cls-22" x1="54.72" y1="21.48" x2="54.5" y2="24.5"/>
          <line class="cls-22" x1="45.34" y1="65.56" x2="48.38" y2="65.69"/>
          <line class="cls-22" x1="46.34" y1="59.72" x2="48.72" y2="61.54"/>
          <line class="cls-22" x1="53.47" y1="55.73" x2="54.6" y2="58.79"/>
          <line class="cls-22" x1="48.25" y1="43.5" x2="45.75" y2="45.25"/>
          <line class="cls-22" x1="48" y1="51" x2="44.75" y2="50"/>
          <line class="cls-22" x1="57" y1="66.5" x2="54.25" y2="64.75"/>
          <line class="cls-22" x1="64.5" y1="41" x2="61.75" y2="39.25"/>
          <line class="cls-22" x1="62.25" y1="52" x2="60.25" y2="53.5"/>
          <line class="cls-22" x1="19.59" y1="29.56" x2="22.63" y2="29.69"/>
          <line class="cls-22" x1="20.59" y1="23.72" x2="22.97" y2="25.54"/>
          <line class="cls-22" x1="57.75" y1="28.5" x2="60.47" y2="29.04"/>
          <line class="cls-22" x1="15" y1="55.75" x2="15.5" y2="59"/>
          <line class="cls-22" x1="17" y1="53.75" x2="20.5" y2="53"/>
          <line class="cls-22" x1="32.75" y1="12.75" x2="36.75" y2="13.5"/>
          <line class="cls-22" x1="33.47" y1="33.52" x2="33.97" y2="37.02"/>
          <line class="cls-22" x1="64.5" y1="23" x2="62" y2="21.75"/>
          <line class="cls-22" x1="10" y1="13.5" x2="13.25" y2="16.25"/>
          <line class="cls-22" x1="4.75" y1="29.5" x2="2.25" y2="31.25"/>
          <line class="cls-22" x1="15.75" y1="24" x2="13.75" y2="25.5"/>
          <line class="cls-22" x1="41.29" y1="4.81" x2="43.14" y2="2.12"/>
          <line class="cls-22" x1="64.54" y1="35.06" x2="66.39" y2="32.38"/>
          <line class="cls-22" x1="33.79" y1="26.31" x2="34.5" y2="23.5"/>
          <line class="cls-22" x1="20.29" y1="58.81" x2="21" y2="56"/>
          <line class="cls-22" x1="31.75" y1="42.75" x2="29.75" y2="44.25"/>
          <line class="cls-22" x1="2.75" y1="24" x2="-.25" y2="24"/>
          <line class="cls-22" x1="1.75" y1="39.75" x2="-.25" y2="41.25"/>
          <line class="cls-22" x1="67.96" y1=".85" x2="69.08" y2="-2.11"/>
          <line class="cls-22" x1="63.13" y1=".98" x2="62.5" y2="-2.29"/>
          <line class="cls-22" x1="47.91" y1="1.84" x2="48.03" y2="-1.16"/>
          <line class="cls-22" x1="32.21" y1=".24" x2="30.79" y2="-1.81"/>
          <line class="cls-22" x1="15.95" y1=".38" x2="17.27" y2="-1.58"/>
          <line class="cls-22" x1="4.89" y1="1.71" x2="3.22" y2="-.61"/>
          <line class="cls-22" x1="5.25" y1="52" x2="1.5" y2="51.25"/>
          <line class="cls-22" x1="68.37" y1="57.34" x2="66.47" y2="54.52"/>
          <line class="cls-22" x1="23.97" y1="36.02" x2="24.66" y2="33.23"/>
          <line class="cls-22" x1="44.75" y1="37" x2="42.75" y2="38.5"/>
          <line class="cls-22" x1="55.47" y1="2.02" x2="57.47" y2="-.98"/>
          <line class="cls-22" x1="55.47" y1="74.02" x2="57.47" y2="71.02"/>
        </g>
        <g>
          <line class="cls-22" x1="1.25" y1="7" x2="-2" y2="7.75"/>
          <line class="cls-22" y1="18.75" x2="-2.5" y2="20.5"/>
          <line class="cls-22" x1="2.75" y1="24" x2="-.25" y2="24"/>
          <line class="cls-22" x1="1.75" y1="39.75" x2="-.25" y2="41.25"/>
          <line class="cls-22" x1="1.25" y1="62.75" x2="-3" y2="62"/>
        </g>
        <g>
          <line class="cls-22" x1="67.96" y1=".85" x2="69.08" y2="-2.11"/>
          <line class="cls-22" x1="63.13" y1=".98" x2="62.5" y2="-2.29"/>
          <line class="cls-22" x1="47.91" y1="1.84" x2="48.03" y2="-1.16"/>
          <line class="cls-22" x1="32.21" y1=".24" x2="30.79" y2="-1.81"/>
          <line class="cls-22" x1="15.95" y1=".38" x2="17.27" y2="-1.58"/>
          <line class="cls-22" x1="4.89" y1="1.71" x2="3.22" y2="-.61"/>
          <line class="cls-22" x1="55.47" y1="2.02" x2="57.47" y2="-.98"/>
        </g>
      </g>
    </pattern>
  </defs>
  <g id="Cèsped">
    <rect class="cls-23" x="1.5" y="697.5" width="1920" height="383"/>
  </g>
  <g id="Cemento">
    <polygon class="cls-6" points="1178.43 1079.5 1634.5 1081 1922 950.36 1921.5 847.59 1178.43 1079.5"/>
    <polygon class="cls-25" points="1181.93 1077.5 1638 1079 1925.5 948.36 1925 845.59 1181.93 1077.5"/>
  </g>
  <g id="Cielo">
    <rect class="cls-28" x="2" width="1921" height="677"/>
  </g>
  <g id="Edificio">
    <polygon class="cls-13" points="325.5 686.5 1.5 697.5 1.5 368.5 325.5 407.5 325.5 686.5"/>
    <polygon class="cls-1" points="343.5 413.5 1.5 368.5 1.5 344.5 408.5 399.5 343.5 413.5"/>
    <polygon class="cls-1" points="325.5 407.5 325.5 686.5 350.5 689.5 350.5 431.57 342.5 433.5 342.43 407.5 325.5 407.5"/>
    <polygon class="cls-1" points="599 367 343 413 342 434 599 392 599 367"/>
    <polygon class="cls-7" points="599 711 350 690 350 432 599 392 599 711"/>
    <polygon class="cls-17" points="760.5 728.5 600 712 600 259 758 213 760.5 728.5"/>
    <polygon class="cls-17" points="770.5 729.5 759.5 729.5 758.5 212.5 769.5 214.5 770.5 729.5"/>
    <polygon class="cls-1" points="949.5 234.5 770.5 277.5 769.5 214.5 949.5 161.5 949.5 234.5"/>
    <polygon class="cls-1" points="1922.5 426.5 949.5 234.5 949.5 161.5 1923.5 398.5 1922.5 426.5"/>
    <polygon class="cls-13" points="782.5 556.5 770.5 557.5 770.5 277.5 783.5 274.5 782.5 556.5"/>
    <polygon class="cls-11" points="949.5 549.5 782.5 556.5 783.5 274.5 949.5 234.5 949.5 549.5"/>
    <polygon class="cls-13" points="972.5 550.5 949.5 549.5 949.5 234.5 972.5 239.5 972.5 550.5"/>
    <polygon class="cls-18" points="1921.5 591.5 972.5 550.5 972.5 239.5 1922.5 426.5 1921.5 591.5"/>
    <polygon class="cls-13" points="949.5 580.5 770.5 584.5 770.5 557.5 949.5 549.5 949.5 580.5"/>
    <polygon class="cls-2" points="949.5 747.5 770.5 728.5 770.5 584.5 949.5 580.5 949.5 747.5"/>
    <polygon class="cls-13" points="1921.5 609.5 949.5 580.5 949.5 549.5 1921.5 591.5 1921.5 609.5"/>
    <polygon class="cls-2" points="1921.5 689.5 949.5 747.5 949.5 580.5 1921.5 609.5 1921.5 689.5"/>
    <polygon class="cls-12" points="1884.5 675.5 1085.5 706.5 1085.5 609.5 1884.5 619.5 1884.5 675.5"/>
    <polygon class="cls-3" points="327.5 697.5 1.5 710.5 1.5 697.5 325.5 686.5 327.5 697.5"/>
    <polygon class="cls-3" points="334.69 687.6 334.69 697.5 946.5 779.5 1922 703.5 1921.5 689.5 949.5 747.5 334.69 687.6"/>
    <polygon class="cls-18" points="325.5 590.5 2.5 580.5 1.5 368.5 325.5 411.5 325.5 590.5"/>
  </g>
  <g id="Sombras">
    <polygon class="cls-29" points="1373.5 909.5 1458.5 890.5 1636.5 927.5 1566.5 953.5 1373.5 909.5"/>
    <polygon class="cls-29" points="52.5 827.5 123.5 841.5 235.5 820.5 200.5 806.5 52.5 827.5"/>
    <path class="cls-29" d="M1543,794l-23-6s127-24,294,17c0,0-13,3-19,7,0,0-40,0-47,2,0,0-31.68-.99-110.82,11.81-.39.06-.79.13-1.18.19l-144-19s2-10,51-13Z"/>
    <path class="cls-26" d="M0,921.07v159.93h953s-174-28-193-60l-140-13s129,13.07,162-6.96c0,0-221-46.96-305.5,0,0,0,29.5-15.04,16.5-24.04,0,0-59,1-76,1,0,0-235.02-15.94-244-19,0,0-74-9-81-21,0,0,53-6,81,9,0,0-65.43-28.86-109.71-25.93l-57.86-.21-5.43.21Z"/>
    <path class="cls-29" d="M232.25,689.67s-.5,11.16,9.62,11.25c0,0-72.37,1.42-9.62-11.25Z"/>
    <path class="cls-29" d="M426,712l132,19s-80,3-85,2c0,0-72.93,4.41-94.96.2-22.04-4.2-2.04-.2-2.04-.2,0,0-37.29,7.94-44-1-3-4-5-5-5-5h0s.34,1.03,1,3c-4.5,1.54-6.76.89-8,0-1.57-1.13-2.23-3.17-4.02-3.22-1.06-.03-1.94.45-2.94.06-.31-.12-.55-.37-1.03-.84-2-2,0,0,0,0,.73-2.12,1.94-4.46,4-5,2.57-.68,4.93,1.84,6,1,.58-.46.74-1.87-1-6,0,0,52-12,105-4Z"/>
  </g>
  <g id="Linea_edificio" data-name="Linea edificio">
    <line class="cls-5" x1="67.26" y1="377.15" x2="67.26" y2="583.29"/>
    <line class="cls-5" x1="139.5" y1="385.61" x2="139.5" y2="585.75"/>
    <line class="cls-5" x1="207.5" y1="393.61" x2="207.5" y2="586.75"/>
    <line class="cls-5" x1="270.5" y1="404.61" x2="270.5" y2="587.75"/>
    <line class="cls-5" x1="1" y1="423.57" x2="325.5" y2="455.36"/>
    <line class="cls-5" x1="1" y1="480.57" x2="325.5" y2="504.5"/>
    <line class="cls-5" x1="1" y1="532.57" x2="325.5" y2="548.5"/>
    <line class="cls-5" x1="2" y1="581.57" x2="325.5" y2="590.5"/>
    <line class="cls-5" x1="2" y1="599.57" x2="326" y2="605.5"/>
    <line class="cls-5" x1="350" y1="470.75" x2="599" y2="439.46"/>
    <line class="cls-5" x1="350" y1="507.75" x2="599.5" y2="485.5"/>
    <line class="cls-5" x1="350.5" y1="535.5" x2="599.5" y2="521.5"/>
    <line class="cls-5" x1="350.5" y1="574.5" x2="598.5" y2="566.5"/>
    <line class="cls-5" x1="350.5" y1="673.5" x2="599.5" y2="689.5"/>
    <polygon class="cls-5" points="599.5 615.5 349.5 620.5 349.5 606.5 599.5 600.5 599.5 615.5"/>
    <polygon class="cls-13" points="599.5 711.5 350.5 689.5 350.5 673.5 599.5 689.5 599.5 711.5"/>
    <line class="cls-5" x1="383.59" y1="427.2" x2="383.59" y2="675.63"/>
    <line class="cls-5" x1="423.59" y1="420.2" x2="423.59" y2="676.63"/>
    <line class="cls-5" x1="462.59" y1="413.2" x2="462.59" y2="679.63"/>
    <line class="cls-5" x1="507.59" y1="407.2" x2="507.59" y2="682.63"/>
    <line class="cls-5" x1="553.59" y1="400.2" x2="553.59" y2="685.63"/>
    <line class="cls-5" x1="758.3" y1="275.5" x2="600" y2="313.71"/>
    <line class="cls-5" x1="759.3" y1="345.5" x2="601" y2="376.71"/>
    <line class="cls-5" x1="759.3" y1="408.5" x2="601" y2="431.71"/>
    <line class="cls-5" x1="759.3" y1="469.5" x2="601" y2="486.71"/>
    <line class="cls-5" x1="759.3" y1="528.5" x2="601" y2="538.71"/>
    <line class="cls-5" x1="759.3" y1="586.5" x2="601" y2="590.71"/>
    <line class="cls-5" x1="834.16" y1="262.29" x2="834.16" y2="554.33"/>
    <line class="cls-5" x1="889.16" y1="249.29" x2="889.16" y2="551.33"/>
    <line class="cls-5" x1="1040.16" y1="252.29" x2="1040.16" y2="554.33"/>
    <line class="cls-5" x1="1109.16" y1="265.29" x2="1109.5" y2="556"/>
    <line class="cls-5" x1="1171.16" y1="277.29" x2="1171.5" y2="560"/>
    <line class="cls-5" x1="1283.5" y1="301" x2="1283.5" y2="565"/>
    <line class="cls-5" x1="1231.5" y1="291" x2="1231.5" y2="563"/>
    <line class="cls-5" x1="1333.5" y1="311" x2="1333.5" y2="565"/>
    <line class="cls-5" x1="1381.5" y1="320" x2="1381.5" y2="570"/>
    <line class="cls-5" x1="1426.5" y1="330" x2="1426.5" y2="571"/>
    <line class="cls-5" x1="1468.5" y1="336" x2="1468.5" y2="572"/>
    <line class="cls-5" x1="1507.5" y1="345" x2="1507.5" y2="574"/>
    <line class="cls-5" x1="1544.5" y1="351" x2="1544.5" y2="576"/>
    <line class="cls-5" x1="1582.5" y1="359" x2="1582.5" y2="577"/>
    <line class="cls-5" x1="1616.5" y1="367" x2="1616.5" y2="579"/>
    <line class="cls-5" x1="1651.5" y1="373" x2="1651.5" y2="580"/>
    <line class="cls-5" x1="1785.5" y1="400" x2="1785.5" y2="586"/>
    <line class="cls-5" x1="1810.5" y1="402" x2="1810.5" y2="588"/>
    <line class="cls-5" x1="1836.5" y1="410" x2="1836.5" y2="589"/>
    <line class="cls-5" x1="1860.5" y1="415" x2="1860.5" y2="589"/>
    <line class="cls-5" x1="1884.5" y1="418" x2="1884.5" y2="592"/>
    <line class="cls-5" x1="1907.5" y1="420" x2="1907.5" y2="594"/>
    <line class="cls-5" x1="783.5" y1="327.43" x2="949.5" y2="294"/>
    <line class="cls-5" x1="972.5" y1="296.5" x2="1921.5" y2="462.5"/>
    <line class="cls-5" x1="972.5" y1="338.5" x2="1922.5" y2="484.5"/>
    <line class="cls-5" x1="973.5" y1="379.5" x2="1921.5" y2="510.5"/>
    <line class="cls-5" x1="973.5" y1="427.5" x2="1921.5" y2="538.5"/>
    <line class="cls-5" x1="973.5" y1="465.5" x2="1921.5" y2="562.5"/>
    <line class="cls-5" x1="973.5" y1="512.5" x2="1923.5" y2="579.5"/>
    <line class="cls-5" x1="1085.5" y1="640.5" x2="1885" y2="640.5"/>
    <line class="cls-5" x1="782.5" y1="363.43" x2="948.5" y2="335.5"/>
    <line class="cls-5" x1="783.5" y1="400.43" x2="949.5" y2="377"/>
    <line class="cls-5" x1="783.5" y1="442.43" x2="949.5" y2="424"/>
    <line class="cls-5" x1="783.76" y1="521.1" x2="949.76" y2="511.67"/>
    <line class="cls-5" x1="783.5" y1="477.43" x2="949.5" y2="463"/>
    <line class="cls-5" x1="1144.07" y1="609.5" x2="1144.07" y2="704.23"/>
    <line class="cls-5" x1="1202.07" y1="610.5" x2="1202.07" y2="703.23"/>
    <line class="cls-5" x1="1258.07" y1="610.5" x2="1258.07" y2="700.23"/>
    <line class="cls-5" x1="1318.07" y1="611.5" x2="1318.07" y2="697.23"/>
    <line class="cls-5" x1="1372.07" y1="611.5" x2="1372.07" y2="696.23"/>
    <line class="cls-5" x1="1426.07" y1="613.5" x2="1426.07" y2="695.23"/>
    <line class="cls-5" x1="1479.07" y1="613.5" x2="1479.07" y2="693.23"/>
    <line class="cls-5" x1="1527.07" y1="614.5" x2="1527.07" y2="691.23"/>
    <line class="cls-5" x1="1574.07" y1="615.5" x2="1574.07" y2="688.23"/>
    <line class="cls-5" x1="1617.07" y1="615.5" x2="1616.5" y2="686"/>
    <line class="cls-5" x1="1658.5" y1="617" x2="1658.5" y2="685"/>
    <line class="cls-5" x1="1728.5" y1="617" x2="1728.5" y2="682"/>
    <line class="cls-5" x1="1764.5" y1="618" x2="1764.5" y2="681"/>
    <line class="cls-5" x1="1800.5" y1="619" x2="1800.5" y2="679"/>
    <line class="cls-5" x1="1830.5" y1="619" x2="1830.5" y2="678"/>
    <line class="cls-5" x1="1860.5" y1="620" x2="1860.5" y2="677"/>
  </g>
  <g id="Ventanas">
    <polygon class="cls-14" points="211.5 679.5 75.5 681.5 75.5 600.5 211.5 604.5 211.5 679.5"/>
    <rect class="cls-4" x="83" y="608.5" width="30.5" height="18"/>
    <rect class="cls-4" x="118" y="608.5" width="22" height="18"/>
    <rect class="cls-4" x="148.5" y="609" width="25.5" height="17.5"/>
    <rect class="cls-4" x="179" y="609" width="25" height="17.5"/>
    <rect class="cls-4" x="83" y="628.5" width="30.5" height="49"/>
    <rect class="cls-4" x="118" y="628.5" width="22" height="49"/>
    <rect class="cls-4" x="149" y="628.5" width="25" height="48.5"/>
    <rect class="cls-4" x="179" y="628.5" width="25" height="48.5"/>
    <polygon class="cls-10" points="708.5 349.5 648.5 361.5 648.5 314.5 708.5 301.5 708.5 349.5"/>
    <polygon class="cls-4" points="682.5 354.5 658.5 358.5 658.5 317.5 682.5 312.5 682.5 354.5"/>
    <polygon class="cls-4" points="706 349.5 687 353.5 687 311.5 706 306.5 706 349.5"/>
    <polygon class="cls-10" points="710.5 474.5 648.5 481.5 648.29 425.7 710.5 415.5 710.5 474.5"/>
    <polygon class="cls-4" points="682.5 473.5 658.5 476.5 658.5 428.7 682.5 425.7 682.5 473.5"/>
    <polygon class="cls-4" points="705.79 471.7 688 473.7 688 425.7 705.79 423.7 705.79 471.7"/>
    <polygon class="cls-10" points="709.29 583.17 648.29 584.17 648.29 536.17 709.29 532.17 709.29 583.17"/>
    <polygon class="cls-4" points="682.5 582.17 658.5 582.17 658.5 540.17 682.5 538.17 682.5 582.17"/>
    <polygon class="cls-4" points="706.79 581.17 688 582.17 688 538.17 706.79 537.17 706.79 581.17"/>
    <polygon class="cls-10" points="724.5 724.5 636.5 715.5 636.5 626.5 724.5 626.5 724.5 724.5"/>
    <polyline class="cls-9" points="648.29 626.5 648.29 711 724.5 714.11"/>
    <polygon class="cls-9" points="724.5 714.5 653.5 711.5 653.5 635.5 724.5 636.5 724.5 714.5"/>
    <polygon class="cls-4" points="682.5 710.5 656.5 709.5 656.5 639.5 682.5 639.5 682.5 710.5"/>
    <polygon class="cls-4" points="720.5 712.5 689.5 711.5 689.5 639.5 720.5 639.5 720.5 712.5"/>
  </g>
  <g id="_Àrbol" data-name="Àrbol">
    <path class="cls-20" d="M244.5,701.5c30.33-1,60.67-2,91-3,1.92-1.84,2.71-4.55,2-7-.85-2.95-3.72-5.04-7-5,4.83-3.92,5.28-9.64,3-12-2.23-2.31-6.77-1.07-7-1-.07-.24-1.24-3.95-5-5-3.12-.87-5.63.75-6,1,1.1-5.49-2.51-10.9-8-12s-10.9,2.51-12,8c-1.28-5.71-6.27-9.83-12-10-6-.18-11.4,4.02-12.75,10-11.99-4.4-22.2-.66-24.25,5-1.6,4.43,1.95,9.58,3,11-7.95-3.07-15.63,1.09-17,6-1.41,5.04,3.26,12.83,12,14Z"/>
    <path class="cls-27" d="M244.15,694c4.85.34,11.67.75,19.85,1,9.68.29,17.22.52,27,0,8.34-.45,9.78-.99,22-2,9.5-.79,17.22-1.18,22.15-1.38,1.68-1.45,2.68-3.68,2-5.55-.85-2.34-3.72-4-7-3.97,4.83-3.11,5.28-7.65,3-9.52-2.23-1.83-6.77-.85-7-.79-.07-.19-1.24-3.13-5-3.97-3.12-.69-5.63.6-6,.79,1.1-4.35-2.51-8.65-8-9.52s-10.9,1.99-12,6.35c-1.28-4.53-6.27-7.8-12-7.93-6-.14-11.4,3.19-12.75,7.93-11.99-3.49-22.2-.52-24.25,3.97-1.6,3.52,1.95,7.6,3,8.73-7.95-2.44-15.63.87-17,4.76-1.41,4,3.26,10.18,12,11.11Z"/>
    <path class="cls-24" d="M261.16,685.49c5.2,2.94,9.85,3.91,12.84,4.51,6.08,1.22,10.88,1.1,15,1,2.25-.06,6.07-.17,11-1,3.35-.57,6.28-1.39,12-3,4.02-1.13,7.56-2.2,10.51-3.12,1.13-.98,1.81-2.48,1.35-3.74-.57-1.58-2.51-2.7-4.72-2.67,3.26-2.1,3.56-5.16,2.02-6.42-1.5-1.23-4.56-.57-4.72-.53-.05-.13-.84-2.11-3.37-2.67-2.1-.47-3.8.4-4.04.53.74-2.93-1.69-5.83-5.39-6.42-3.7-.59-7.35,1.34-8.09,4.28-.86-3.05-4.23-5.26-8.09-5.35-4.04-.09-7.69,2.15-8.6,5.35-8.09-2.35-14.97-.35-16.35,2.67-1.08,2.37,1.32,5.12,2.02,5.88-5.36-1.64-10.53.58-11.46,3.21-.88,2.5,5.43,5.98,8.09,7.49Z"/>
  </g>
  <g id="Bancas">
    <polygon class="cls-16" points="78.5 761.5 83.5 794.5 81 829.18 89.79 829.18 89.79 802.18 118.5 807.5 118.5 840.43 127.5 840.5 127.5 808.29 236.5 793.5 236.5 825 243.5 824.5 243.5 786.11 208.5 781.5 203.5 749.5 78.5 761.5"/>
    <polygon class="cls-16" points="200.35 798.4 200.35 815.14 208.5 815.14 208.5 797.3 200.35 798.4"/>
    <polygon class="cls-15" points="87.5 763.5 87.5 773.57 200.35 762.43 200.35 751.71 87.5 763.5"/>
    <polygon class="cls-15" points="88.5 775.11 88.5 784 201.35 774.17 201.35 764.71 88.5 775.11"/>
    <polygon class="cls-15" points="89.5 786.5 89.5 794.5 202.35 782.21 202.35 774.71 89.5 786.5"/>
    <polyline class="cls-9" points="127.5 808.29 127.5 800.14 89.5 794.5"/>
    <path class="cls-15" d="M106.07,794.5l98.36-11.29,30.07,3.29v4.86l-105,14.14h-2v-5.36l-25.72-3.82-3.81-.57,8.1-1.26Z"/>
    <path class="cls-19" d="M1473.5,809.5l171,22-10,43,1,55h-9.93l-1.07-44-39,9-1,48s-4,2-11,0l1-46-152-27v43.25s-5,2.75-12-.25v-56.64l54-9.36,9-37Z"/>
    <path class="cls-19" d="M1464.35,876.93v20.71s4.86,3.14,9.5,0v-19.02l-9.5-1.69Z"/>
    <polygon class="cls-8" points="1479.5 812.5 1470.5 849.5 1423.5 857.5 1423.5 866.46 1575.5 893.5 1575.5 882.54 1624.5 875.5 1634.5 832.5 1479.5 812.5"/>
    <line class="cls-9" x1="1476.55" y1="825.63" x2="1631.45" y2="845.59"/>
    <line class="cls-9" x1="1472.94" y1="839.48" x2="1628.17" y2="859.72"/>
    <line class="cls-9" x1="1470.5" y1="849.5" x2="1624.81" y2="874.15"/>
    <line class="cls-9" x1="1445.54" y1="853.75" x2="1598.33" y2="879.26"/>
    <line class="cls-9" x1="1423.5" y1="857.5" x2="1575.5" y2="882.54"/>
  </g>
</svg>