<?xml version="1.0" encoding="UTF-8"?>
<svg id="Capa_2" data-name="Capa 2" xmlns="http://www.w3.org/2000/svg" viewBox="0 0 1218 383">
  <defs>
    <style>
      .cls-1 {
        fill: #020202;
        stroke-width: 0px;
      }

      .cls-2 {
        letter-spacing: 0em;
      }

      .cls-3 {
        letter-spacing: .01em;
      }

      .cls-4 {
        letter-spacing: 0em;
      }

      .cls-5 {
        letter-spacing: 0em;
      }

      .cls-6 {
        fill: #fff;
        font-family: MyriadPro-Regular, 'Myriad Pro';
        font-size: 41px;
      }

      .cls-7 {
        letter-spacing: 0em;
      }

      .cls-8 {
        letter-spacing: 0em;
      }

      .cls-9 {
        letter-spacing: -.02em;
      }

      .cls-10 {
        letter-spacing: 0em;
      }

      .cls-11 {
        letter-spacing: -.01em;
      }

      .cls-12 {
        letter-spacing: 0em;
      }

      .cls-13 {
        letter-spacing: 0em;
      }

      .cls-14 {
        letter-spacing: 0em;
      }
    </style>
  </defs>
  <g id="Capa_1-2" data-name="Capa 1">
    <rect class="cls-1" width="1218" height="383" rx="148" ry="148"/>
    <text class="cls-6" transform="translate(58.7 164.32)"><tspan x="0" y="0">El </tspan><tspan class="cls-8" x="38.54" y="0">D</tspan><tspan x="66.01" y="0">o</tspan><tspan class="cls-3" x="88.52" y="0">c</tspan><tspan class="cls-12" x="107.42" y="0">t</tspan><tspan x="120.74" y="0">or </tspan><tspan class="cls-13" x="165.35" y="0">B</tspan><tspan class="cls-2" x="187.74" y="0">e</tspan><tspan class="cls-13" x="208.28" y="0">r</tspan><tspan x="221.85" y="0">nal t</tspan><tspan class="cls-5" x="296.3" y="0">r</tspan><tspan x="309.5" y="0">abaja en la </tspan><tspan class="cls-10" x="500.89" y="0">t</tspan><tspan x="514.21" y="0">e</tspan><tspan class="cls-8" x="534.75" y="0">r</tspan><tspan x="548.32" y="0">minal o</tspan><tspan class="cls-8" x="675.5" y="0">r</tspan><tspan x="689.07" y="0">i</tspan><tspan class="cls-10" x="698.67" y="0">g</tspan><tspan x="721.34" y="0">inando las c</tspan><tspan class="cls-8" x="923.26" y="0">r</tspan><tspan x="936.83" y="0">i</tspan><tspan class="cls-7" x="946.43" y="0">a</tspan><tspan class="cls-4" x="966.03" y="0">tu</tspan><tspan class="cls-5" x="1002.19" y="0">r</tspan><tspan x="1015.39" y="0">as</tspan><tspan x="0" y="49.2">que h</tspan><tspan class="cls-14" x="97.66" y="49.2">a</tspan><tspan class="cls-4" x="117.09" y="49.2">y d</tspan><tspan class="cls-11" x="168.22" y="49.2">r</tspan><tspan class="cls-2" x="181.22" y="49.2">e</tspan><tspan class="cls-7" x="201.76" y="49.2">n</tspan><tspan class="cls-12" x="224.35" y="49.2">t</tspan><tspan x="237.67" y="49.2">o de las capsulas </tspan><tspan class="cls-10" x="530.25" y="49.2">c</tspan><tspan x="548.37" y="49.2">on gu</tspan><tspan class="cls-5" x="647.83" y="49.2">r</tspan><tspan x="661.03" y="49.2">a de mostruo y un m</tspan><tspan class="cls-7" x="1011.78" y="49.2">a</tspan><tspan class="cls-12" x="1031.38" y="49.2">t</tspan><tspan class="cls-2" x="1044.71" y="49.2">e</tspan><tspan class="cls-13" x="1065.25" y="49.2">r</tspan><tspan x="1078.82" y="49.2">ial </tspan><tspan x="0" y="98.4">genéti</tspan><tspan class="cls-10" x="109.92" y="98.4">c</tspan><tspan x="128.04" y="98.4">o des</tspan><tspan class="cls-10" x="219.14" y="98.4">c</tspan><tspan x="237.26" y="98.4">onocid</tspan><tspan class="cls-9" x="356.12" y="98.4">o</tspan><tspan x="377.65" y="98.4">.</tspan></text>
  </g>
</svg>