<?xml version="1.0" encoding="UTF-8"?>
<svg id="Capa_2" data-name="Capa 2" xmlns="http://www.w3.org/2000/svg" viewBox="0 0 893.85 193.98">
  <defs>
    <style>
      .cls-1, .cls-2, .cls-3, .cls-4, .cls-5, .cls-6, .cls-7, .cls-8, .cls-9, .cls-10, .cls-11, .cls-12, .cls-13, .cls-14, .cls-15, .cls-16, .cls-17, .cls-18 {
        stroke: #000;
        stroke-miterlimit: 10;
      }

      .cls-1, .cls-2, .cls-4, .cls-5, .cls-7, .cls-10, .cls-11, .cls-12, .cls-13, .cls-15, .cls-17, .cls-18 {
        opacity: .15;
      }

      .cls-1, .cls-3, .cls-13 {
        fill: #15151c;
      }

      .cls-1, .cls-7, .cls-11, .cls-12, .cls-17, .cls-18 {
        stroke-width: .31px;
      }

      .cls-2, .cls-4, .cls-5, .cls-10, .cls-13, .cls-15 {
        stroke-width: .29px;
      }

      .cls-2, .cls-7, .cls-9 {
        fill: #0d0d0f;
      }

      .cls-3, .cls-6, .cls-8, .cls-9, .cls-14, .cls-16 {
        opacity: .2;
        stroke-width: .25px;
      }

      .cls-4, .cls-6, .cls-11 {
        fill: #fff;
      }

      .cls-5, .cls-16, .cls-18 {
        fill: #252528;
      }

      .cls-8, .cls-10, .cls-12 {
        fill: #252526;
      }

      .cls-14, .cls-15, .cls-17 {
        fill: #000;
      }
    </style>
  </defs>
  <g id="Drek_Som" data-name="Drek Som">
    <g id="sombra3">
      <path class="cls-3" d="M797.46,55.61l-6.12-8.22s-2.13,3.97-11.17,1.23l-18.16,2.88s-9.5,1.78-13.22-7.53l-.8-5.62s-3.19,6.44,0,15.34c0,0,7.71,15.48,13.56,20.13,0,0,12.76,11.92,13.56,12.88,0,0,5.32,8.49,13.03,2.05l19.41-14.52-10.11-18.63Z"/>
      <path class="cls-3" d="M749.59,47.94s6.12,17.53,15.69,26.3c0,0,14.36,11.37,15.42,13.7"/>
      <path class="cls-3" d="M780.39,85.27s-5.8-11.17-6.33-14.46"/>
      <path class="cls-3" d="M778.05,74.51s.7,5.74,2.35,7.67c0,0,2.71,3.7,2.17,4.52,0,0,.27,1.08,1.6,1.77"/>
      <path class="cls-3" d="M784.16,87.93s1.33-6.16,3.72-9.04"/>
      <path class="cls-3" d="M842.84,55.61l5.67-5.2s6.65,2.19,13.3-3.97l16.47,5.07s9.5,1.78,13.22-7.53l.8-5.62s3.19,6.44,0,15.34c0,0-7.71,15.48-13.56,20.13,0,0-12.76,11.92-13.56,12.88,0,0-5.32,8.49-13.03,2.05l-19.41-14.52,10.11-18.63Z"/>
      <path class="cls-3" d="M890.71,47.94s-6.12,17.53-15.69,26.3c0,0-14.36,11.37-15.42,13.7"/>
      <path class="cls-3" d="M859.91,85.27s5.8-11.17,6.33-14.46"/>
      <path class="cls-3" d="M862.25,74.51s-.7,5.74-2.35,7.67c0,0-2.71,3.7-2.17,4.52,0,0-.27,1.08-1.6,1.77"/>
      <path class="cls-3" d="M856.14,87.93s-1.33-6.16-3.72-9.04"/>
      <path class="cls-8" d="M842.4,80.67c-.94-.61,6.13.95,5.08.42-.01,0-.01-.02,0-.02.47-.19,7.97-3.02,8.49-3.41,0,0,1.6-.82,4.25-1.64,0,0,8.78-3.01,8.78-10,0,0,4.52-2.88,6.38-7.67,0,0,2.13-2.74,3.72-3.29,0,0,4.79-6.03,4.79-8.22,0,0-.8-6.71.53-8.22,0,0,1.6-6.03,1.06-8.36,0,0,.8-2.6,1.06-3.42,0,0,.53-1.78-.8-3.15l-.27-3.29s-2.66-2.33-3.72-2.74c0,0-4.25-2.88-7.45-2.47,0,0-3.19-.96-5.58-.68,0,0-2.39-.14-.27.68,0,0,5.05,2.74,6.12,5.48l.27,3.97s-2.13,5.34-6.65,2.6c0,0-1.86-1.37-1.33-2.88,0,0-.8-1.51-1.86-1.78s0-2.05.53-2.05c0,0-1.86-.68-3.46,2.05v2.19s-1.86.96.53,2.33c0,0,2.13,2.33,1.86,3.42,0,0,.53,2.05,4.79,3.42,0,0,2.13,1.51,0,4.38-2.13,2.88-6.65,6.03-6.65,6.03,0,0-1.86,3.42-1.86,5.07s-.8,3.29-.8,3.29c0,0-7.45,3.97-8.24,6.03,0,0-1.86-3.42-3.46-3.7l.27-6.3s1.86-2.05,2.39-5.07c0,0,7.97-5.76,7.45-9.72-1.33-10,.8-8.22-1.33-10s0,0,0,0c0,0-1.06-3.84-7.45-7.94,0,0,1.86-6.16,8.51-8.08,0,0,2.66-.41,3.46-1.51,0,0,1.33,1.1,5.58-1.92,0,0,1.86-1.1,2.39-2.74,0,0-2.66.96-5.05.96,0,0-3.72-.55-4.79,0,0,0,.53-1.64,0-2.19,0,0-1.06.27-2.93,1.1,0,0-4.52-.14-5.85.14,0,0-3.46.82-3.46,1.1s0,.14,0,.14c0,0,.53-2.19-.8-2.88,0,0-1.86.41-3.19,1.51,0,0-2.93-.55-5.32,1.1,0,0-.8.96-.53,1.23,0,0-2.13.55-1.86,1.51l.27,4.79s-.8,2.74-1.86,3.01c0,0-1.06.82.53,1.92,0,0,1.86,2.19,0,3.56,0,0-2.93,2.74.27,6.16,0,0,1.7,1.02,1.65,2.49,0,0-4.04,2.57-5.9,3.26,0,0-6.65,3.29-6.12,4.38,0,0-3.46-1.51-9.84,0,0,0-1.06-1.64-5.05-3.97,0,0-5.32-3.42-7.45-4.25,0,0,2.93-1.92,3.19-3.97s-1.86-5.2-1.86-5.2c0,0,.27-1.37,1.86-2.6,0,0,0-1.51-1.86-3.7,0,0-2.13-1.92-.53-4.79,0,0,.27-1.37,0-2.05,0,0-2.13-.68-3.72-1.64,0,0-.53-.68-4.52-.96,0,0-2.13-1.23-2.93-1.37s-1.33,2.88-1.33,2.88c0,0-1.06-1.37-5.85-1.37,0,0-1.6-.14-2.39,0l-2.66-1.37s-1.6.14-.53,2.33c0,0-2.66-1.51-4.79-.27,0,0-1.6.27-3.46-.41,0,0-2.39-1.1-2.13-.14,0,0-1.07,2.19,4.25,3.42,0,0,1.6,1.64,4.52,1.1,0,0,1.06,1.1,5.05,1.23,0,0,8.24,4.66,7.71,8.36,0,0-5.58,2.88-7.18,6.03,0,0-1.33,3.15-2.13,3.7,0,0,0,6.16.8,8.08,0,0,1.86,4.11,9.57,9.72,0,0,1.09.84,2.11,2.2.47.63.28,1.22,1.08,2.18v3.29s-.27,1.51-.27,3.97c0,0-1.09.6-1.55,1.29s-.79,1.41-1.46,1.79c-.48.27-.47.35-.98.07-.38-.2-1.45-1.39-2.45-2.19-.44-.35-.64-.47-1.13-.87-2-1.64-4.53-3.07-5.2-3.65-.8-.68-.91-1.37-1.01-2.1-.05-.37-.05.04-.05-1.05,0,0,.53-3.84-5.05-7.26,0,0-8.78-6.16-3.19-8.36,0,0,2.93-1.23,2.93-3.01,0,0,.8-3.15,2.13-4.25l.27-3.29s-1.06-3.29-4.52-3.97c0,0,1.4,2.18.27,3.42,0,0-.44,4.05-4.61,4.7,0,0-8.42-.59-3.1-7.98,0,0,.53-2.88,4.25-3.97,0,0,1.33-.68-2.39-.55,0,0-2.99.25-3.62.88,0,0-2.49-.61-5.42,1.17,0,0-1.89.85-2.33,1.86-.03.06-.05.13-.06.19-.27,1.1-3.19,2.6-3.19,2.6,0,0,0,5.07.8,5.75s2.13,6.16,1.86,6.44-.8,2.33,1.33,5.48c0,0,0,10,4.25,13.56,4.25,3.56,6.91,6.16,6.65,7.4-.27,1.23,3.46,6.03,5.58,6.16,0,0,.27,9.04,13.03,11.23,0,0,4.79,2.6,8.51,3.29,3.72.68,47.6.41,47.6.41"/>
      <path class="cls-8" d="M799.47,77.96s-6.76-3.56,8.51-8.57"/>
      <path class="cls-8" d="M791.17,75.47s1.87.66,4.74-1.79"/>
      <path class="cls-8" d="M785.55,74.17s-2.18.07-2.18-.89"/>
      <path class="cls-8" d="M779.37,62.87s10.05,1.66,12.74,3.3"/>
      <path class="cls-8" d="M790.72,65.52s1.95-6.24,14.98-7.87"/>
      <path class="cls-8" d="M790.28,58.62s1.96,2.19,2.31,4.25"/>
      <path class="cls-8" d="M798.21,72.21s-.89-3.98-4.14-4.81"/>
      <line class="cls-8" x1="795.16" y1="71.8" x2="795.16" y2="71.33"/>
      <path class="cls-8" d="M793.09,67.4s.91.44,1.58,1.17"/>
      <line class="cls-8" x1="794.67" y1="71.33" x2="794.67" y2="70.98"/>
      <path class="cls-8" d="M839.57,76.91s2.83-2.61-3.02-4.7"/>
      <path class="cls-8" d="M828.8,69.39s1.63-.18,2.43.41"/>
      <path class="cls-8" d="M832.62,70.27s4.98.48,5.78,1.06"/>
      <path class="cls-8" d="M839.57,71.8s3.1.05,3.76.76"/>
      <path class="cls-8" d="M844.92,74.17s1.6.21,1.66,1.3"/>
      <path class="cls-8" d="M848.92,75.47s5.11,1.51,6.61.41"/>
      <path class="cls-8" d="M844.92,70.98s-.21-2.18.89-2.41"/>
      <path class="cls-8" d="M846.59,70.04s-1.19-1.24.77-1.81"/>
      <path class="cls-8" d="M847.98,66.98s4.71-2.32,7.54-2.46c0,0,3.89-.42,4.69-1.37"/>
      <path class="cls-8" d="M861.11,63.14s3.36-.36,3.76-1.55"/>
      <path class="cls-8" d="M867.15,62.87s1.58.82,1.84,3.15"/>
      <path class="cls-8" d="M841.05,59.18s8.34,3.19,9.9,6.52"/>
      <path class="cls-8" d="M849.41,63.82s-.1-3.42,2.3-5.07"/>
      <path class="cls-8" d="M809.42,58.21s3.53.41,6.55,2.12"/>
      <line class="cls-8" x1="817.1" y1="64.51" x2="817.1" y2="63.46"/>
      <path class="cls-8" d="M821.22,64.44s-2.22-1.53-.76-2.85"/>
      <path class="cls-8" d="M820.59,60.33s2.09-1.59,7.7-2.68"/>
      <path class="cls-8" d="M830.17,57.65s3.77-.42,5.34,0"/>
      <line class="cls-8" x1="846.23" y1="64.75" x2="844.91" y2="63.46"/>
      <path class="cls-8" d="M857.46,66.02s-.09-.5,1.6-.32"/>
      <path class="cls-8" d="M773.26,65.74s.61-2.5,2.03-3.3"/>
      <path class="cls-8" d="M765.55,18.76s2.41-.68,3.73,0c0,0-.56-1.14-3.21-1.26l-.52,1.26Z"/>
      <path class="cls-8" d="M872.43,17.96s-2.91.11-3.44.39c0,0-.98-1.38,2.3-1.31l1.13.92Z"/>
      <path class="cls-8" d="M849.05,11.78s-.27-2.74,3.72-3.97c0,0,1.86-1.23,1.86-1.64,0,0,1.43-.47,2.71-1.81"/>
      <path class="cls-8" d="M850.11,5.18s.8,1.12,4.52.98"/>
      <path class="cls-8" d="M859.4,4.35s.02,1.4,2.15,2.08"/>
      <path class="cls-8" d="M858.35,6.84s2.35.41,2.77,0"/>
      <path class="cls-8" d="M837.61,3.97s.53,2.6,4.52,2.47c0,0,3.92.83,5.02-3.01"/>
      <path class="cls-8" d="M849.58,3.83s-1.25-.69-.76-1.51"/>
      <line class="cls-8" x1="837.4" y1="6.43" x2="837.4" y2="5.51"/>
      <path class="cls-8" d="M843.46,8.21l.53-.96"/>
      <path class="cls-8" d="M843.99,8.37s.3-1.25,1.61-1.53"/>
      <path class="cls-8" d="M777.25,6.3s1.21.27,1.4,0"/>
      <path class="cls-8" d="M788.15,7.26s-1.36-.23-3.2-.9c-1.67-.6-3.72-1.56-5.52-3.02"/>
      <path class="cls-8" d="M784.95,6.36s4.45.41,5.55-2.63"/>
      <path class="cls-8" d="M795.06,6.84s-4.51-1.17-3.45-3.12"/>
      <path class="cls-8" d="M787.09,8.35s4.52,1.64,4.79,4.38"/>
      <path class="cls-8" d="M795.06,8.35s-1.37-.96-1.48-1.51"/>
      <path class="cls-8" d="M798.54,6.36s3.29-.5,1.63-3.02"/>
      <line class="cls-8" x1="800.12" y1="7.8" x2="800.12" y2="6.58"/>
      <path class="cls-8" d="M800.12,10.54s.53,1.78,1.6,2.47c0,0-.8,1.37-3.19,2.05"/>
      <path class="cls-8" d="M802.78,16.3s0-.96,1.06-1.64"/>
      <path class="cls-8" d="M797.19,15.61s-4.52-.14-6.91.68"/>
      <path class="cls-8" d="M796.39,19.99s.81-1.55,3.2-1.94"/>
      <path class="cls-8" d="M839.47,9.45s-1.6,2.74,1.06,4.66"/>
      <path class="cls-8" d="M842.93,14.79s3.53.41,4.56,0"/>
      <path class="cls-8" d="M844.57,15.62s3.15.13,3.68.68"/>
      <path class="cls-8" d="M839,17.18s3.1,1.66,3.38,1.97"/>
      <line class="cls-8" x1="837.61" y1="16.41" x2="836.95" y2="15.96"/>
      <line class="cls-8" x1="836.28" y1="15.34" x2="835.92" y2="14.79"/>
      <line class="cls-8" x1="838.09" y1="14.79" x2="838.41" y2="14.38"/>
      <path class="cls-8" d="M836.28,13.6s0-.61.66-.73"/>
      <path class="cls-8" d="M850.11,19.31s.8,0,1.06.55"/>
      <path class="cls-8" d="M846.92,22.6s1.6-1.1,2.66-.96"/>
      <path class="cls-8" d="M842.38,22.72s1.35-.4.81-.95"/>
      <path class="cls-8" d="M836.61,27.13s1.64-.85,2.38-2.14"/>
      <path class="cls-8" d="M839.47,26.71s2.39-1.1,2.39-2.05"/>
      <path class="cls-8" d="M845.21,25.68s1.78-.52,2.28-.23,2.62,1.25,2.62,1.25"/>
      <path class="cls-8" d="M850.64,21.93s4.52.53,4.79,4.64"/>
      <path class="cls-8" d="M796.39,22.75s2.66,1.49,2.66,2.17"/>
      <path class="cls-8" d="M800.12,25.45s.74.76,2.36,1.49"/>
      <path class="cls-8" d="M796.39,25.45s2.94,1.6,3.2,2.94"/>
      <path class="cls-8" d="M800.38,29.03s.27,2.31,1.33,2.73"/>
      <path class="cls-8" d="M784.58,28.39s.65,1.33.65,2.43"/>
      <path class="cls-8" d="M783.9,23.28s2.39-.96,3.19-.96"/>
      <path class="cls-8" d="M786.55,24.24s2.39-1.51,3.99-1.51"/>
      <path class="cls-8" d="M789.25,22.32s2.58.82,3.13,1.16"/>
      <path class="cls-8" d="M763.79,15.12s-3.84,1.68-3.57,2.38-2.22,2.49-2.22,2.49l.64,4.66s-2.13.14,0,3.29"/>
      <path class="cls-8" d="M754.18,20.13l1,4.39s-2.13,1.23-1.6,2.19"/>
      <line class="cls-8" x1="755.18" y1="27.23" x2="755.6" y2="27.94"/>
      <path class="cls-8" d="M755.6,29.03s1.17,2.33.64,2.74"/>
      <path class="cls-8" d="M758.94,28.39s.84,4.65,0,5.18"/>
      <path class="cls-8" d="M761.67,20.13s1.48.28,1.48.69"/>
      <path class="cls-8" d="M762.8,20.47s1.28-1.87,1.35-2.34"/>
      <line class="cls-8" x1="777.25" y1="50.61" x2="782.61" y2="52.68"/>
      <path class="cls-8" d="M862.08,24.79s2.81-.27,2.34.89"/>
      <path class="cls-8" d="M879.91,26.57s2.94-1.62,0-3.55c0,0-1.35-7.13-5.6-7.82"/>
      <path class="cls-8" d="M884.15,29.72v-3.15s-.52-.59-.8-2.6c-.8-5.89.53-5.07-.8-5.89"/>
      <path class="cls-8" d="M879.63,33.97s.26-4.64,1.59-6.84"/>
      <path class="cls-8" d="M859.95,52.73s1.86-1.64,3.99-1.37"/>
      <path class="cls-8" d="M861.94,51.08s.93-1.36,3.59-1.36"/>
      <path class="cls-8" d="M865.53,51.33s6.91.99.8,8.25"/>
      <path class="cls-8" d="M870.59,52.46s1.33,2.33,2.39,2.33"/>
      <path class="cls-8" d="M771.66,50.81s2.13-.68,1.6-2.67"/>
      <path class="cls-8" d="M774.27,60.33s-3.06-3.92-1.77-5.97c0,0,1.46-1.5,1.77-2.94"/>
      <path class="cls-8" d="M760.74,41.68s-.22-4.75-1.43-6.16"/>
      <path class="cls-8" d="M797.19,56.84s5.85-3.01,6.91-3.01c0,0,1.75-1.19,4.92,0,0,0,4.46,2.3,6.95,1.63"/>
      <path class="cls-8" d="M821.68,55.45s1.31.58,8.49-2.44c0,0,6.24-.83,7.64.47,0,0,1.67,1.59,4.06,1.58"/>
      <line class="cls-8" x1="801.05" y1="45.27" x2="807.3" y2="40.27"/>
      <path class="cls-8" d="M832.83,39.44s.65,2.29,2.98,2.24"/>
      <path class="cls-8" d="M839,43.09s2.57,1.4,3.38,1"/>
      <path class="cls-9" d="M772.99,5.61s5.85-.14,1.33-2.88c0,0-2.48.22-4.03-.65,0,0-2.46-.95-1.61.87,0,0,.05,1.83,4.31,2.65Z"/>
      <path class="cls-9" d="M783.21,5.61l-4.1-2.47s-1.33-1.92.53-2.47l2.66,1.37,1.48-.05s3.84,1.42,2.51,2.65c0,0-.3,1.37-3.08.96Z"/>
      <path class="cls-9" d="M797.19,4.93s-4.13,1.65-6.45-2.39c0,0,.11-2.64,1.82-1.77,0,0,5.17,2.38,5.17,3.61,0,0-.27.41-.53.55Z"/>
      <path class="cls-9" d="M842.4,1.78s-2.13,2.19.8,3.29c0,0,2.66.41,4.25-2.05,0,0,.33-2.62-1.03-2.82,0,0-3.22,1.17-2.96,1.45,0,0-.8-.14-1.06.14Z"/>
      <path class="cls-9" d="M852.5,4.65s-1.49-1.56,2.85-3.04l1.41.03,2.71-1.03s1.01.9.21,2.13c0,0-3.19,2.65-4.79,2.35,0,0-2.13.39-2.39-.44Z"/>
      <path class="cls-9" d="M865.93,5.31s-3.32.85-4.38-.93c0,0-.46-1.19,3.49-1.49,0,0,3.68-.43,4.48-1.12,0,0-.81,2.54-3.59,3.53Z"/>
      <path class="cls-16" d="M786.29,105.19s2.93.55,9.04-3.7c0,0,6.38-4.79,7.18-5.07,0,0,3.19-3.01,5.85-3.29,0,0,3.46-1.23,3.99-1.78,0,0,6.46,1.78,14.8,0,0,0,5.41,1.23,7.54,3.15,0,0,4.6,2.49,6.02,3.78,0,0,4.35,3.62,14.19,5.95,0,0-7.45-4.66-8.78-7.26,0,0-3.19-5.34-6.91-7.81,0,0-1.6-1.37-2.66-2.19,0,0,1.33-.82,1.33-2.47,0,0,3.99,2.19,9.04,2.74,0,0,5.32,1.64,9.84,1.64,0,0-1.98-3.06-6.38-5.9,0,0-6.65-4.38-14.63-5.06,0,0,.27-5.48-6.12-7.67,0,0-3.99-4.79-9.31-4.93-5.32-.14-11.7,1.23-12.5,4.52,0,0-4.79,3.15-4.25,5.2,0,0,0,2.88-2.93,3.56,0,0-10.37.96-16.49,10.27,0,0,7.71-2.05,9.04-1.92s7.71-1.23,8.78-2.33c0,0,2.39,1.23-1.86,4.66,0,0-6.38,3.97-6.12,5.48s-1.6,7.53-4.52,8.22l-3.19,2.19Z"/>
      <path class="cls-16" d="M787.62,87.11s13.03-2.6,14.89-7.81c0,0,.8-1.64,1.86-1.78,0,0,1.06-.68,1.33-1.23"/>
      <path class="cls-16" d="M853.83,87.93s-11.85-2.89-16.75-7.94c0,0-2.13-3.15-4.25-4.11"/>
      <path class="cls-16" d="M790.33,85.27s-.4.87.83.94"/>
      <path class="cls-16" d="M792.14,83.96s-.4,1.38,1.93,1.31"/>
      <path class="cls-16" d="M795.46,81.9s-1.2,2.17,1.2,2.46"/>
      <path class="cls-16" d="M800.91,80.54s-4.18.54-2.49,2.6"/>
      <line class="cls-16" x1="798.02" y1="81.07" x2="800.12" y2="80.26"/>
      <path class="cls-16" d="M839.57,80.26s2.35.86,1.13,2.49"/>
      <path class="cls-16" d="M842.19,81.5s1.92.81,0,2.46"/>
      <path class="cls-16" d="M846.29,82.73s2.68.7-.47,2.54"/>
      <path class="cls-16" d="M850.38,84.92s0,1.27-1.46,1.52"/>
      <path class="cls-16" d="M852.33,86.21s-.29.76-1.39.9"/>
      <path class="cls-16" d="M793.09,100.56s.58.17,2.07,0"/>
      <path class="cls-16" d="M799.07,96.63s1.58.46,1.84-.35"/>
      <path class="cls-16" d="M796.66,93.4s1.6,0,1.86,1.11"/>
      <path class="cls-16" d="M799.99,92.05s.66,2.18,1.72,2.18h1.73"/>
      <line class="cls-16" x1="802.02" y1="87.4" x2="804.81" y2="85.27"/>
      <path class="cls-16" d="M803.44,88.23s.66-.79.8-1.57"/>
      <line class="cls-16" x1="804.81" y1="87.93" x2="804.81" y2="88.65"/>
      <path class="cls-16" d="M810.62,88.29s-.4.74.66.6"/>
      <line class="cls-16" x1="813.68" y1="90.53" x2="812.35" y2="91.36"/>
      <line class="cls-16" x1="825.66" y1="90.53" x2="827.15" y2="91.36"/>
      <path class="cls-16" d="M833.87,86.21s1.35-.34,2.68.76"/>
      <path class="cls-16" d="M802.02,83.13s.15,1.22.85,1.23"/>
      <path class="cls-16" d="M803.84,83.75s0-2.01,1.86-2.54"/>
      <path class="cls-16" d="M812.35,84.92s2.13-.64,1.33-2.44c0,0,.84-.25,1.61,0"/>
      <path class="cls-16" d="M825.21,84.36s-1.54-.08-.68-.72"/>
      <path class="cls-16" d="M827.72,85.27s1.54,1.18,1.6.89l.06-.29h0"/>
      <line class="cls-16" x1="837.86" y1="83.64" x2="837.88" y2="84.51"/>
      <path class="cls-16" d="M836.55,83.96s-.11-.83-.85-.83"/>
      <path class="cls-16" d="M834.44,82.48s-.82-1.1-2.28-.97-1.37-1.24-1.37-1.24"/>
      <line class="cls-16" x1="830.79" y1="79.55" x2="830.17" y2="79.17"/>
      <path class="cls-16" d="M830.17,78.78s2.39-2.85,0-5.34"/>
      <path class="cls-16" d="M806.5,75.47s1.6-1.92.53-2.6"/>
      <line class="cls-16" x1="807.4" y1="77.61" x2="807.4" y2="76.91"/>
      <line class="cls-16" x1="805.7" y1="77.96" x2="806.5" y2="77.26"/>
      <path class="cls-16" d="M807.4,79.17s-.37,2.84-1.3,3.2"/>
      <path class="cls-16" d="M810.92,78.78s.63,1.48,2.1,1"/>
      <path class="cls-16" d="M818.94,81.07s1.16-.89-.46-1.74"/>
      <path class="cls-16" d="M811.29,68.28s.8-.21,1.73,0"/>
      <path class="cls-16" d="M815.29,68.57s1.41-1.09,3.62-.38"/>
      <path class="cls-16" d="M822.25,68.19s.21-.84,1.14,0"/>
      <path class="cls-16" d="M826.01,78.78s2.91.05,1.14.76"/>
      <line class="cls-16" x1="822.25" y1="79.88" x2="822.81" y2="79.36"/>
      <path class="cls-14" d="M811.49,78.55s-6.85-4.21-.47-7.89l.47.63.35-.07s2.1-.55,2.63-.27c0,0,2.08-.22,2.5-.11,0,0,5.2-.64,5.87-.47l2.65-.03s5.18,2.09,2.01,7.05c0,0-2.96.16-3.61-.26,0,0-1.97,1.22-3.17,1.22l-4.58-1.43-.07,1.29s-1.13-.66-2.29-.88-.14.04-.14.04c0,0-2.2-.1-2.14-.25,0,0-.33,1.23,0,1.43Z"/>
      <path class="cls-6" d="M811.02,72.73s-2.39-.57,0-2.07c0,0,1.06.83,0,2.07Z"/>
      <path class="cls-6" d="M813.41,72.45s-2.93-.68-.53-2.47c0,0,1.6.14.53,2.47Z"/>
      <path class="cls-6" d="M816.07,72.32s-2.93-.96-.8-2.74c0,0,2.13.68.8,2.74Z"/>
      <path class="cls-6" d="M818.47,72.32s-3.34-2.19-.34-2.74c0,0,1.68.96.34,2.74Z"/>
      <path class="cls-6" d="M820.91,72.32s-3.16-1.23-.94-2.74c0,0,2.05-.14.94,2.74Z"/>
      <path class="cls-6" d="M823.52,71.63s-2.5-.69-1.12-2.06c0,0,1.91.14,1.12,2.06Z"/>
      <path class="cls-6" d="M824.97,72.32s-1.28-.96-.3-2.33c0,0,2.55,1.1.3,2.33Z"/>
      <path class="cls-6" d="M811.29,78.34s-1.92-.88-.56-2.36c0,0,.5-.55,1.46,1.18,0,0-1.17.77-.9,1.18Z"/>
      <path class="cls-6" d="M813.34,78.34s-1.93-.59,0-1.87c0,0,.38-1.14,1.16-.18,0,0,1.16,1.78-1.16,2.05Z"/>
      <path class="cls-6" d="M816.07,78.62s-1.78-1.23,1.37-2.33c0,0,.87.14.81,2.05,0,0-.06.41-.85-.27l-1.33.55Z"/>
      <path class="cls-6" d="M818.54,78.34s1.01-2.27,1.66-2.44c0,0,2.11,1.48,1.78,2.71,0,0-1.1.06-1.78-.66,0,0-1.06.11-1.66.38Z"/>
      <path class="cls-6" d="M822.85,77.61v-1.7s1.7.91,1.45,2.09c0,0,0,1.49-1.45-.38Z"/>
      <path class="cls-6" d="M824.81,77.45s-.27-2.51,1.08-1.43c0,0,1.35.95,1.08,1.5,0,0-1.67.27-2.17-.07Z"/>
    </g>
    <g id="sombra2">
      <path class="cls-13" d="M457.35,116.21l-7.66-8.83s-2.66,4.27-13.98,1.32l-22.73,3.09s-11.89,1.91-16.55-8.1l-1-6.03s-3.99,6.92,0,16.49c0,0,9.65,16.63,16.98,21.64,0,0,15.98,12.81,16.98,13.84,0,0,6.66,9.13,16.31,2.21l24.3-15.6-12.65-20.02Z"/>
      <path class="cls-13" d="M397.43,107.96s7.66,18.84,19.64,28.26c0,0,17.97,12.22,19.31,14.72"/>
      <path class="cls-13" d="M435.98,148.08s-7.26-12-7.93-15.54"/>
      <path class="cls-13" d="M433.05,136.52s.88,6.17,2.94,8.24c0,0,3.39,3.98,2.72,4.86,0,0,.33,1.16,2,1.9"/>
      <path class="cls-13" d="M440.7,150.94s1.66-6.62,4.66-9.71"/>
      <path class="cls-13" d="M514.15,116.21l7.1-5.59s8.32,2.36,16.64-4.27l20.62,5.45s11.89,1.91,16.55-8.1l1-6.03s3.99,6.92,0,16.49c0,0-9.65,16.63-16.98,21.64,0,0-15.98,12.81-16.98,13.84,0,0-6.66,9.13-16.31,2.21l-24.3-15.6,12.65-20.02Z"/>
      <path class="cls-13" d="M574.07,107.96s-7.66,18.84-19.64,28.26c0,0-17.97,12.22-19.31,14.72"/>
      <path class="cls-13" d="M535.51,148.08s7.26-12,7.93-15.54"/>
      <path class="cls-13" d="M538.45,136.52s-.88,6.17-2.94,8.24c0,0-3.39,3.98-2.72,4.86,0,0-.33,1.16-2,1.9"/>
      <path class="cls-13" d="M530.79,150.94s-1.66-6.62-4.66-9.71"/>
      <path class="cls-10" d="M513.6,143.14c-1.18-.65,7.67,1.02,6.35.45-.01,0-.02-.02,0-.02.59-.2,9.98-3.24,10.62-3.67,0,0,2-.88,5.33-1.77,0,0,10.98-3.24,10.98-10.75,0,0,5.66-3.09,7.99-8.24,0,0,2.66-2.94,4.66-3.53,0,0,5.99-6.48,5.99-8.83,0,0-1-7.21.67-8.83,0,0,2-6.48,1.33-8.98,0,0,1-2.8,1.33-3.68,0,0,.67-1.91-1-3.39l-.33-3.53s-3.33-2.5-4.66-2.94c0,0-5.33-3.09-9.32-2.65,0,0-3.99-1.03-6.99-.74,0,0-3-.15-.33.74,0,0,6.32,2.94,7.66,5.89l.33,4.27s-2.66,5.74-8.32,2.8c0,0-2.33-1.47-1.66-3.09,0,0-1-1.62-2.33-1.91s0-2.21.67-2.21c0,0-2.33-.74-4.33,2.21v2.36s-2.33,1.03.67,2.5c0,0,2.66,2.5,2.33,3.68,0,0,.67,2.21,5.99,3.68,0,0,2.66,1.62,0,4.71-2.66,3.09-8.32,6.48-8.32,6.48,0,0-2.33,3.68-2.33,5.45s-1,3.53-1,3.53c0,0-9.32,4.27-10.32,6.48,0,0-2.33-3.68-4.33-3.97l.33-6.77s2.33-2.21,3-5.45c0,0,9.98-6.19,9.32-10.45-1.66-10.75,1-8.83-1.66-10.75s0,0,0,0c0,0-1.33-4.12-9.32-8.54,0,0,2.33-6.62,10.65-8.68,0,0,3.33-.44,4.33-1.62,0,0,1.66,1.18,6.99-2.06,0,0,2.33-1.18,3-2.94,0,0-3.33,1.03-6.32,1.03,0,0-4.66-.59-5.99,0,0,0,.67-1.77,0-2.36,0,0-1.33.29-3.66,1.18,0,0-5.66-.15-7.32.15,0,0-4.33.88-4.33,1.18s0,.15,0,.15c0,0,.67-2.36-1-3.09,0,0-2.33.44-3.99,1.62,0,0-3.66-.59-6.66,1.18,0,0-1,1.03-.67,1.32,0,0-2.66.59-2.33,1.62l.33,5.15s-1,2.94-2.33,3.24c0,0-1.33.88.67,2.06,0,0,2.33,2.36,0,3.83,0,0-3.66,2.94.33,6.62,0,0,2.13,1.09,2.06,2.68,0,0-5.06,2.77-7.39,3.5,0,0-8.32,3.53-7.66,4.71,0,0-4.33-1.62-12.32,0,0,0-1.33-1.77-6.32-4.27,0,0-6.66-3.68-9.32-4.56,0,0,3.66-2.06,3.99-4.27.33-2.21-2.33-5.59-2.33-5.59,0,0,.33-1.47,2.33-2.8,0,0,0-1.62-2.33-3.97,0,0-2.66-2.06-.67-5.15,0,0,.33-1.47,0-2.21,0,0-2.66-.74-4.66-1.77,0,0-.67-.74-5.66-1.03,0,0-2.66-1.32-3.66-1.47s-1.66,3.09-1.66,3.09c0,0-1.33-1.47-7.32-1.47,0,0-2-.15-3,0l-3.33-1.47s-2,.15-.67,2.5c0,0-3.33-1.62-5.99-.29,0,0-2,.29-4.33-.44,0,0-3-1.18-2.66-.15,0,0-1.34,2.35,5.33,3.68,0,0,2,1.77,5.66,1.18,0,0,1.33,1.18,6.32,1.32,0,0,10.32,5,9.65,8.98,0,0-6.99,3.09-8.99,6.48,0,0-1.66,3.39-2.66,3.97,0,0,0,6.62,1,8.68,0,0,2.33,4.42,11.98,10.45,0,0,1.37.9,2.65,2.36.59.67.35,1.32,1.35,2.35v3.53s-.33,1.62-.33,4.27c0,0-1.36.64-1.94,1.39s-.99,1.51-1.83,1.92c-.6.29-.59.38-1.23.08-.47-.22-1.82-1.49-3.06-2.36-.55-.38-.8-.5-1.41-.93-2.5-1.76-5.67-3.3-6.51-3.92-1-.74-1.14-1.48-1.27-2.26-.06-.39-.06.05-.06-1.13,0,0,.67-4.12-6.32-7.8,0,0-10.98-6.62-3.99-8.98,0,0,3.66-1.32,3.66-3.24,0,0,1-3.39,2.66-4.56l.33-3.53s-1.33-3.53-5.66-4.27c0,0,1.75,2.35.33,3.68,0,0-.55,4.35-5.77,5.05,0,0-10.54-.63-3.88-8.58,0,0,.67-3.09,5.33-4.27,0,0,1.66-.74-3-.59,0,0-3.74.27-4.53.95,0,0-3.12-.65-6.78,1.26,0,0-2.36.91-2.91,2-.03.07-.06.14-.08.2-.33,1.18-3.99,2.8-3.99,2.8,0,0,0,5.45,1,6.18s2.66,6.62,2.33,6.92-1,2.5,1.66,5.89c0,0,0,10.75,5.33,14.57,5.33,3.83,8.65,6.62,8.32,7.95-.33,1.32,4.33,6.48,6.99,6.62,0,0,.33,9.71,16.31,12.07,0,0,5.99,2.8,10.65,3.53s59.58.44,59.58.44"/>
      <path class="cls-10" d="M459.86,140.23s-8.46-3.82,10.66-9.21"/>
      <path class="cls-10" d="M449.47,137.55s2.34.71,5.94-1.93"/>
      <path class="cls-10" d="M442.44,136.15s-2.73.07-2.73-.96"/>
      <path class="cls-10" d="M434.71,124.01s12.58,1.79,15.94,3.54"/>
      <path class="cls-10" d="M448.91,126.87s2.44-6.7,18.75-8.46"/>
      <path class="cls-10" d="M448.36,119.45s2.46,2.36,2.89,4.56"/>
      <path class="cls-10" d="M458.29,134.05s-1.11-4.28-5.19-5.17"/>
      <line class="cls-10" x1="454.47" y1="133.61" x2="454.47" y2="133.1"/>
      <path class="cls-10" d="M451.88,128.88s1.14.47,1.97,1.26"/>
      <line class="cls-10" x1="453.85" y1="133.1" x2="453.85" y2="132.72"/>
      <path class="cls-10" d="M510.06,139.1s3.54-2.81-3.78-5.05"/>
      <path class="cls-10" d="M496.58,131.02s2.04-.2,3.04.44"/>
      <path class="cls-10" d="M501.35,131.97s6.23.52,7.24,1.14"/>
      <path class="cls-10" d="M510.06,133.61s3.88.05,4.71.82"/>
      <path class="cls-10" d="M516.76,136.15s2,.22,2.08,1.4"/>
      <path class="cls-10" d="M521.76,137.55s6.39,1.62,8.27.44"/>
      <path class="cls-10" d="M516.76,132.72s-.26-2.34,1.12-2.59"/>
      <path class="cls-10" d="M518.84,131.72s-1.49-1.33.96-1.94"/>
      <path class="cls-10" d="M520.59,128.42s5.9-2.49,9.44-2.64c0,0,4.87-.45,5.87-1.48"/>
      <path class="cls-10" d="M537.02,124.3s4.21-.39,4.71-1.67"/>
      <path class="cls-10" d="M544.58,124.01s1.97.88,2.31,3.39"/>
      <path class="cls-10" d="M511.91,120.04s10.44,3.43,12.39,7.01"/>
      <path class="cls-10" d="M522.37,125.04s-.12-3.68,2.88-5.44"/>
      <path class="cls-10" d="M472.32,119s4.42.44,8.2,2.28"/>
      <line class="cls-10" x1="481.94" y1="125.78" x2="481.94" y2="124.65"/>
      <path class="cls-10" d="M487.09,125.7s-2.78-1.64-.95-3.07"/>
      <path class="cls-10" d="M486.3,121.29s2.62-1.71,9.63-2.88"/>
      <path class="cls-10" d="M498.29,118.4s4.72-.45,6.69,0"/>
      <line class="cls-10" x1="518.39" y1="126.04" x2="516.74" y2="124.65"/>
      <path class="cls-10" d="M532.45,127.39s-.12-.53,2-.34"/>
      <path class="cls-10" d="M427.06,127.1s.76-2.68,2.54-3.55"/>
      <path class="cls-10" d="M417.4,76.61s3.02-.74,4.67,0c0,0-.7-1.23-4.01-1.35l-.66,1.35Z"/>
      <path class="cls-10" d="M551.19,75.75s-3.64.12-4.3.42c0,0-1.22-1.48,2.88-1.4l1.42.99Z"/>
      <path class="cls-10" d="M521.92,69.11s-.33-2.94,4.66-4.27c0,0,2.33-1.32,2.33-1.77,0,0,1.79-.5,3.39-1.94"/>
      <path class="cls-10" d="M523.25,62.02s1,1.2,5.66,1.05"/>
      <path class="cls-10" d="M534.88,61.13s.02,1.5,2.69,2.24"/>
      <path class="cls-10" d="M533.57,63.81s2.94.44,3.47,0"/>
      <path class="cls-10" d="M507.61,60.72s.67,2.8,5.66,2.65c0,0,4.91.89,6.28-3.23"/>
      <path class="cls-10" d="M522.58,60.57s-1.56-.74-.95-1.62"/>
      <line class="cls-10" x1="507.34" y1="63.36" x2="507.34" y2="62.37"/>
      <path class="cls-10" d="M514.93,65.28l.67-1.03"/>
      <path class="cls-10" d="M515.59,65.45s.38-1.35,2.02-1.64"/>
      <path class="cls-10" d="M432.05,63.22s1.51.29,1.75,0"/>
      <path class="cls-10" d="M445.7,64.25s-1.7-.25-4-.96c-2.09-.65-4.66-1.68-6.91-3.24"/>
      <path class="cls-10" d="M441.69,63.28s5.57.44,6.95-2.83"/>
      <path class="cls-10" d="M454.35,63.81s-5.64-1.26-4.32-3.35"/>
      <path class="cls-10" d="M444.36,65.43s5.66,1.77,5.99,4.71"/>
      <path class="cls-10" d="M454.35,65.43s-1.71-1.03-1.85-1.62"/>
      <path class="cls-10" d="M458.7,63.28s4.12-.53,2.05-3.24"/>
      <line class="cls-10" x1="460.67" y1="64.84" x2="460.67" y2="63.52"/>
      <path class="cls-10" d="M460.67,67.78s.67,1.91,2,2.65c0,0-1,1.47-3.99,2.21"/>
      <path class="cls-10" d="M464,73.96s0-1.03,1.33-1.77"/>
      <path class="cls-10" d="M457.01,73.23s-5.66-.15-8.65.74"/>
      <path class="cls-10" d="M456.01,77.94s1.01-1.66,4-2.08"/>
      <path class="cls-10" d="M509.94,66.6s-2,2.94,1.33,5"/>
      <path class="cls-10" d="M514.26,72.34s4.41.44,5.7,0"/>
      <path class="cls-10" d="M516.31,73.24s3.94.14,4.61.73"/>
      <path class="cls-10" d="M509.34,74.91s3.88,1.79,4.24,2.11"/>
      <line class="cls-10" x1="507.61" y1="74.09" x2="506.77" y2="73.6"/>
      <line class="cls-10" x1="505.94" y1="72.93" x2="505.49" y2="72.34"/>
      <line class="cls-10" x1="508.2" y1="72.34" x2="508.6" y2="71.9"/>
      <path class="cls-10" d="M505.94,71.06s0-.65.83-.79"/>
      <path class="cls-10" d="M523.25,77.2s1,0,1.33.59"/>
      <path class="cls-10" d="M519.26,80.73s2-1.18,3.33-1.03"/>
      <path class="cls-10" d="M513.58,80.87s1.68-.43,1.02-1.02"/>
      <path class="cls-10" d="M506.36,85.6s2.06-.91,2.98-2.3"/>
      <path class="cls-10" d="M509.94,85.15s3-1.18,3-2.21"/>
      <path class="cls-10" d="M517.11,84.05s2.23-.56,2.85-.24,3.29,1.35,3.29,1.35"/>
      <path class="cls-10" d="M523.92,80.02s5.66.57,5.99,4.98"/>
      <path class="cls-10" d="M456.01,80.9s3.33,1.6,3.33,2.33"/>
      <path class="cls-10" d="M460.67,83.8s.92.82,2.96,1.6"/>
      <path class="cls-10" d="M456.01,83.8s3.67,1.72,4,3.15"/>
      <path class="cls-10" d="M461.01,87.65s.33,2.48,1.66,2.93"/>
      <path class="cls-10" d="M441.23,86.96s.81,1.43.81,2.61"/>
      <path class="cls-10" d="M440.37,81.47s3-1.03,3.99-1.03"/>
      <path class="cls-10" d="M443.7,82.5s3-1.62,4.99-1.62"/>
      <path class="cls-10" d="M447.07,80.44s3.23.88,3.92,1.25"/>
      <path class="cls-10" d="M415.2,72.7s-4.81,1.8-4.46,2.56-2.78,2.67-2.78,2.67l.8,5s-2.66.15,0,3.53"/>
      <path class="cls-10" d="M403.18,78.08l1.25,4.71s-2.66,1.32-2,2.36"/>
      <line class="cls-10" x1="404.42" y1="85.71" x2="404.96" y2="86.47"/>
      <path class="cls-10" d="M404.96,87.65s1.46,2.5.8,2.94"/>
      <path class="cls-10" d="M409.13,86.96s1.05,4.99,0,5.57"/>
      <path class="cls-10" d="M412.55,78.08s1.85.3,1.85.74"/>
      <path class="cls-10" d="M413.97,78.45s1.6-2.01,1.68-2.51"/>
      <line class="cls-10" x1="432.05" y1="110.83" x2="438.76" y2="113.07"/>
      <path class="cls-10" d="M538.23,83.09s3.52-.29,2.92.96"/>
      <path class="cls-10" d="M560.55,85s3.69-1.75,0-3.82c0,0-1.69-7.66-7.01-8.4"/>
      <path class="cls-10" d="M565.86,88.39v-3.39s-.66-.63-1-2.8c-1-6.33.67-5.45-1-6.33"/>
      <path class="cls-10" d="M560.2,92.95s.33-4.98,1.99-7.35"/>
      <path class="cls-10" d="M535.57,113.12s2.33-1.77,4.99-1.47"/>
      <path class="cls-10" d="M538.06,111.34s1.16-1.46,4.49-1.46"/>
      <path class="cls-10" d="M542.56,111.61s8.65,1.06,1,8.86"/>
      <path class="cls-10" d="M548.88,112.82s1.66,2.5,3,2.5"/>
      <path class="cls-10" d="M425.06,111.06s2.66-.74,2-2.87"/>
      <path class="cls-10" d="M428.33,121.29s-3.83-4.22-2.22-6.41c0,0,1.82-1.61,2.22-3.15"/>
      <path class="cls-10" d="M411.38,101.25s-.28-5.1-1.79-6.62"/>
      <path class="cls-10" d="M457.01,117.53s7.32-3.24,8.65-3.24c0,0,2.19-1.28,6.16,0,0,0,5.59,2.47,8.7,1.75"/>
      <path class="cls-10" d="M487.66,116.04s1.64.63,10.63-2.62c0,0,7.81-.89,9.56.5,0,0,2.09,1.71,5.08,1.7"/>
      <line class="cls-10" x1="461.84" y1="105.09" x2="469.66" y2="99.72"/>
      <path class="cls-10" d="M501.61,98.84s.81,2.46,3.73,2.41"/>
      <path class="cls-10" d="M509.34,102.76s3.22,1.5,4.24,1.07"/>
      <path class="cls-2" d="M426.72,62.48s7.32-.15,1.66-3.09c0,0-3.1.23-5.04-.69,0,0-3.08-1.03-2.01.94,0,0,.07,1.96,5.39,2.85Z"/>
      <path class="cls-2" d="M439.51,62.48l-5.14-2.65s-1.66-2.06.67-2.65l3.33,1.47,1.85-.06s4.81,1.53,3.14,2.85c0,0-.38,1.47-3.85,1.03Z"/>
      <path class="cls-2" d="M457.01,61.75s-5.17,1.78-8.08-2.57c0,0,.14-2.83,2.28-1.9,0,0,6.47,2.55,6.47,3.88,0,0-.33.44-.67.59Z"/>
      <path class="cls-2" d="M513.6,58.36s-2.66,2.36,1,3.53c0,0,3.33.44,5.33-2.21,0,0,.41-2.81-1.29-3.03,0,0-4.03,1.26-3.7,1.55,0,0-1-.15-1.33.15Z"/>
      <path class="cls-2" d="M526.25,61.45s-1.86-1.68,3.56-3.27l1.76.03,3.39-1.11s1.27.96.27,2.29c0,0-3.99,2.85-5.99,2.53,0,0-2.66.41-3-.47Z"/>
      <path class="cls-2" d="M543.05,62.16s-4.16.92-5.49-1c0,0-.57-1.28,4.37-1.6,0,0,4.61-.46,5.61-1.2,0,0-1.01,2.73-4.5,3.8Z"/>
      <path class="cls-5" d="M443.37,169.49s3.66.59,11.32-3.97c0,0,7.99-5.15,8.99-5.45,0,0,3.99-3.24,7.32-3.53,0,0,4.33-1.32,4.99-1.91,0,0,8.08,1.91,18.52,0,0,0,6.78,1.32,9.44,3.39,0,0,5.75,2.67,7.54,4.06,0,0,5.44,3.89,17.76,6.39,0,0-9.32-5-10.98-7.8,0,0-3.99-5.74-8.65-8.39,0,0-2-1.47-3.33-2.36,0,0,1.66-.88,1.66-2.65,0,0,4.99,2.36,11.32,2.94,0,0,6.66,1.77,12.32,1.77,0,0-2.48-3.29-7.98-6.34,0,0-8.32-4.7-18.31-5.44,0,0,.33-5.89-7.66-8.24,0,0-4.99-5.15-11.65-5.3-6.66-.15-14.65,1.32-15.64,4.86,0,0-5.99,3.39-5.33,5.59,0,0,0,3.09-3.66,3.83,0,0-12.98,1.03-20.64,11.04,0,0,9.65-2.21,11.32-2.06s9.65-1.32,10.98-2.5c0,0,3,1.32-2.33,5,0,0-7.99,4.27-7.66,5.89.33,1.62-2,8.1-5.66,8.83l-3.99,2.36Z"/>
      <path class="cls-5" d="M445.03,150.06s16.31-2.8,18.64-8.39c0,0,1-1.77,2.33-1.91,0,0,1.33-.74,1.66-1.32"/>
      <path class="cls-5" d="M527.91,150.94s-14.83-3.11-20.97-8.54c0,0-2.66-3.39-5.33-4.42"/>
      <path class="cls-5" d="M448.43,148.08s-.51.93,1.04,1.02"/>
      <path class="cls-5" d="M450.69,146.68s-.5,1.49,2.41,1.41"/>
      <path class="cls-5" d="M454.85,144.47s-1.5,2.33,1.5,2.64"/>
      <path class="cls-5" d="M461.67,143s-5.23.58-3.11,2.79"/>
      <line class="cls-5" x1="458.05" y1="143.57" x2="460.67" y2="142.7"/>
      <path class="cls-5" d="M510.06,142.7s2.94.93,1.41,2.67"/>
      <path class="cls-5" d="M513.34,144.04s2.4.87,0,2.64"/>
      <path class="cls-5" d="M518.47,145.36s3.36.75-.59,2.73"/>
      <path class="cls-5" d="M523.58,147.71s0,1.36-1.83,1.64"/>
      <path class="cls-5" d="M526.03,149.1s-.36.82-1.74.96"/>
      <path class="cls-5" d="M451.88,164.52s.72.18,2.6,0"/>
      <path class="cls-5" d="M459.36,160.29s1.98.49,2.31-.38"/>
      <path class="cls-5" d="M456.35,156.82s2,.01,2.33,1.19"/>
      <path class="cls-5" d="M460.52,155.37s.82,2.34,2.15,2.34h2.16"/>
      <line class="cls-5" x1="463.06" y1="150.37" x2="466.55" y2="148.08"/>
      <path class="cls-5" d="M464.83,151.27s.83-.85,1-1.69"/>
      <line class="cls-5" x1="466.55" y1="150.94" x2="466.55" y2="151.71"/>
      <path class="cls-5" d="M473.82,151.33s-.5.79.83.65"/>
      <line class="cls-5" x1="477.65" y1="153.74" x2="475.99" y2="154.62"/>
      <line class="cls-5" x1="492.65" y1="153.74" x2="494.51" y2="154.62"/>
      <path class="cls-5" d="M502.92,149.1s1.69-.36,3.35.82"/>
      <path class="cls-5" d="M463.06,145.79s.18,1.31,1.06,1.32"/>
      <path class="cls-5" d="M465.33,146.45s0-2.16,2.33-2.73"/>
      <path class="cls-5" d="M475.99,147.71s2.66-.69,1.66-2.63c0,0,1.05-.27,2.02,0"/>
      <path class="cls-5" d="M492.08,147.11s-1.93-.09-.86-.77"/>
      <path class="cls-5" d="M495.22,148.09s1.93,1.27,2,.96l.07-.31h0"/>
      <line class="cls-5" x1="507.92" y1="146.33" x2="507.94" y2="147.26"/>
      <path class="cls-5" d="M506.27,146.68s-.14-.89-1.07-.89"/>
      <path class="cls-5" d="M503.64,145.08s-1.02-1.18-2.85-1.04-1.71-1.34-1.71-1.34"/>
      <line class="cls-5" x1="499.07" y1="141.93" x2="498.29" y2="141.52"/>
      <path class="cls-5" d="M498.29,141.11s3-3.06,0-5.74"/>
      <path class="cls-5" d="M468.66,137.55s2-2.06.67-2.8"/>
      <line class="cls-5" x1="469.79" y1="139.85" x2="469.79" y2="139.1"/>
      <line class="cls-5" x1="467.66" y1="140.23" x2="468.66" y2="139.47"/>
      <path class="cls-5" d="M469.79,141.52s-.46,3.05-1.62,3.44"/>
      <path class="cls-5" d="M474.19,141.11s.79,1.59,2.63,1.07"/>
      <path class="cls-5" d="M484.24,143.57s1.45-.96-.57-1.87"/>
      <path class="cls-5" d="M474.65,129.82s1-.22,2.16,0"/>
      <path class="cls-5" d="M479.67,130.14s1.76-1.17,4.53-.41"/>
      <path class="cls-5" d="M488.37,129.72s.26-.91,1.43,0"/>
      <path class="cls-5" d="M493.08,141.11s3.64.05,1.43.82"/>
      <line class="cls-5" x1="488.37" y1="142.29" x2="489.09" y2="141.73"/>
      <path class="cls-15" d="M474.91,140.87s-8.58-4.52-.59-8.48l.59.67.44-.07s2.63-.59,3.29-.29c0,0,2.61-.24,3.13-.12,0,0,6.51-.69,7.35-.51l3.32-.03s6.48,2.24,2.51,7.58c0,0-3.71.18-4.52-.28,0,0-2.47,1.31-3.97,1.31l-5.73-1.54-.09,1.39s-1.41-.7-2.87-.94-.18.05-.18.05c0,0-2.76-.11-2.68-.27,0,0-.41,1.32,0,1.53Z"/>
      <path class="cls-4" d="M474.32,134.61s-3-.62,0-2.22c0,0,1.33.9,0,2.22Z"/>
      <path class="cls-4" d="M477.32,134.31s-3.66-.74-.67-2.65c0,0,2,.15.67,2.65Z"/>
      <path class="cls-4" d="M480.65,134.16s-3.66-1.03-1-2.94c0,0,2.66.74,1,2.94Z"/>
      <path class="cls-4" d="M483.65,134.16s-4.18-2.36-.43-2.94c0,0,2.1,1.03.43,2.94Z"/>
      <path class="cls-4" d="M486.7,134.16s-3.96-1.32-1.18-2.94c0,0,2.57-.15,1.18,2.94Z"/>
      <path class="cls-4" d="M489.97,133.43s-3.13-.74-1.4-2.21c0,0,2.4.15,1.4,2.21Z"/>
      <path class="cls-4" d="M491.78,134.16s-1.6-1.03-.37-2.5c0,0,3.19,1.18.37,2.5Z"/>
      <path class="cls-4" d="M474.65,140.64s-2.4-.94-.7-2.53c0,0,.63-.59,1.83,1.27,0,0-1.46.82-1.13,1.27Z"/>
      <path class="cls-4" d="M477.23,140.64s-2.42-.64,0-2.01c0,0,.48-1.23,1.45-.2,0,0,1.46,1.91-1.45,2.21Z"/>
      <path class="cls-4" d="M480.65,140.94s-2.22-1.32,1.72-2.5c0,0,1.09.15,1.02,2.21,0,0-.07.44-1.07-.29l-1.66.59Z"/>
      <path class="cls-4" d="M483.74,140.64s1.26-2.44,2.08-2.62c0,0,2.64,1.59,2.23,2.91,0,0-1.38.06-2.23-.7,0,0-1.32.12-2.08.41Z"/>
      <path class="cls-4" d="M489.13,139.85v-1.83s2.13.98,1.81,2.24c0,0,.01,1.6-1.81-.41Z"/>
      <path class="cls-4" d="M491.58,139.68s-.33-2.7,1.36-1.54c0,0,1.69,1.02,1.35,1.61,0,0-2.09.29-2.71-.07Z"/>
    </g>
    <g id="sombra1">
      <path class="cls-1" d="M71.29,138.67l-8.55-9.14s-2.97,4.42-15.62,1.37l-25.39,3.2s-13.28,1.98-18.48-8.38l-1.12-6.24s-4.46,7.16,0,17.06c0,0,10.78,17.21,18.96,22.39,0,0,17.85,13.25,18.96,14.32,0,0,7.44,9.44,18.22,2.28l27.14-16.14-14.13-20.71Z"/>
      <path class="cls-1" d="M4.37,130.14s8.55,19.49,21.94,29.24c0,0,20.08,12.64,21.56,15.23"/>
      <path class="cls-1" d="M47.43,171.65s-8.11-12.42-8.86-16.08"/>
      <path class="cls-1" d="M44.15,159.68s.98,6.39,3.28,8.52c0,0,3.78,4.12,3.04,5.03,0,0,.37,1.2,2.23,1.97"/>
      <path class="cls-1" d="M52.7,174.61s1.86-6.85,5.21-10.05"/>
      <path class="cls-1" d="M134.75,138.67l7.93-5.79s9.29,2.44,18.59-4.42l23.03,5.64s13.28,1.98,18.48-8.38l1.12-6.24s4.46,7.16,0,17.06c0,0-10.78,17.21-18.96,22.39,0,0-17.85,13.25-18.96,14.32,0,0-7.44,9.44-18.22,2.28l-27.14-16.14,14.13-20.71Z"/>
      <path class="cls-1" d="M201.67,130.14s-8.55,19.49-21.94,29.24c0,0-20.08,12.64-21.56,15.23"/>
      <path class="cls-1" d="M158.61,171.65s8.11-12.42,8.86-16.08"/>
      <path class="cls-1" d="M161.89,159.68s-.98,6.39-3.28,8.52c0,0-3.78,4.12-3.04,5.03,0,0-.37,1.2-2.23,1.97"/>
      <path class="cls-1" d="M153.34,174.61s-1.86-6.85-5.21-10.05"/>
      <path class="cls-12" d="M134.13,166.54c-1.32-.68,8.57,1.05,7.1.47-.02,0-.02-.02,0-.02.66-.21,11.14-3.35,11.86-3.8,0,0,2.23-.91,5.95-1.83,0,0,12.27-3.35,12.27-11.12,0,0,6.32-3.2,8.92-8.53,0,0,2.97-3.05,5.21-3.66,0,0,6.69-6.7,6.69-9.14,0,0-1.12-7.46.74-9.14,0,0,2.23-6.7,1.49-9.29,0,0,1.12-2.89,1.49-3.81,0,0,.74-1.98-1.12-3.5l-.37-3.66s-3.72-2.59-5.21-3.05c0,0-5.95-3.2-10.41-2.74,0,0-4.46-1.07-7.81-.76,0,0-3.35-.15-.37.76,0,0,7.06,3.05,8.55,6.09l.37,4.42s-2.97,5.94-9.29,2.89c0,0-2.6-1.52-1.86-3.2,0,0-1.12-1.68-2.6-1.98s0-2.28.74-2.28c0,0-2.6-.76-4.83,2.28v2.44s-2.6,1.07.74,2.59c0,0,2.97,2.59,2.6,3.81,0,0,.74,2.28,6.69,3.81,0,0,2.97,1.68,0,4.87s-9.29,6.7-9.29,6.7c0,0-2.6,3.81-2.6,5.64s-1.12,3.66-1.12,3.66c0,0-10.41,4.42-11.53,6.7,0,0-2.6-3.81-4.83-4.11l.37-7.01s2.6-2.28,3.35-5.64c0,0,11.15-6.4,10.41-10.81-1.86-11.12,1.12-9.14-1.86-11.12s0,0,0,0c0,0-1.49-4.26-10.41-8.83,0,0,2.6-6.85,11.9-8.99,0,0,3.72-.46,4.83-1.68,0,0,1.86,1.22,7.81-2.13,0,0,2.6-1.22,3.35-3.05,0,0-3.72,1.07-7.06,1.07,0,0-5.21-.61-6.69,0,0,0,.74-1.83,0-2.44,0,0-1.49.3-4.09,1.22,0,0-6.32-.15-8.18.15,0,0-4.83.91-4.83,1.22s0,.15,0,.15c0,0,.74-2.44-1.12-3.2,0,0-2.6.46-4.46,1.68,0,0-4.09-.61-7.44,1.22,0,0-1.12,1.07-.74,1.37,0,0-2.97.61-2.6,1.68l.37,5.33s-1.12,3.05-2.6,3.35c0,0-1.49.91.74,2.13,0,0,2.6,2.44,0,3.96,0,0-4.09,3.05.37,6.85,0,0,2.38,1.13,2.3,2.77,0,0-5.65,2.86-8.25,3.62,0,0-9.29,3.66-8.55,4.87,0,0-4.83-1.68-13.76,0,0,0-1.49-1.83-7.06-4.42,0,0-7.44-3.81-10.41-4.72,0,0,4.09-2.13,4.46-4.42.37-2.28-2.6-5.79-2.6-5.79,0,0,.37-1.52,2.6-2.89,0,0,0-1.68-2.6-4.11,0,0-2.97-2.13-.74-5.33,0,0,.37-1.52,0-2.28,0,0-2.97-.76-5.21-1.83,0,0-.74-.76-6.32-1.07,0,0-2.97-1.37-4.09-1.52s-1.86,3.2-1.86,3.2c0,0-1.49-1.52-8.18-1.52,0,0-2.23-.15-3.35,0l-3.72-1.52s-2.23.15-.74,2.59c0,0-3.72-1.68-6.69-.3,0,0-2.23.3-4.83-.46,0,0-3.35-1.22-2.97-.15,0,0-1.49,2.44,5.95,3.81,0,0,2.23,1.83,6.32,1.22,0,0,1.49,1.22,7.06,1.37,0,0,11.53,5.18,10.78,9.29,0,0-7.81,3.2-10.04,6.7,0,0-1.86,3.5-2.97,4.11,0,0,0,6.85,1.12,8.99,0,0,2.6,4.57,13.38,10.81,0,0,1.53.93,2.96,2.45.66.7.39,1.36,1.51,2.43v3.66s-.37,1.68-.37,4.42c0,0-1.52.67-2.17,1.43s-1.1,1.57-2.04,1.99c-.68.3-.65.39-1.37.08-.53-.23-2.03-1.54-3.42-2.44-.61-.39-.9-.52-1.57-.96-2.8-1.82-6.33-3.41-7.28-4.06-1.12-.76-1.28-1.53-1.42-2.33-.07-.41-.07.05-.07-1.17,0,0,.74-4.26-7.06-8.07,0,0-12.27-6.85-4.46-9.29,0,0,4.09-1.37,4.09-3.35,0,0,1.12-3.5,2.97-4.72l.37-3.66s-1.49-3.66-6.32-4.42c0,0,1.95,2.43.37,3.81,0,0-.62,4.5-6.44,5.22,0,0-11.77-.65-4.34-8.88,0,0,.74-3.2,5.95-4.42,0,0,1.86-.76-3.35-.61,0,0-4.18.28-5.07.98,0,0-3.49-.67-7.58,1.31,0,0-2.64.95-3.26,2.07-.04.07-.07.14-.09.21-.37,1.22-4.46,2.89-4.46,2.89,0,0,0,5.64,1.12,6.4s2.97,6.85,2.6,7.16-1.12,2.59,1.86,6.09c0,0,0,11.12,5.95,15.08s9.67,6.85,9.29,8.22,4.83,6.7,7.81,6.85c0,0,.37,10.05,18.22,12.49,0,0,6.69,2.89,11.9,3.66s66.55.46,66.55.46"/>
      <path class="cls-12" d="M74.11,163.52s-9.45-3.95,11.9-9.53"/>
      <path class="cls-12" d="M62.5,160.75s2.61.74,6.63-1.99"/>
      <path class="cls-12" d="M54.64,159.3s-3.05.08-3.05-.99"/>
      <path class="cls-12" d="M46.01,146.74s14.06,1.85,17.81,3.67"/>
      <path class="cls-12" d="M61.87,149.69s2.73-6.94,20.95-8.75"/>
      <path class="cls-12" d="M61.26,142.02s2.74,2.44,3.23,4.72"/>
      <path class="cls-12" d="M72.35,157.13s-1.24-4.43-5.79-5.35"/>
      <line class="cls-12" x1="68.09" y1="156.67" x2="68.09" y2="156.15"/>
      <path class="cls-12" d="M65.19,151.77s1.27.49,2.2,1.31"/>
      <line class="cls-12" x1="67.39" y1="156.15" x2="67.39" y2="155.76"/>
      <path class="cls-12" d="M130.17,162.35s3.96-2.9-4.22-5.22"/>
      <path class="cls-12" d="M115.12,153.99s2.28-.2,3.39.46"/>
      <path class="cls-12" d="M120.45,154.97s6.96.53,8.09,1.17"/>
      <path class="cls-12" d="M130.17,156.67s4.33.05,5.26.85"/>
      <path class="cls-12" d="M137.66,159.3s2.23.23,2.32,1.45"/>
      <path class="cls-12" d="M143.24,160.75s7.14,1.68,9.24.46"/>
      <path class="cls-12" d="M137.66,155.76s-.29-2.43,1.25-2.68"/>
      <path class="cls-12" d="M139.98,154.71s-1.66-1.37,1.07-2.01"/>
      <path class="cls-12" d="M141.93,151.31s6.59-2.58,10.54-2.74c0,0,5.44-.46,6.56-1.53"/>
      <path class="cls-12" d="M160.29,147.04s4.7-.41,5.26-1.73"/>
      <path class="cls-12" d="M168.73,146.74s2.2.91,2.58,3.5"/>
      <path class="cls-12" d="M132.24,142.64s11.66,3.55,13.84,7.25"/>
      <path class="cls-12" d="M143.93,147.8s-.13-3.8,3.21-5.63"/>
      <path class="cls-12" d="M88.02,141.56s4.94.46,9.16,2.36"/>
      <line class="cls-12" x1="98.76" y1="148.57" x2="98.76" y2="147.4"/>
      <path class="cls-12" d="M104.52,148.49s-3.11-1.7-1.06-3.17"/>
      <path class="cls-12" d="M103.64,143.92s2.92-1.77,10.76-2.98"/>
      <path class="cls-12" d="M117.02,140.94s5.27-.47,7.47,0"/>
      <line class="cls-12" x1="139.48" y1="148.84" x2="137.64" y2="147.4"/>
      <path class="cls-12" d="M155.19,150.24s-.13-.55,2.23-.35"/>
      <path class="cls-12" d="M37.46,149.94s.85-2.78,2.84-3.67"/>
      <path class="cls-12" d="M26.68,97.7s3.37-.76,5.22,0c0,0-.78-1.27-4.48-1.4l-.73,1.4Z"/>
      <path class="cls-12" d="M176.11,96.81s-4.06.13-4.81.43c0,0-1.37-1.54,3.22-1.45l1.59,1.02Z"/>
      <path class="cls-12" d="M143.42,89.93s-.37-3.05,5.21-4.42c0,0,2.6-1.37,2.6-1.83,0,0,2-.52,3.79-2.01"/>
      <path class="cls-12" d="M144.91,82.59s1.12,1.24,6.32,1.09"/>
      <path class="cls-12" d="M157.89,81.67s.03,1.56,3,2.32"/>
      <path class="cls-12" d="M156.43,84.45s3.29.46,3.87,0"/>
      <path class="cls-12" d="M127.43,81.25s.74,2.89,6.32,2.74c0,0,5.49.92,7.02-3.35"/>
      <path class="cls-12" d="M144.17,81.09s-1.74-.76-1.06-1.68"/>
      <line class="cls-12" x1="127.14" y1="83.99" x2="127.14" y2="82.96"/>
      <path class="cls-12" d="M135.61,85.97l.74-1.07"/>
      <path class="cls-12" d="M136.36,86.14s.42-1.39,2.26-1.7"/>
      <path class="cls-12" d="M43.04,83.84s1.69.3,1.96,0"/>
      <path class="cls-12" d="M58.28,84.9s-1.9-.26-4.47-1c-2.33-.67-5.21-1.73-7.72-3.36"/>
      <path class="cls-12" d="M53.81,83.9s6.23.46,7.77-2.93"/>
      <path class="cls-12" d="M67.95,84.45s-6.3-1.3-4.82-3.47"/>
      <path class="cls-12" d="M56.79,86.12s6.32,1.83,6.69,4.87"/>
      <path class="cls-12" d="M67.95,86.12s-1.91-1.07-2.07-1.68"/>
      <path class="cls-12" d="M72.81,83.9s4.6-.55,2.29-3.36"/>
      <line class="cls-12" x1="75.01" y1="85.51" x2="75.01" y2="84.15"/>
      <path class="cls-12" d="M75.01,88.56s.74,1.98,2.23,2.74c0,0-1.12,1.52-4.46,2.28"/>
      <path class="cls-12" d="M78.73,94.95s0-1.07,1.49-1.83"/>
      <path class="cls-12" d="M70.92,94.19s-6.32-.15-9.67.76"/>
      <path class="cls-12" d="M69.81,99.07s1.13-1.72,4.47-2.15"/>
      <path class="cls-12" d="M130.04,87.34s-2.23,3.05,1.49,5.18"/>
      <path class="cls-12" d="M134.87,93.28s4.93.46,6.37,0"/>
      <path class="cls-12" d="M137.16,94.2s4.4.14,5.15.75"/>
      <path class="cls-12" d="M129.37,95.93s4.34,1.85,4.73,2.19"/>
      <line class="cls-12" x1="127.43" y1="95.09" x2="126.5" y2="94.58"/>
      <line class="cls-12" x1="125.58" y1="93.89" x2="125.07" y2="93.28"/>
      <line class="cls-12" x1="128.1" y1="93.28" x2="128.55" y2="92.82"/>
      <path class="cls-12" d="M125.58,91.95s0-.67.93-.82"/>
      <path class="cls-12" d="M144.91,98.31s1.12,0,1.49.61"/>
      <path class="cls-12" d="M140.45,101.96s2.23-1.22,3.72-1.07"/>
      <path class="cls-12" d="M134.1,102.1s1.88-.45,1.14-1.06"/>
      <path class="cls-12" d="M126.04,107s2.3-.95,3.33-2.38"/>
      <path class="cls-12" d="M130.04,106.53s3.35-1.22,3.35-2.28"/>
      <path class="cls-12" d="M138.05,105.39s2.49-.58,3.18-.25,3.67,1.39,3.67,1.39"/>
      <path class="cls-12" d="M145.65,101.22s6.32.59,6.69,5.16"/>
      <path class="cls-12" d="M69.81,102.13s3.72,1.65,3.72,2.42"/>
      <path class="cls-12" d="M75.01,105.14s1.03.85,3.3,1.65"/>
      <path class="cls-12" d="M69.81,105.14s4.1,1.78,4.47,3.26"/>
      <path class="cls-12" d="M75.38,109.12s.37,2.57,1.86,3.04"/>
      <path class="cls-12" d="M53.29,108.4s.9,1.48.9,2.7"/>
      <path class="cls-12" d="M52.33,102.72s3.35-1.07,4.46-1.07"/>
      <path class="cls-12" d="M56.05,103.79s3.35-1.68,5.58-1.68"/>
      <path class="cls-12" d="M59.82,101.66s3.61.91,4.38,1.29"/>
      <path class="cls-12" d="M24.22,93.65s-5.37,1.86-4.99,2.65-3.11,2.77-3.11,2.77l.89,5.18s-2.97.15,0,3.66"/>
      <path class="cls-12" d="M10.79,99.22l1.39,4.88s-2.97,1.37-2.23,2.44"/>
      <line class="cls-12" x1="12.18" y1="107.11" x2="12.78" y2="107.9"/>
      <path class="cls-12" d="M12.78,109.12s1.63,2.59.89,3.05"/>
      <path class="cls-12" d="M17.44,108.4s1.17,5.17,0,5.76"/>
      <path class="cls-12" d="M21.26,99.22s2.07.31,2.07.76"/>
      <path class="cls-12" d="M22.85,99.6s1.79-2.08,1.88-2.6"/>
      <line class="cls-12" x1="43.04" y1="133.11" x2="50.53" y2="135.42"/>
      <path class="cls-12" d="M161.64,104.4s3.93-.3,3.27.99"/>
      <path class="cls-12" d="M186.58,106.38s4.12-1.81,0-3.95c0,0-1.89-7.93-7.83-8.69"/>
      <path class="cls-12" d="M192.5,109.88v-3.5s-.73-.65-1.12-2.89c-1.12-6.55.74-5.64-1.12-6.55"/>
      <path class="cls-12" d="M186.18,114.6s.37-5.16,2.23-7.6"/>
      <path class="cls-12" d="M158.67,135.47s2.6-1.83,5.58-1.52"/>
      <path class="cls-12" d="M161.45,133.63s1.3-1.51,5.02-1.51"/>
      <path class="cls-12" d="M166.47,133.91s9.67,1.1,1.12,9.17"/>
      <path class="cls-12" d="M173.54,135.16s1.86,2.59,3.35,2.59"/>
      <path class="cls-12" d="M35.23,133.34s2.97-.76,2.23-2.97"/>
      <path class="cls-12" d="M38.88,143.92s-4.28-4.36-2.48-6.64c0,0,2.04-1.66,2.48-3.26"/>
      <path class="cls-12" d="M19.95,123.19s-.31-5.28-2-6.85"/>
      <path class="cls-12" d="M70.92,140.04s8.18-3.35,9.67-3.35c0,0,2.45-1.33,6.88,0,0,0,6.24,2.55,9.72,1.81"/>
      <path class="cls-12" d="M105.15,138.5s1.83.65,11.87-2.71c0,0,8.72-.92,10.68.52,0,0,2.33,1.77,5.68,1.76"/>
      <line class="cls-12" x1="76.31" y1="127.17" x2="85.05" y2="121.61"/>
      <path class="cls-12" d="M120.74,120.69s.9,2.55,4.17,2.49"/>
      <path class="cls-12" d="M129.37,124.75s3.59,1.56,4.73,1.11"/>
      <path class="cls-7" d="M37.09,83.07s8.18-.15,1.86-3.2c0,0-3.46.24-5.63-.72,0,0-3.44-1.06-2.25.97,0,0,.07,2.03,6.02,2.95Z"/>
      <path class="cls-7" d="M51.38,83.07l-5.74-2.74s-1.86-2.13.74-2.74l3.72,1.52,2.07-.06s5.37,1.58,3.51,2.95c0,0-.42,1.52-4.3,1.07Z"/>
      <path class="cls-7" d="M70.92,82.31s-5.77,1.84-9.02-2.66c0,0,.15-2.93,2.54-1.96,0,0,7.22,2.64,7.22,4.01,0,0-.37.46-.74.61Z"/>
      <path class="cls-7" d="M134.13,78.81s-2.97,2.44,1.12,3.66c0,0,3.72.46,5.95-2.28,0,0,.46-2.91-1.44-3.13,0,0-4.5,1.3-4.13,1.61,0,0-1.12-.15-1.49.15Z"/>
      <path class="cls-7" d="M148.25,82.01s-2.08-1.74,3.98-3.38l1.97.03,3.79-1.15s1.41,1,.3,2.37c0,0-4.46,2.95-6.69,2.62,0,0-2.97.43-3.35-.49Z"/>
      <path class="cls-7" d="M167.02,82.74s-4.64.95-6.13-1.03c0,0-.64-1.33,4.89-1.65,0,0,5.15-.48,6.27-1.24,0,0-1.13,2.83-5.03,3.93Z"/>
      <path class="cls-18" d="M55.68,193.8s4.09.61,12.64-4.11c0,0,8.92-5.33,10.04-5.64,0,0,4.46-3.35,8.18-3.66,0,0,4.83-1.37,5.58-1.98,0,0,9.03,1.98,20.69,0,0,0,7.57,1.37,10.54,3.5,0,0,6.43,2.77,8.42,4.2,0,0,6.08,4.02,19.84,6.61,0,0-10.41-5.18-12.27-8.07,0,0-4.46-5.94-9.67-8.68,0,0-2.23-1.52-3.72-2.44,0,0,1.86-.91,1.86-2.74,0,0,5.58,2.44,12.64,3.05,0,0,7.44,1.83,13.76,1.83,0,0-2.77-3.4-8.92-6.56,0,0-9.3-4.87-20.45-5.63,0,0,.37-6.09-8.55-8.53,0,0-5.58-5.33-13.01-5.48s-16.36,1.37-17.47,5.03c0,0-6.69,3.5-5.95,5.79,0,0,0,3.2-4.09,3.96,0,0-14.5,1.07-23.05,11.42,0,0,10.78-2.28,12.64-2.13s10.78-1.37,12.27-2.59c0,0,3.35,1.37-2.6,5.18,0,0-8.92,4.42-8.55,6.09.37,1.68-2.23,8.38-6.32,9.14l-4.46,2.44Z"/>
      <path class="cls-18" d="M57.54,173.7s18.22-2.89,20.82-8.68c0,0,1.12-1.83,2.6-1.98,0,0,1.49-.76,1.86-1.37"/>
      <path class="cls-18" d="M150.11,174.61s-16.57-3.22-23.42-8.83c0,0-2.97-3.5-5.95-4.57"/>
      <path class="cls-18" d="M61.34,171.65s-.57.97,1.16,1.05"/>
      <path class="cls-18" d="M63.86,170.19s-.56,1.54,2.69,1.45"/>
      <path class="cls-18" d="M68.51,167.91s-1.67,2.42,1.67,2.73"/>
      <path class="cls-18" d="M76.13,166.39s-5.84.6-3.48,2.89"/>
      <line class="cls-18" x1="72.09" y1="166.98" x2="75.01" y2="166.08"/>
      <path class="cls-18" d="M130.17,166.08s3.29.96,1.58,2.76"/>
      <path class="cls-18" d="M133.83,167.46s2.68.9,0,2.73"/>
      <path class="cls-18" d="M139.57,168.83s3.75.78-.66,2.82"/>
      <path class="cls-18" d="M145.28,171.26s.01,1.41-2.04,1.69"/>
      <path class="cls-18" d="M148.02,172.7s-.4.85-1.94,1"/>
      <path class="cls-18" d="M65.19,188.65s.81.18,2.9,0"/>
      <path class="cls-18" d="M73.55,184.28s2.21.51,2.58-.39"/>
      <path class="cls-18" d="M70.18,180.69s2.23.01,2.6,1.23"/>
      <path class="cls-18" d="M74.84,179.19s.92,2.43,2.4,2.43h2.42"/>
      <line class="cls-18" x1="77.68" y1="174.01" x2="81.57" y2="171.65"/>
      <path class="cls-18" d="M79.66,174.95s.93-.88,1.12-1.75"/>
      <line class="cls-18" x1="81.57" y1="174.61" x2="81.57" y2="175.4"/>
      <path class="cls-18" d="M89.7,175.01s-.56.82.93.67"/>
      <line class="cls-18" x1="93.97" y1="177.5" x2="92.11" y2="178.42"/>
      <line class="cls-18" x1="110.73" y1="177.5" x2="112.8" y2="178.42"/>
      <path class="cls-18" d="M122.2,172.7s1.89-.37,3.74.85"/>
      <path class="cls-18" d="M77.68,169.27s.2,1.35,1.19,1.37"/>
      <path class="cls-18" d="M80.22,169.96s0-2.24,2.6-2.83"/>
      <path class="cls-18" d="M92.11,171.26s2.97-.71,1.86-2.72c0,0,1.17-.28,2.26,0"/>
      <path class="cls-18" d="M110.09,170.64s-2.15-.09-.96-.8"/>
      <path class="cls-18" d="M113.6,171.65s2.15,1.31,2.23.99l.08-.32h0"/>
      <line class="cls-18" x1="127.78" y1="169.84" x2="127.81" y2="170.8"/>
      <path class="cls-18" d="M125.95,170.19s-.16-.92-1.2-.92"/>
      <path class="cls-18" d="M123,168.54s-1.14-1.22-3.19-1.08c-2.04.14-1.91-1.38-1.91-1.38"/>
      <line class="cls-18" x1="117.9" y1="165.29" x2="117.02" y2="164.86"/>
      <path class="cls-18" d="M117.02,164.44s3.35-3.17,0-5.94"/>
      <path class="cls-18" d="M83.93,160.75s2.23-2.13.74-2.89"/>
      <line class="cls-18" x1="85.19" y1="163.13" x2="85.19" y2="162.35"/>
      <line class="cls-18" x1="82.82" y1="163.52" x2="83.93" y2="162.74"/>
      <path class="cls-18" d="M85.19,164.86s-.51,3.15-1.81,3.56"/>
      <path class="cls-18" d="M90.11,164.44s.89,1.64,2.93,1.11"/>
      <path class="cls-18" d="M101.33,166.98s1.62-.99-.64-1.94"/>
      <path class="cls-18" d="M90.63,152.75s1.12-.23,2.42,0"/>
      <path class="cls-18" d="M96.23,153.08s1.97-1.21,5.06-.43"/>
      <path class="cls-18" d="M105.95,152.65s.29-.94,1.59,0"/>
      <path class="cls-18" d="M111.21,164.44s4.06.05,1.59.85"/>
      <line class="cls-18" x1="105.95" y1="165.65" x2="106.75" y2="165.07"/>
      <path class="cls-17" d="M90.92,164.18s-9.58-4.68-.66-8.77l.66.7.49-.07s2.93-.61,3.68-.3c0,0,2.91-.25,3.5-.12,0,0,7.27-.72,8.2-.53l3.71-.03s7.24,2.32,2.81,7.84c0,0-4.14.18-5.05-.29,0,0-2.76,1.36-4.43,1.36l-6.41-1.59-.1,1.44s-1.58-.73-3.21-.97-.2.05-.2.05c0,0-3.08-.11-3-.28,0,0-.45,1.36,0,1.59Z"/>
      <path class="cls-11" d="M90.26,157.7s-3.35-.64,0-2.3c0,0,1.49.93,0,2.3Z"/>
      <path class="cls-11" d="M93.6,157.4s-4.09-.76-.74-2.74c0,0,2.23.15.74,2.74Z"/>
      <path class="cls-11" d="M97.32,157.25s-4.09-1.07-1.12-3.05c0,0,2.97.76,1.12,3.05Z"/>
      <path class="cls-11" d="M100.67,157.25s-4.67-2.44-.48-3.05c0,0,2.34,1.07.48,3.05Z"/>
      <path class="cls-11" d="M104.08,157.25s-4.42-1.37-1.31-3.05c0,0,2.87-.15,1.31,3.05Z"/>
      <path class="cls-11" d="M107.73,156.49s-3.49-.76-1.56-2.29c0,0,2.68.15,1.56,2.29Z"/>
      <path class="cls-11" d="M109.75,157.25s-1.79-1.07-.42-2.59c0,0,3.56,1.22.42,2.59Z"/>
      <path class="cls-11" d="M90.63,163.95s-2.69-.97-.78-2.62c0,0,.71-.61,2.05,1.31,0,0-1.63.85-1.26,1.31Z"/>
      <path class="cls-11" d="M93.5,163.95s-2.7-.66,0-2.08c0,0,.53-1.27,1.62-.2,0,0,1.63,1.98-1.62,2.28Z"/>
      <path class="cls-11" d="M97.32,164.25s-2.48-1.37,1.92-2.59c0,0,1.21.15,1.14,2.28,0,0-.08.46-1.2-.3l-1.86.61Z"/>
      <path class="cls-11" d="M100.77,163.95s1.41-2.53,2.33-2.71c0,0,2.95,1.64,2.49,3.02,0,0-1.54.07-2.49-.73,0,0-1.48.12-2.33.42Z"/>
      <path class="cls-11" d="M106.79,163.13v-1.89s2.37,1.01,2.03,2.32c0,0,.01,1.65-2.03-.42Z"/>
      <path class="cls-11" d="M109.54,162.96s-.37-2.8,1.51-1.59c0,0,1.89,1.06,1.51,1.66,0,0-2.34.3-3.03-.08Z"/>
    </g>
  </g>
</svg>