<?xml version="1.0" encoding="UTF-8"?>
<svg id="emilia" xmlns="http://www.w3.org/2000/svg" viewBox="0 0 399.5 414">
  <defs>
    <style>
      .cls-1 {
        fill: #c7ebef;
      }

      .cls-1, .cls-2, .cls-3, .cls-4, .cls-5, .cls-6, .cls-7, .cls-8, .cls-9, .cls-10, .cls-11, .cls-12, .cls-13, .cls-14, .cls-15, .cls-16, .cls-17, .cls-18, .cls-19 {
        stroke-miterlimit: 10;
      }

      .cls-1, .cls-2, .cls-3, .cls-4, .cls-5, .cls-6, .cls-7, .cls-9, .cls-10, .cls-11, .cls-12, .cls-13, .cls-14, .cls-15, .cls-16, .cls-17, .cls-18 {
        stroke-width: .74px;
      }

      .cls-1, .cls-2, .cls-10, .cls-17 {
        stroke: #1d1d1b;
      }

      .cls-2 {
        fill: #e55a81;
      }

      .cls-3, .cls-13, .cls-17, .cls-19 {
        fill: #e5b795;
      }

      .cls-3, .cls-19 {
        stroke: #1e110c;
      }

      .cls-4, .cls-6, .cls-8, .cls-11, .cls-13, .cls-14, .cls-15 {
        stroke: #000;
      }

      .cls-4, .cls-16 {
        fill: #fff;
      }

      .cls-5, .cls-7, .cls-20, .cls-10, .cls-15 {
        fill: none;
      }

      .cls-5, .cls-9, .cls-16, .cls-18 {
        stroke: #050606;
      }

      .cls-6 {
        fill: #2a5696;
      }

      .cls-7 {
        stroke: #898888;
      }

      .cls-20, .cls-21 {
        stroke-width: 0px;
      }

      .cls-8 {
        fill: #898888;
        stroke-width: .37px;
      }

      .cls-9 {
        fill: #1d1d1b;
      }

      .cls-21 {
        fill: #050606;
      }

      .cls-11 {
        fill: #d1c2b8;
      }

      .cls-12 {
        stroke: #af703d;
      }

      .cls-12, .cls-14 {
        fill: #af703d;
      }

      .cls-18 {
        fill: #808081;
      }

      .cls-19 {
        stroke-width: .73px;
      }
    </style>
  </defs>
  <path class="cls-14" d="M211.99,120.37s9.2-3.72,12.46,1.53"/>
  <polyline class="cls-7" points="188.69 109.57 192.16 114.67 195.21 109.46"/>
  <path class="cls-13" d="M163.3,146.33c-7.23,25.28-14.45,50.56-21.68,75.83-.82,1.2-1.88,2.51-3.26,3.79-4.38,4.09-9.4,5.54-12.17,6.1.54-1.01,1.19-2.1,1.99-3.21,2.11-2.92,4.47-4.98,6.41-6.38,0,0-15.8-2.87-24.28,7.75-.44.01-.75-.08-.93-.28-.78-.89.98-3.88,5.3-8.98,3.07-.82,6.24-1.62,9.49-2.39,4.81-1.13,5.68-.84,7.97-1.78,0,0,1.84-.75,3.79-2.15,3.89-2.79,7.36-9.4,8.61-17.88l11.17-52.74,7.58,2.31Z"/>
  <path class="cls-13" d="M128.11,222.02s-.79,3.83-6.64,8.32c0,0-4.63.61,3.21-8.28l3.42-.04Z"/>
  <path class="cls-13" d="M115.4,228.15s1.51-3.49,1.47-3.5c-.03-.01-1.45,1.93-1.37,4.32.05,1.36.59,3.18,1.48,3.29,1.23.15,2.57-3.42,2.57-3.42,0,0,3.45-5.9,4.71-6.62l-7.4,2.42"/>
  <polygon class="cls-19" points="168.27 135.68 192.8 126.11 216.23 135.97 205.75 193.1 179.3 193.1 168.27 135.68"/>
  <ellipse class="cls-3" cx="172.84" cy="133.36" rx="9.32" ry="9.79"/>
  <polyline class="cls-3" points="175.21 228.78 190.49 230.21 175.56 377.13 171.12 376.72 174.97 306.17 175.21 228.78"/>
  <ellipse class="cls-3" cx="178" cy="316.01" rx="6.81" ry="6.57"/>
  <polyline class="cls-3" points="212.63 227.93 197.35 229.36 212.28 376.28 216.72 375.86 212.87 305.32 212.63 227.93"/>
  <path class="cls-19" d="M180.96,183.23h23.53l9.32,44.68s-17.9,25.73-41.92.68l9.07-45.36Z"/>
  <ellipse class="cls-3" cx="209.67" cy="316.01" rx="6.81" ry="6.57"/>
  <ellipse class="cls-3" cx="214.92" cy="133.98" rx="9.32" ry="9.79"/>
  <ellipse class="cls-3" cx="181.36" cy="143.16" rx="10.4" ry="10.04"/>
  <ellipse class="cls-3" cx="204.52" cy="143.16" rx="10.4" ry="10.04"/>
  <ellipse class="cls-1" cx="172.42" cy="87.54" rx=".2" ry=".35" transform="translate(-9.73 22.64) rotate(-7.31)"/>
  <path class="cls-17" d="M209,77.65c.74-1.92,2.08-2.83,3.15-2.14,1.08.69,1.59,2.82,1.21,5-.09.78-.27,1.76-.59,2.8-1.03,3.27-2.79,4.69-3.31,5.08,0,0-1.63,1.21-1.79-1.03l-.11-.8"/>
  <path class="cls-10" d="M210.85,85.44s2.68-3.13,1.68-6.61c0,0-1.18-4.81-2.66-.31,0,0-.46,1.1.24,2.39,0,0,.53.52.64,1.18"/>
  <path class="cls-10" d="M209.87,78.53c.09.25.21.52.35.79.32.61.67.99.95,1.23,0,0,1.29,2.67-.7,3.75-.41.06-.82.12-1.23.19,0,0-1.02.71-1.18.19-.08-.26.09-.8.25-1.12.21-.41.39-.4.58-.81.13-.3.18-.63.19-.84.09-.26.19-.37.25-.42.31-.26.76.13,1.07,1.05"/>
  <ellipse class="cls-1" cx="209.03" cy="87.42" rx=".35" ry=".2" transform="translate(95.74 283.63) rotate(-82.69)"/>
  <path class="cls-17" d="M172.45,77.78c-.74-1.92-2.08-2.83-3.15-2.14-1.08.69-1.59,2.82-1.21,5,.09.78.27,1.76.59,2.8,1.03,3.27,2.79,4.69,3.31,5.08,0,0,1.63,1.21,1.79-1.03l.11-.8"/>
  <path class="cls-10" d="M170.6,85.57s-2.68-3.13-1.68-6.61c0,0,1.18-4.81,2.66-.31,0,0,.46,1.1-.24,2.39,0,0-.53.52-.64,1.18"/>
  <path class="cls-10" d="M171.58,78.66c-.09.25-.21.52-.35.79-.32.61-.67.99-.95,1.23,0,0-1.29,2.67.7,3.75.41.06.82.12,1.23.19,0,0,1.02.71,1.18.19.08-.26-.09-.8-.25-1.12-.21-.41-.39-.4-.58-.81-.13-.3-.18-.63-.19-.84-.09-.26-.19-.37-.25-.42-.31-.26-.76.13-1.07,1.05"/>
  <g>
    <g>
      <path class="cls-14" d="M184.1,119.66s-1.47,4.12-3.83,7.07c0,0-7.71,1.13-10.46,11.51,0,0-8.1,4.37-7.23,15.67,0,0-3.45-1.28-1.72-10.93,0,0-6.55,4.37-9.99-.73,0,0,3.1,0,4.48-5.47l1.38-5.47s-10.51-9.29.69-12.76c0,0,2.07-2.73-1.55-3.46,0,0-2.58-2-1.03-6.2,0,0-2.24-1.82-1.21-6.38,0,0,6.2-8.02,12.06-24.42,0,0,.52-24.6,15.67-28.43,0,0,19.12-18.95,32.9,15.31l4.82,9.11,2.58.91,4.48,11.12s-2.41-3.46-4.65-3.64c0,0,3.27,1.82,2.41,6.92,0,0-2.76-4.19-5.51-3.83,0,0,4.65,10.75,6.72,9.66,0,0,4.23,3.98,2.53,8.61-.08.23-.18.45-.29.68,0,0,3.1,2.92,1.21,6.38,0,0-1.03-5.65-6.72-6.92,0,0,3.1,10.93.52,13.85,0,0,7.23,4.19,4.82,10.39,0,0,5.68,8.75-3.62,9.84,0,0-1.38,2.55-3.79,2.37,0,0,5.17-6.74-4.65-8.56,0,0-.17,7.84-8.27,4.37,0,0,6.89-3.1,5.17-7.47-1.72-4.37-7.92-1.09-5.51,1.28,0,0-4.65-1.09-.86-7.65l2.24-.91s1.89-3.64-5.86-5.28c0,0-1.03-6.38-17.91,3.46Z"/>
      <path class="cls-14" d="M219.07,74.03s-4.22-.64-7.92-.18"/>
      <path class="cls-14" d="M221.48,82.41s-5.77-2.46-10.25.18"/>
      <path class="cls-14" d="M218.38,85.51s-4.82.18-8.44,3.74"/>
      <path class="cls-14" d="M154.82,108.83s6.63-13.12,16.19-15.21c9.56-2.1,8.18,11.94,1.81,11.48-6.37-.46-3.53-9.93,1.29-7.56"/>
      <path class="cls-14" d="M157.4,118.49s13.09-13.03,21.53-7.65c8.44,5.38-8.27,17.49-8.96,8.38-.69-9.11,7.15-6.29,5.51-3.28"/>
      <path class="cls-14" d="M222.34,117.76s-4.56-4.1-12.06-1.82"/>
      <path class="cls-14" d="M221.83,103.91s-7.84-3.74-14.64-1.28-2.67,15.4,2.58,10.02c5.25-5.38-1.03-7.2-1.55-4.46"/>
    </g>
    <path class="cls-14" d="M224.18,95.16s-1.98,5.1-8.61,1.78"/>
  </g>
  <rect class="cls-11" x="165.08" y="118.89" width="54.85" height="32.34"/>
  <path class="cls-11" d="M221.02,119.37s-13-4.96-16.25-6.52c-3.25-1.57-1.08-.26-1.08-.26-3.52,8.87-11.1,8.09-11.1,8.09-1.2-.16-3.97-.7-6.62-2.81-2.42-1.93-3.51-4.19-3.95-5.28l-17.06,6.79c-4.33.78-6.23,6-6.23,6l-7.85,24.79,15.71,4.18.81-3.65c-1.08-3.11-2.42-30.9-2.44-31.31,0,0,0,0,0,0"/>
  <line class="cls-11" x1="168.4" y1="166.1" x2="216.61" y2="165.57"/>
  <path class="cls-8" d="M192.28,116.79s.01-.05.05-.1c.18-.25.81-.83.81-.83.52-.63.15-.93.15-.93-.63-.63-1.01.18-1.01.18,0,0-.25-.81-1.11-.16,0,0-.19.51.31.99,0,0,.67.59.8.85Z"/>
  <g>
    <polygon class="cls-8" points="146.82 206.9 146.22 207.97 144.33 207.01 144.93 205.93 146.82 206.9"/>
    <polygon class="cls-8" points="143.98 205.46 143.38 206.54 141.59 205.63 142.19 204.55 143.98 205.46"/>
    <ellipse class="cls-8" cx="144.19" cy="206.26" rx=".87" ry=".84" transform="translate(-31.95 26.52) rotate(-9.46)"/>
  </g>
  <path class="cls-11" d="M198.11,369.17s-2.2,5.86-1.21,11.82c0,0-.81,2.57,2.83,2.45l20.47-.33s11.62,0,12.43-3.07c0,0,1.45-3.51-3.41-4.63,0,0-4.45-.17-6.01-.78l-11.1-6.92s-.81-.33-1.91.73c0,0-2.89,3.12-5.72,3.74,0,0-2.2-.11-4.45-1.62l-1.91-1.39Z"/>
  <path class="cls-15" d="M232.33,377.48s-11.97,3.85-35.38,1"/>
  <path class="cls-15" d="M196.72,380.49s12.03,1.56,23.24.67"/>
  <line class="cls-15" x1="219.96" y1="379.38" x2="220.19" y2="383.11"/>
  <ellipse class="cls-15" cx="202.04" cy="375.5" rx="2.43" ry="2.2"/>
  <path class="cls-20" d="M214.91,370.4l-1.69-.71-3.67,5.17s4.77-3.54,5.35-4.46Z"/>
  <path class="cls-11" d="M168.73,366.52s-3.33,5.34-3.55,11.38c0,0-1.31,2.37,2.29,2.93l20.15,3.48s11.4,2.16,12.81-.7c0,0,2.12-3.18-2.42-5.18,0,0-4.33-.99-5.74-1.88l-9.51-8.85s-.73-.48-2.02.36c0,0-3.46,2.53-6.36,2.6,0,0-2.13-.52-4.05-2.41l-1.59-1.72Z"/>
  <path class="cls-15" d="M200.66,381.03s-12.51,1.55-34.92-5.59"/>
  <path class="cls-15" d="M165.11,377.37s11.49,3.77,22.67,4.98"/>
  <line class="cls-15" x1="188.37" y1="380.5" x2="187.93" y2="384.22"/>
  <ellipse class="cls-15" cx="171.33" cy="373.46" rx="2.21" ry="2.43" transform="translate(-220.27 497.87) rotate(-82.98)"/>
  <g>
    <path class="cls-6" d="M178.24,182.65l27.75-.27s10.37,31.46,9.53,85.39l3.36,101.74s-15.14,6.13-25.65.82l-.84-144.64-1.68,144.23s-15.14,5.31-25.23-1.23l2.94-101.74s3.79-58.03,8.04-78.33c.58-2.78,1.17-4.86,1.77-5.98Z"/>
    <line class="cls-4" x1="192.37" y1="226.01" x2="192.51" y2="183.98"/>
    <path class="cls-15" d="M207.27,188.67s-22.79.1-29.88-.09"/>
    <ellipse class="cls-15" cx="191.13" cy="186.64" rx=".97" ry=".93"/>
    <rect class="cls-15" x="184.23" y="183.71" width="1.24" height="4.66"/>
    <rect class="cls-15" x="200.3" y="183.71" width="1.24" height="4.66"/>
    <path class="cls-15" d="M184.23,188.9s-1.24,8.91-9.65,13.57"/>
    <path class="cls-15" d="M200.37,188.63s1.24,13.3,9.93,13.83"/>
    <path class="cls-15" d="M189.47,188.9v16.89s-.55,6.25,2.76,7.85"/>
  </g>
  <path class="cls-13" d="M221.05,145.74c7.53,26.33,15.05,52.66,22.58,78.99.86,1.25,1.96,2.61,3.39,3.95,4.56,4.26,9.79,5.77,12.68,6.36-.56-1.05-1.24-2.18-2.08-3.34-2.19-3.04-4.66-5.18-6.67-6.64,0,0,16.46-2.99,25.29,8.08.46.01.78-.08.96-.29.82-.93-1.02-4.05-5.52-9.35-3.2-.86-6.5-1.69-9.89-2.49-5.01-1.18-5.92-.87-8.3-1.85,0,0-1.91-.79-3.95-2.24-4.05-2.9-7.66-9.79-8.97-18.63l-11.64-54.94-7.9,2.4Z"/>
  <path class="cls-13" d="M259.32,225.62s.82,3.98,6.91,8.66c0,0,4.83.64-3.35-8.62l-3.57-.04Z"/>
  <path class="cls-11" d="M166.78,150.68c2.17,2.87,1.08,18.55,1.08,18.55h48.75s0-14.11.81-18.55l1.35,3.66,15.44-4.18s-7.31-26.65-8.4-26.65c0,0-1.63-2.61-5.42-4.18,0,0-1.35,27.7-2.98,30.31"/>
  <path class="cls-13" d="M272.52,232.32s-1.58-3.63-1.54-3.65c.03-.01,1.51,2.01,1.43,4.5-.05,1.42-.62,3.32-1.54,3.43-1.28.16-2.68-3.56-2.68-3.56,0,0-3.59-6.15-4.91-6.89l7.71,2.53"/>
  <path class="cls-19" d="M180.15,95.75s8.17,7.78,8.54,13.81l-3.29.04s.15,1.52,1.16,3.45c.27.51.56,1.06.86,1.61.27.49.56,1,.85,1.49,1.52,2.59,3.18,4.29,4.29,4.34.97-.48,2.38-1.36,3.58-2.88,2.72-3.45,2.16-7.48,2.01-8.37l-2.95.21c.1-8.13,6.24-13.44,6.24-13.44l-21.3-.26Z"/>
  <path class="cls-19" d="M191.07,56.2s-11.36-1.21-16.43,10.36c0,0-4.45,8.8-.53,20.6,0,0,.36,1.88,1.12,3.67,0,0,2.84,5.23,9.08,9.33,0,0,5.78,4.8,12.19.6,0,0,7.55-5.45,9.25-8.76,0,0,1.22-2.07,1.93-5.18,0,0,2.75-7.8.71-16.02,0,0-1.29-9.26-9.57-12.89,0,0-2.37-1.57-7.75-1.7Z"/>
  <path class="cls-9" d="M184.91,70.96c-1.85-1.12-5.63-2.76-10.36-1.33,0,0,3.41-5.46,10.76-1.98.26.13.46.44.5.82l.14,1.41c.08.79-.5,1.4-1.04,1.07Z"/>
  <path class="cls-11" d="M185.1,109.75l6.27,10.75s-5.97.32-10.26-7.55l3.98-3.2Z"/>
  <path class="cls-9" d="M196.27,70.91c1.85-1.12,5.63-2.76,10.36-1.33,0,0-3.41-5.46-10.76-1.98-.26.13-.46.44-.5.82l-.14,1.41c-.08.79.5,1.4,1.04,1.07Z"/>
  <path class="cls-15" d="M178.97,113.57s5.96,9.93,12.19,9.67c0,0,12.46-.52,14.08-9.67"/>
  <g>
    <g>
      <path class="cls-12" d="M172.09,62.8c.95-1.1,1.76-7.02,4.09-8.39,5.64-3.33,13.14-5.05,14.77-4.97,2.75.13,8.04.42,12.4,3.26,7.31,4.75,6.86,18.72,7.04,20.1l-6.51-4.84,2.65,3.31c-4.63-.01-13.53-3.12-13.53-3.12l1.83,1.71c-7.51-2.79-12.71-3.62-12.71-3.62,2.59,2.39,8.89,2.7,8.89,2.7-10.79.21-17.27-7.27-17.27-7.27,1.65,4.92,8.56,7.09,8.56,7.09-5.96-.56-10.2-5.96-10.2-5.96"/>
      <g>
        <path class="cls-15" d="M172.77,63.58s3.73,4.62,9.52,5.18c0,0-7.1-2.52-8.28-6.72,0,0,6.99,7.28,16.93,6.94,0,0-5.61-.23-8.81-2.77-4.68-3.71-3.88-6.91-3.88-6.91"/>
        <path class="cls-15" d="M182.32,66.35s7.73,1.52,12.56,3.57l-1.86-1.72c-11.4-9.86-6.94-12.53-6.94-12.53"/>
        <path class="cls-15" d="M193.02,68.2c9.37,3.25,13.57,3.09,13.57,3.09l-2.38-2.92c-12.82-14.06-7.69-18.27-7.69-18.27"/>
      </g>
    </g>
    <line class="cls-14" x1="209.06" y1="71.81" x2="204.21" y2="68.37"/>
    <path class="cls-11" d="M198.16,109.25s1.04,8.05-5.58,11.42c0,0,6.49.8,11.1-8.09l-5.52-3.33Z"/>
  </g>
  <path class="cls-2" d="M193.93,93.71c-.83-.01-1.41-.25-1.79-.47,0,0-.8-.46-1.34-.41-.33.03-.57.17-.72.28-.18-.11-.45-.24-.79-.26-.49-.03-1.19.44-1.73.63-.3.1-.74.19-1.33.05.27.32,2.03,2.33,4.56,1.98,1.65-.23,2.75-1.35,3.15-1.81Z"/>
  <path class="cls-10" d="M183.93,92.48c.86.42,1.73.83,2.59,1.25.98.19,2.15.34,3.48.39,1.46.05,2.74-.06,3.8-.21.67-.31,1.35-.62,2.02-.94"/>
  <path class="cls-10" d="M187.36,85.96s-.89,1.7.38,1.5c0,0,.57-.38,1.08.16,0,0,1.31.9,2.07,0,0,0,.29-.64,1.18-.26,0,0,1.43,0,.13-1.57"/>
  <path class="cls-10" d="M191.16,78.78s-.3,3.1.21,3.81"/>
  <path class="cls-16" d="M186.45,77.8s-2.75-6.06-9.74-4.64c0,0-1.07.14-2.03-.9,0,0,.96,9.62,11.77,5.55Z"/>
  <path class="cls-21" d="M186.58,77.31c-2.3-3.14-5.84-5.69-9.85-4.21,3.76-2.66,8.48.39,9.85,4.21h0Z"/>
  <ellipse class="cls-18" cx="181.91" cy="76.31" rx="2.54" ry="2.4"/>
  <path class="cls-5" d="M178.57,72.94s-3.49.55-2.06,3.64"/>
  <ellipse class="cls-9" cx="181.96" cy="76.27" rx=".97" ry=".79" transform="translate(67.84 237.22) rotate(-77.4)"/>
  <path class="cls-16" d="M194.87,77.87s2.75-6.06,9.74-4.64c0,0,1.07.14,2.03-.9,0,0-.96,9.62-11.77,5.55Z"/>
  <path class="cls-21" d="M194.74,77.37c1.36-3.82,6.09-6.87,9.85-4.21-4.01-1.49-7.55,1.07-9.85,4.21h0Z"/>
  <ellipse class="cls-18" cx="199.4" cy="76.38" rx="2.54" ry="2.4"/>
  <path class="cls-5" d="M202.75,73.01s3.49.55,2.06,3.64"/>
  <ellipse class="cls-9" cx="199.35" cy="76.34" rx=".79" ry=".97" transform="translate(-11.85 45.32) rotate(-12.6)"/>
</svg>