<?xml version="1.0" encoding="UTF-8"?>
<svg id="kian" xmlns="http://www.w3.org/2000/svg" viewBox="0 0 420 489">
  <defs>
    <style>
      .cls-1 {
        stroke: #1e120d;
      }

      .cls-1, .cls-2, .cls-3, .cls-4, .cls-5, .cls-6, .cls-7, .cls-8, .cls-9, .cls-10, .cls-11 {
        stroke-miterlimit: 10;
      }

      .cls-1, .cls-2, .cls-3, .cls-4, .cls-5, .cls-8, .cls-10, .cls-11 {
        stroke-width: .74px;
      }

      .cls-1, .cls-12 {
        fill: #e8cbaf;
      }

      .cls-2, .cls-3, .cls-4, .cls-5, .cls-6, .cls-7, .cls-8, .cls-9, .cls-10, .cls-11 {
        stroke: #000;
      }

      .cls-2, .cls-13 {
        fill: #2d210c;
      }

      .cls-3, .cls-14 {
        fill: #666;
      }

      .cls-15, .cls-12, .cls-14, .cls-16, .cls-13 {
        stroke-width: 0px;
      }

      .cls-15, .cls-8 {
        fill: #e6cbaf;
      }

      .cls-4, .cls-16 {
        fill: #e7cbaf;
      }

      .cls-5 {
        fill: #1d2030;
      }

      .cls-6 {
        fill: #000;
      }

      .cls-6, .cls-7, .cls-9 {
        stroke-width: .55px;
      }

      .cls-7 {
        fill: #fff;
      }

      .cls-9 {
        fill: #99774f;
      }

      .cls-10 {
        fill: none;
      }

      .cls-11 {
        fill: #423a32;
      }
    </style>
  </defs>
  <path class="cls-4" d="M225.54,164.48c-.7,5.18-3.15,13.18-6.41,13.46-2.96.26-6.6-5.82-8.07-15,2.29-10.52-.32-23.46-.32-23.46.46-4.14,2.31-7.7,4.93-8.97,3.86-1.87,9.17,1.32,11.09,8.23-.6,3.53-1.25,8.64-1.23,14.84.02,5.35.52,7.07,0,10.9Z"/>
  <path class="cls-13" d="M222.53,150.98c.71,0,.71-1.11,0-1.11s-.71,1.11,0,1.11h0Z"/>
  <path class="cls-1" d="M187.57,209.58c-1.29-.51-2.58-.12-2.96,0-3.45,1.05-5.68,5.67-5.72,11.5l-2.83,7.95-1.34,10.33-.6,9.71.04,10.74.03,8.67,5.73.23,1.37-8.93,2.29-9.47,4.79-12.64,1.44-8.37.55-7.9c1.25-6.02-.03-10.72-2.8-11.82Z"/>
  <g>
    <path class="cls-1" d="M179.77,212.1l-.72,5.26c3.75-.24,7.64-.36,11.35.35l.38-5.75,2.15-18.1-2.21-15.41c-.43-7.65-3.67-12.73-6.1-12.7-2.37.03-5.33,4.96-5.83,12.07.52,4.71,1.05,9.43,1.57,14.14l-.58,20.13Z"/>
    <ellipse class="cls-12" cx="184.86" cy="216.79" rx="4.93" ry="5.48"/>
  </g>
  <g>
    <path class="cls-1" d="M180.67,262.36c.09.43.62,1.4.7,1.9s.17,1.02.26,1.56c.45,2.84.9,6.15,1.35,8.41l-2.54,8.06h-3.81s-3.74-8.49-3.74-8.49c.6-1.59.79-4.41,1.1-6.88.09-.68.18-1.34.29-1.94s-.19-2.16-.02-2.61"/>
    <polyline class="cls-1" points="177.93 282.28 174.29 274.17 175.28 270.91"/>
    <polyline class="cls-1" points="179.33 282.09 175.97 274.17 176.8 271.68"/>
    <polyline class="cls-1" points="179.33 274.19 179.89 275.3 178.53 280.19"/>
  </g>
  <path class="cls-1" d="M263.52,248.63l-.33-4.7-.47-6.77-.69-10-.47-4.39c-1.32-5.06-2.65-10.13-3.97-15.19-.67-2.96-3.07-4.98-5.42-4.98-3.03,0-6.06,3.35-5.42,7.47.77,3.79,1.53,7.58,2.3,11.38l.63,5.73.71,10,2.19,7.22,1,5.14,1.99,7.62.58,6.53-.82,6.14,7.13.57c.17-2.06.34-4.12.51-6.18l.66-5.45-.1-10.12Z"/>
  <g>
    <path class="cls-1" d="M259.89,216.63l-1.17-4.3-.08-13.49-.3-8.46c.39-3.89.77-7.78,1.16-11.67-.69-7.92-4.3-13.08-6.84-12.95-2.5.12-5.48,5.41-5.67,12.95l-.19,10.88-.95,8.74.85,13.77,1.23,4.91c1.99.04,3.99.04,5.98-.02,1.99-.06,3.99-.18,5.97-.36Z"/>
    <ellipse class="cls-12" cx="253.89" cy="216.79" rx="4.93" ry="5.48"/>
  </g>
  <g>
    <path class="cls-1" d="M256.11,262.86c-.09.43-.17,1.4-.26,1.9s-.17,1.02-.26,1.56c-.45,2.84-.9,6.15-1.35,8.41l2.54,8.06h3.81l3.74-8.49c-.6-1.59-.79-4.41-1.1-6.88-.09-.68-.18-1.34-.29-1.94s.24-2.66.07-3.11"/>
    <polyline class="cls-1" points="259.29 282.77 262.93 274.67 261.94 271.41"/>
    <polyline class="cls-1" points="257.89 282.59 261.25 274.67 260.42 272.17"/>
    <polyline class="cls-1" points="257.89 274.68 257.33 275.8 258.7 280.69"/>
  </g>
  <path class="cls-1" d="M209.76,257.38c-6.31-3.66-12.84-1.36-13.81-1-1.44,5-2.89,10.01-4.33,15.01l-2.32,18.23-1.81,20.35,3.37,17.36-.03,19.84v.04c1.24,0,2.48,0,3.72.02,5.16.05,10.32.14,15.48.19.01-.41.03-.83.05-1.24.31-5.94-1.2-11.97-1.2-17.99,0-5.87,3.13-11.72,3.07-17.57-.04-4.06.74-8.1,1.44-12.1.5-2.87.96-5.73,1.04-8.57.08-2.9,1.43-5.78,1.4-8.63-.04-3.27,1.38-5.8,1.91-7.55.63-6.77-2.51-13.19-7.99-16.37Z"/>
  <g>
    <path class="cls-1" d="M213.39,415.64c.92.1,2.11,1.7,2.1,2.84,0,.15-.02.28-.07.41-.05.14-.13.26-.24.37-.99.94-2.47-.94-2.47-.94-2.96,2.81-10.85.47-10.85.47,0,0-6.41-1.4-7.74-.31s-4.46,0-4.46,0c-3.82-1.71-1.6-10.45-.62-11.38.28-.26-.05-2.14.03-4.69.07-1.94.09-4.27.09-6.58,0-1.21,0-2.41-.02-3.54-.03-3.96.39-7.17.39-7.17l11.34.75s.3,2.14,0,4.98c-.18,1.7.09,3.87.07,5.7-.03,2.08-.39,4.03.04,5.36.21.65.5,1.15.88,1.45,2.96,2.34,8.38,7.02,16.27,8.89,0,0,4.93-.47,2.96,2.81"/>
    <path class="cls-1" d="M214.2,415.04s3.94,1.4,2.47,3.74c0,0-1.36,1.26-1.67-.31"/>
    <path class="cls-1" d="M215.6,414.1s4.52,1.41,3.04,3.74c0,0-.83.94-1.65,0"/>
    <path class="cls-1" d="M216.66,413.17s4.44.47,3.94,2.34c0,0,.49,1.87-.99,1.87s-.95-1.3-.95-1.3"/>
  </g>
  <rect class="cls-12" x="229.34" y="326.35" width="16.02" height="21.16" transform="translate(474.71 673.86) rotate(-180)"/>
  <path class="cls-1" d="M227.62,257.38c6.31-3.66,12.84-1.36,13.81-1,1.44,5,2.89,10.01,4.33,15.01l2.32,18.23,1.81,20.35-3.37,17.36.03,19.84v.04c-1.24,0-2.48,0-3.72.02-5.16.05-10.32.14-15.48.19-.01-.41-.03-.83-.05-1.24-.31-5.94,1.2-11.97,1.2-17.99,0-5.87-3.13-11.72-3.07-17.57.04-4.06-.74-8.1-1.44-12.1-.5-2.87-.96-5.73-1.04-8.57-.08-2.9-1.43-5.78-1.4-8.63.04-3.27-1.38-5.8-1.91-7.55-.63-6.77,2.51-13.19,7.99-16.37Z"/>
  <g>
    <g>
      <path class="cls-1" d="M209.26,335.07c-6.41-.08-12.06-.22-18.47-.26l-.89,14-.8,13.55.88,10.95-.95,18.15.02,10.27c2.91.25,9.02.55,11.93.8.35-4.25-.2-7.65.1-10.81.38-3.91.84-7.48,1.71-11.93.37-1.89.09-3.77.63-5.65,1.06-3.68,1.41-7.4,1.71-11.28.37-4.84,5.1-9.77,5-14.82-.09-4.33-.97-8.69-.87-12.98Z"/>
      <ellipse class="cls-12" cx="200.05" cy="335.56" rx="8.2" ry="10.21"/>
    </g>
    <ellipse class="cls-12" cx="194.97" cy="399.67" rx="5.67" ry="8.09"/>
  </g>
  <g>
    <path class="cls-1" d="M260.38,415.76c.92.1,2.11,1.7,2.1,2.84,0,.15-.02.28-.07.41-.05.14-.13.26-.24.37-.99.94-2.47-.94-2.47-.94-2.96,2.81-10.85.47-10.85.47,0,0-6.41-1.4-7.74-.31-1.33,1.1-4.46,0-4.46,0-3.82-1.71-1.6-10.45-.62-11.38.28-.26-.05-2.14.03-4.69.07-1.94.09-4.27.09-6.58,0-1.21,0-2.41-.02-3.54-.03-3.96.39-7.17.39-7.17l10.7,1.63s.99,1.49,1.06,4.34c.05,1.71-.33,3.63-.36,5.46-.03,2.08-.39,4.03.04,5.36.21.65.5,1.15.88,1.45,2.96,2.34,8.38,7.02,16.27,8.89,0,0,4.93-.47,2.96,2.81"/>
    <path class="cls-1" d="M261.68,415.16s3.94,1.4,2.47,3.74c0,0-1.36,1.26-1.67-.31"/>
    <path class="cls-1" d="M263.07,414.22s4.52,1.41,3.04,3.74c0,0-.83.94-1.65,0"/>
    <path class="cls-1" d="M264.14,413.29s4.44.47,3.94,2.34c0,0,.49,1.87-.99,1.87s-.95-1.3-.95-1.3"/>
  </g>
  <g>
    <g>
      <path class="cls-1" d="M228.11,335.06c6.41-.07,12.06-.22,18.47-.25l.88,14,.79,13.55-.88,10.95.94,18.15-.57,10.82c-2.91.25-8.48,0-11.39.25-.35-4.25.21-7.65-.09-10.81-.37-3.91-.84-7.48-1.7-11.93-.37-1.89-.08-3.77-.62-5.65-1.06-3.68-1.41-7.41-1.7-11.28-.36-4.84-5.1-9.78-4.99-14.83.1-4.33.97-8.69.88-12.98Z"/>
      <ellipse class="cls-12" cx="237.1" cy="335.02" rx="8.2" ry="10.21"/>
    </g>
    <ellipse class="cls-12" cx="241.99" cy="400.33" rx="5.49" ry="8.09"/>
  </g>
  <g>
    <path class="cls-1" d="M191.53,177.95h55.95l-.31,20.04-1.12,12.93-.96,11.11-1.32,23.12-.25,13.74s-36.55,17.23-48.7-1.57l-.64-14.73-.75-20.56.24-14.2-1-11.41-1.13-18.46Z"/>
    <path class="cls-1" d="M260.26,178.08h-80.9c-3.95-5.35,1.97-13.68,1.97-13.68l25.01-11.89s11.33,19.62,26.73,0l21.32,8.32s10.41,8.92,5.87,17.24Z"/>
  </g>
  <g>
    <rect class="cls-12" x="193.24" y="168.99" width="52.76" height="25.89"/>
    <ellipse class="cls-12" cx="185.6" cy="177.95" rx="5.67" ry="7.97"/>
    <ellipse class="cls-12" cx="253.64" cy="177.95" rx="5.67" ry="7.97"/>
  </g>
  <path class="cls-1" d="M194.18,255.7l.25-2.06,1.84.54,2.58.55,2.59.32,7.39.53,11.83-.13,16.6-.96,3.44-.24,3.09-.36v8.47l.63,2.84.53,2.82.57,2.73s-1.99.11-4.27.27c-1.37.09-2.84.21-4.05.32-4.22.4-10.88.32-19.22.39-3.79.03-7.92-.13-12.33-.18-1.78-.02-3.6.05-5.46.03-1.17-.01-2.36-.06-3.56-.18-1.59-.16-3.21-.34-4.85-.55l.65-4.99.65-3.69.65-3.48.45-2.98Z"/>
  <g>
    <rect class="cls-12" x="194.72" y="244.93" width="47.83" height="23.16"/>
    <polygon class="cls-12" points="214.94 283.93 191.09 280.68 193.59 261.92 217.44 265.17 214.94 283.93"/>
    <polygon class="cls-12" points="246.81 282.27 223.19 286.9 219.61 268.33 243.24 263.69 246.81 282.27"/>
  </g>
  <path class="cls-10" d="M190.31,100.75s1.93-8.15,5.4-8.88"/>
  <path class="cls-4" d="M242.21,100.84c.19,1.93.31,3.96.31,3.96.11,1.21.11,2.68.14,3.63.04,1.08-.03,1.89.04,2.91.2,2.86-.03,5.4.2,7.08.18,1.34-.22,2.14-.22,2.14-.42.9-1.01,2.1-1.78,3.48-.64,1.14-1.98,3.51-3.97,6.04-3.03,3.84-6.11,6.2-6.73,6.66-4.13,3.11-7.22,5.44-11.45,5.55-5.63.15-10.06-3.69-13.55-6.71-2.47-2.14-3.94-4.1-4.36-4.67-2.9-3.95-4.06-7.83-4.58-10.21,0,0-1.42-6.74-1.42-15.04,0-7.22,1.02-13.2,6.44-19.01,1.3-1.39,8.3-8.56,19.19-7.91.84.05,10.72.79,16.61,8.33,0,0,4.27,5.28,5.13,13.79Z"/>
  <g>
    <path class="cls-8" d="M242.48,110.18c1.22-2.59,3.26-3.94,4.63-3.53.74.22,1.29.95,1.38,1.07.86,1.17.62,2.51.57,2.75-.26,1.34-.68,2.89-1.34,4.53-1.39,3.47-3.3,6-4.8,7.65,0,0-.62.21-1.08-.13-.4-.29-.46-.51-.36-1.03"/>
    <path class="cls-8" d="M246.73,115.78s2.9-7.01-.17-8.25c0,0-1.1.36-1.89,2.52-.11.31-.22.66-.32,1.04,0,0-.81,1.8-.63,2.65s-.46,2.5-.46,2.5c0,0-.88.94-.91,2.08"/>
    <path class="cls-8" d="M242.48,117.69s2.65-.99,3.06-2.04c.41-1.05.81-2.45.19-3.65s-.67.04-1.15-1.77"/>
  </g>
  <path class="cls-8" d="M195.13,109.89c-1.22-2.59-2.68-3.51-4.06-3.1-.74.22-1.29.95-1.38,1.07-.86,1.17-.62,2.51-.57,2.75.26,1.34.68,2.89,1.34,4.53,1.39,3.47,3.3,6,4.8,7.65,0,0,.62.21,1.08-.13.4-.29.61-.8.5-1.32"/>
  <path class="cls-8" d="M191.45,115.93s-2.9-7.01.17-8.25c0,0,1.1.36,1.89,2.52.11.31.22.66.32,1.04,0,0,.81,1.8.63,2.65s.46,2.5.46,2.5c0,0,.88.94.91,2.08"/>
  <path class="cls-8" d="M195.7,117.84s-2.65-.99-3.06-2.04c-.41-1.05-.81-2.45-.19-3.65.62-1.2.67.04,1.15-1.77"/>
  <path class="cls-15" d="M242.68,119.58c1.42,0,1.43-2.21,0-2.21s-1.43,2.21,0,2.21h0Z"/>
  <path class="cls-15" d="M242.55,119.66c1.42,0,1.43-2.21,0-2.21s-1.43,2.21,0,2.21h0Z"/>
  <path class="cls-15" d="M242.55,119.88c1.42,0,1.43-2.21,0-2.21s-1.43,2.21,0,2.21h0Z"/>
  <path class="cls-15" d="M243.57,111.61c.02-.36,0-.72-.04-1.08,0-.15-.03-.29-.1-.43-.04-.14-.12-.26-.23-.36-.1-.11-.22-.18-.36-.23-.13-.07-.27-.1-.43-.1l-.29.04c-.19.05-.35.15-.49.28l-.17.22c-.1.17-.15.36-.15.56.05.36.06.72.04,1.08,0,.15.03.29.1.43.04.14.12.26.23.36.1.11.22.18.36.23.13.07.27.1.43.1l.29-.04c.19-.05.35-.15.49-.28l.17-.22c.1-.17.15-.36.15-.56h0Z"/>
  <path class="cls-7" d="M206,112.5s-4.03-.9-5.27-4.42c-1.28-3.6,5.47-5.76,5.47-5.56,8.26-.85,7.81,7.58,7.81,7.58,0,0,.24,1-.97,1.5-3.41,1.41-7.04.9-7.04.9Z"/>
  <path class="cls-9" d="M204.45,108.41c.1,2.17,1.9,3.73,4.02,3.49,2.12-.24,3.76-2.2,3.66-4.37-.1-2.17-1.9-3.73-4.02-3.49s-3.76,2.2-3.66,4.37Z"/>
  <path class="cls-6" d="M206.84,108.14c.08.99.84,1.66,1.7,1.49.85-.17,1.48-1.11,1.39-2.1s-.84-1.66-1.7-1.49-1.48,1.11-1.39,2.1Z"/>
  <path class="cls-7" d="M231.4,112.5s4.03-.9,5.27-4.42c1.28-3.6-5.47-5.76-5.47-5.56-8.26-.85-7.81,7.58-7.81,7.58,0,0-.24,1,.97,1.5,3.41,1.41,7.04.9,7.04.9Z"/>
  <path class="cls-9" d="M232.95,108.41c-.1,2.17-1.9,3.73-4.02,3.49-2.12-.24-3.76-2.2-3.66-4.37.1-2.17,1.9-3.73,4.02-3.49s3.76,2.2,3.66,4.37Z"/>
  <path class="cls-6" d="M230.56,108.14c-.08.99-.84,1.66-1.7,1.49s-1.48-1.11-1.39-2.1.84-1.66,1.7-1.49,1.48,1.11,1.39,2.1Z"/>
  <path class="cls-13" d="M197.5,100.96c3.92-1.89,8.39-1.1,8.39-1.1,0,0,9.39,1.07,9.55,1.06l.1-1.76-7.42-.87s-6.08-.45-7.52.42-3.11,2.26-3.11,2.26Z"/>
  <path class="cls-13" d="M240.33,101.05c-3.92-1.89-8.39-1.1-8.39-1.1,0,0-9.39,1.07-9.55,1.06l-.1-1.76,7.42-.87s6.08-.45,7.52.42,3.11,2.26,3.11,2.26Z"/>
  <path class="cls-10" d="M217.93,109.5s-.25,6.16-1.65,8.47-1.35,4.76.83,4.61"/>
  <path class="cls-10" d="M221.49,117s3.16,5.2-.45,5.72"/>
  <path class="cls-10" d="M216.53,121.28s.35-.57,1.4.8,1.8-.12,1.8-.12c0,0,.75-.99,1.55-.56"/>
  <g>
    <path class="cls-10" d="M212.18,128.15s-.72.49-.75,1.03"/>
    <path class="cls-10" d="M225.64,129.09s.69.66.73,1.13"/>
    <path class="cls-10" d="M211.66,128.65s1.82,1.95,5.59,2.28c0,0,1.36.84,2.96.21,0,0,4.08.06,5.8-1.63"/>
    <path class="cls-10" d="M216.43,132.21s2.16,1.5,4.78.33"/>
  </g>
  <path class="cls-2" d="M193.23,112.2c.07.13.14.26.21.39,0,0-1.02-4.93-.44-4.97.57-.04,3.47,3.99,3.47,3.99,0,0-1.14-9.15,0-10.36,1.14-1.21,3.97-3.5,3.97-3.5,0,0-1.93,5.46-2.7,5.58-.77.12,3.38-.8,6.12-7.57,0,0,9.87-5.21,14.08-4.52,0,0,7.81,1.08,11.48,9.72,0,0-.96-2.74-1.55-3.69,0,0,5.21,0,6.3,4.31,0,0-.59-2.17-5.64-8.33,0,0,1.57.9,4.12,2.12,0,0,4.06,4.56,3.91,7.6h0l.3,1.04s.06-.25.06-.31c.52-4.57-1.7-8.88-1.15-9.06.23-.08,1.75,2.33,3.04,4.24.48.71.88,1.32,1.16,1.75.41,1.32.8,2.74,1.16,4.24.6,2.54.98,4.92,1.23,7.09.32-.78.63-1.6.91-2.46,1.93-5.85,2.05-11.36,1.59-15.78,0,0-1.47-5.27-2.9-6.19l4.52.84c-3.25-.49-8.58-7.58-8.58-7.58-2.49-3.46-6.85-5.62-6.85-5.62-5.5-4.09-13.87-2.74-13.87-2.74,2.65-1.96,5.63-2.35,5.63-2.35-16.52-1.91-24.25,11.51-24.25,11.51-4.18.09-9.12,8.58-9.12,8.58,0,0,3.47-2.77,4.03-3.04-.87,1.41-1.43,3.55-2.08,6-1.29,4.81-.06,8.78-.05,10.89.34,3.35.84,6.05,1.93,8.18Z"/>
  <g>
    <path class="cls-2" d="M213.04,82.87s3.49-2.67,4.86-2.59"/>
    <path class="cls-2" d="M206.83,80.7s1.86-3.58,8.18-2.09c.12.03.25.06.38.09,6.63,1.72-.13-.03-.13-.03,0,0,4.16.75,5.13.32,0,0-2.62,1.84-5.13,1.71s-4.3,2.02-4.3,2.02"/>
    <path class="cls-2" d="M210.34,79.99s7.65-.13,9.34-.57"/>
  </g>
  <g>
    <path class="cls-2" d="M235.27,88.2c-6.45-11.56-10.98-10.48-10.98-10.48"/>
    <path class="cls-2" d="M225.12,83.42s2.31-2.32,9.89,4.31c.13.11-.2-.26-.29-.39-4.95-6.54-7.46-6.54-7.46-6.54"/>
    <path class="cls-2" d="M228.47,82.43s2.35,1.11,5.88,4.44"/>
  </g>
  <path class="cls-10" d="M190.31,100.75s2.18-8.08,5.52-9.51"/>
  <path class="cls-10" d="M189.41,90.17s4.05-4.69,6.29-5.41"/>
  <path class="cls-10" d="M238.57,84.76s1.38,2.5,4.38,3"/>
  <path class="cls-10" d="M240.76,85.51s2.09,1.87,4.91,2.69"/>
  <path class="cls-10" d="M198,103.15s4.05-3.99,3.83-5.85"/>
  <path class="cls-10" d="M223.97,92.63s4.32-.12,8.43,6.19"/>
  <path class="cls-10" d="M209.94,89.02s4.71.23,9.33,2.55"/>
  <path class="cls-10" d="M238.89,91.87s6.22,8.62,3.44,20.09"/>
  <path class="cls-10" d="M232.95,93.13s3.4,3.47,3.88,10.89"/>
  <path class="cls-2" d="M204.63,88.2c-4.67.28-5.5,4.11-5.5,4.11,0,0,1.92-3.01,4.67-2.05"/>
  <path class="cls-2" d="M206.52,90.7c-5.78-.62-7.53,1.94-7.53,1.94,0,0,2.75-1.53,4.74-.33"/>
  <ellipse class="cls-16" cx="218.64" cy="160.02" rx="6.16" ry="7.47"/>
  <path class="cls-11" d="M187.72,407.26s1.06-5.35,1.1-5.17-.61-2.68,2.07-2.84,5.95-1.11,5.95-1.11c0,0,3.29-2.37,4.72-1.5s2.17,1.45,2.33,3.81c0,0,.08,1.13-.41,1.48s1.59,2.49,1.59,2.49l10.57,6.18,1.95.89s11.8.83,11.44,4.01c0,0,.83,1.8-.02,2.49,0,0-9.09,2.11-12.57,1.93l-11.72.33-17.51-1.08s-.9-1.01-.16-3.4c0,0,.06-7.75.66-8.51Z"/>
  <path class="cls-10" d="M188.92,402.56s1.79-1.59,3.31-1.19,5.32-1.38,5.32-1.38c0,0,4.56-2.93,5.36-1.9"/>
  <path class="cls-10" d="M187.83,405.59s4.54,2.04,6.71,2.25c.24.02.44.02.62,0,1.74-.26,7.36-1.66,9.01-4.4"/>
  <path class="cls-10" d="M194.78,407.86s8.69-5.21,8.8-5.65"/>
  <polyline class="cls-10" points="187.38 407.88 195.34 411.37 197.89 417.55"/>
  <path class="cls-10" d="M200.39,406.25s.77,1.47,4.14,1.4c0,0,2.18.74,3.04,2.19s2.25,1.08,2.25,1.08"/>
  <polyline class="cls-10" points="209.82 407.29 209.77 412.14 205.91 417.28"/>
  <path class="cls-10" d="M217.25,411.5c.08-.21-4.23,5.15-4.96,5.65"/>
  <path class="cls-10" d="M215.32,414.01s.2,2.09,2.94-.05c0,0,6.61.26,8.35-.68"/>
  <path class="cls-10" d="M187.02,415.79s16.56,4.24,42.31-.39"/>
  <path class="cls-11" d="M230.73,406.53s1.06-5.35,1.1-5.17-.61-2.68,2.07-2.84c2.68-.16,5.95-1.11,5.95-1.11,0,0,3.29-2.37,4.72-1.5s2.17,1.45,2.33,3.81c0,0,.08,1.13-.41,1.48s1.59,2.49,1.59,2.49l10.57,6.18,1.95.89s11.8.83,11.44,4.01c0,0,.83,1.8-.02,2.49,0,0-9.09,2.11-12.57,1.93l-11.72.33-17.51-1.08s-.9-1.01-.16-3.4c0,0,.06-7.75.66-8.51Z"/>
  <path class="cls-10" d="M231.92,401.83s1.79-1.59,3.31-1.19,5.32-1.38,5.32-1.38c0,0,4.56-2.93,5.36-1.9"/>
  <path class="cls-10" d="M230.83,404.87s4.54,2.04,6.71,2.25c.24.02.44.02.62,0,1.74-.26,7.36-1.66,9.01-4.4"/>
  <path class="cls-10" d="M237.79,407.13s8.69-5.21,8.8-5.65"/>
  <polyline class="cls-10" points="230.38 407.16 238.35 410.64 240.9 416.83"/>
  <path class="cls-10" d="M243.4,405.53s.77,1.47,4.14,1.4c0,0,2.18.74,3.04,2.19s2.25,1.08,2.25,1.08"/>
  <polyline class="cls-10" points="252.82 406.57 252.77 411.42 248.92 416.56"/>
  <path class="cls-10" d="M260.26,410.78c.08-.21-4.23,5.15-4.96,5.65"/>
  <path class="cls-10" d="M258.32,413.29s.2,2.09,2.94-.05c0,0,6.61.26,8.35-.68"/>
  <path class="cls-10" d="M230.02,415.07s16.56,4.24,42.31-.39"/>
  <path class="cls-5" d="M219.26,297.31c-6.84,2.26-8.21,100.79-8.21,100.79-13.69,4.53-26.01-1.13-26.01-1.13-4.11-83.8,5.47-134.76,5.47-134.76h28.04l.7,35.11Z"/>
  <polyline class="cls-5" points="204.9 262.21 204.9 269.57 206.8 269.57 207.32 262.21"/>
  <line class="cls-5" x1="189.62" y1="267.74" x2="219.26" y2="268.32"/>
  <polyline class="cls-5" points="197.47 268.32 186.68 293.05 193.32 267.81"/>
  <polyline class="cls-5" points="185.32 311.22 197.98 311.22 197.98 342.27 184.02 342.27"/>
  <line class="cls-5" x1="184.83" y1="320.25" x2="197.69" y2="320.25"/>
  <path class="cls-5" d="M211.05,398.1l1.37-.18v5.85c-12.32,3.4-27.37-.55-27.37-.55v-6.24s13,5.1,26.01,1.13Z"/>
  <path class="cls-5" d="M218.24,297.31c6.84,2.26,8.21,100.79,8.21,100.79,13.69,4.53,26.01-1.13,26.01-1.13,4.11-83.8-5.47-134.76-5.47-134.76h-14.39s-13.66,0-13.66,0l-.7,35.11Z"/>
  <polyline class="cls-5" points="232.59 262.21 232.59 269.57 230.69 269.57 230.17 262.21"/>
  <line class="cls-5" x1="247.88" y1="267.74" x2="218.24" y2="268.32"/>
  <polyline class="cls-5" points="240.03 268.32 250.82 293.05 244.17 267.81"/>
  <polyline class="cls-5" points="252.18 311.22 240.03 311.22 240.03 342.27 253.48 342.27"/>
  <line class="cls-5" x1="252.66" y1="320.25" x2="240.03" y2="320.25"/>
  <path class="cls-5" d="M252.45,396.97v6.24s-15.06,3.95-27.37.55v-5.85s1.37.18,1.37.18c0,0,11.93,4.08,26.01-1.13Z"/>
  <path class="cls-5" d="M223.92,268.32v16.16s.81,6.09-4.66,4.36"/>
  <ellipse class="cls-5" cx="222" cy="265.61" rx="1.37" ry="1.13"/>
  <path class="cls-3" d="M246.15,207.68l.11-29.66,10.12-16.59-23.47-9.28c-16.17,21.59-26.59-1.03-26.06,0l-28.18,12.68,13.39,13.79,1.02,16.82-2.35,66.36h56.11l-.69-54.12"/>
  <g>
    <polygon class="cls-3" points="178.37 197.54 178.37 199.72 192.85 204.52 192.85 202.66 178.37 197.54"/>
    <g>
      <path class="cls-3" d="M178.62,165.43s-4.62,19.8-.25,32.11l14.48,5.12.19-8.27-.68-15.37-13.75-13.59Z"/>
      <rect class="cls-14" x="178.85" y="165.37" width="15.44" height="13.65"/>
    </g>
  </g>
  <g>
    <polygon class="cls-3" points="246.08 200.9 245.88 203.22 260.32 200.28 260.32 197.87 246.08 200.9"/>
    <g>
      <path class="cls-3" d="M256.33,162.04s12.1,14.23,3.99,35.83l-14.24,3.03.12-22.35,10.12-16.51Z"/>
      <polygon class="cls-14" points="243.73 176.12 248.05 180.79 257.75 164.59 256.31 162.2 253.89 161.23 243.73 176.12"/>
    </g>
  </g>
</svg>