<?xml version="1.0" encoding="UTF-8"?>
<svg id="Camisa" xmlns="http://www.w3.org/2000/svg" version="1.1" viewBox="0 0 205 267">
  <defs>
    <style>
      .cls-1 {
        fill: #000;
      }

      .cls-1, .cls-2, .cls-3, .cls-4, .cls-5, .cls-6 {
        stroke: #000;
        stroke-miterlimit: 10;
      }

      .cls-2 {
        fill: #15151c;
      }

      .cls-3 {
        fill: #fff;
      }

      .cls-4 {
        fill: #252528;
      }

      .cls-5 {
        fill: #252526;
      }

      .cls-6 {
        fill: #0d0d0f;
      }
    </style>
  </defs>
  <path class="cls-2" d="M35.3,67.06"/>
  <path class="cls-2" d="M174.93,67.06"/>
  <path class="cls-5" d="M148.28,96.43c-1.83,2.29,11.89-3.56,9.85-1.59-.02.02-.03.06,0,.08.92.71,15.46,11.36,16.46,12.86,0,0,3.1,3.1,8.25,6.19,0,0,17.02,11.35,17.02,37.66,0,0,8.77,10.83,12.38,28.89,0,0,4.13,10.32,7.22,12.38,0,0,9.29,22.7,9.29,30.95,0,0-1.55,25.28,1.03,30.95,0,0,3.1,22.7,2.06,31.47,0,0,1.55,9.8,2.06,12.9,0,0,1.03,6.71-1.55,11.87l-.52,12.38s-5.16,8.77-7.22,10.32c0,0-8.25,10.83-14.44,9.29,0,0-6.19,3.61-10.83,2.58,0,0-4.64.52-.52-2.58,0,0,9.8-10.32,11.87-20.64l.52-14.96s-4.13-20.12-12.9-9.8c0,0-3.61,5.16-2.58,10.83,0,0-1.55,5.67-3.61,6.71s0,7.74,1.03,7.74c0,0-3.61,2.58-6.71-7.74v-8.25s-3.61-3.61,1.03-8.77c0,0,4.13-8.77,3.61-12.9,0,0,1.03-7.74,9.29-12.9,0,0,4.13-5.67,0-16.51-4.13-10.83-12.9-22.7-12.9-22.7,0,0-3.61-12.9-3.61-19.09s-1.55-12.38-1.55-12.38c0,0-14.44-14.96-15.99-22.7,0,0-3.61,12.9-6.71,13.93l.52,23.73s3.61,7.74,4.64,19.09c0,0,15.47,21.69,14.44,36.63-2.58,37.66,1.55,30.95-2.58,37.66-4.13,6.71,0,0,0,0,0,0-2.06,14.44-14.44,29.92,0,0,3.61,23.21,16.51,30.44,0,0,5.16,1.55,6.71,5.67,0,0,2.58-4.13,10.83,7.22,0,0,3.61,4.13,4.64,10.32,0,0-5.16-3.61-9.8-3.61,0,0-7.22,2.06-9.29,0,0,0,1.03,6.19,0,8.25,0,0-2.06-1.03-5.67-4.13,0,0-8.77.52-11.35-.52,0,0-6.71-3.1-6.71-4.13s0-.52,0-.52c0,0,1.03,8.25-1.55,10.83,0,0-3.61-1.55-6.19-5.67,0,0-5.67,2.06-10.32-4.13,0,0-1.55-3.61-1.03-4.64,0,0-4.13-2.06-3.61-5.67l.52-18.06s-1.55-10.32-3.61-11.35c0,0-2.06-3.1,1.03-7.22,0,0,3.61-8.25,0-13.41,0,0-5.67-10.32.52-23.21,0,0,3.3-3.83,3.2-9.4,0,0-7.84-9.69-11.45-12.27,0,0-12.9-12.38-11.87-16.51,0,0-6.71,5.67-19.09,0,0,0-2.06,6.19-9.8,14.96,0,0-10.32,12.9-14.44,15.99,0,0,5.67,7.22,6.19,14.96.52,7.74-3.61,19.6-3.61,19.6,0,0,.52,5.16,3.61,9.8,0,0,0,5.67-3.61,13.93,0,0-4.13,7.22-1.03,18.06,0,0,.52,5.16,0,7.74,0,0-4.13,2.58-7.22,6.19,0,0-1.03,2.58-8.77,3.61,0,0-4.13,4.64-5.67,5.16s-2.58-10.83-2.58-10.83c0,0-2.06,5.16-11.35,5.16,0,0-3.1.52-4.64,0l-5.16,5.16s-3.1-.52-1.03-8.77c0,0-5.16,5.67-9.29,1.03,0,0-3.1-1.03-6.71,1.55,0,0-4.64,4.13-4.13.52,0,0-2.07-8.25,8.25-12.9,0,0,3.1-6.19,8.77-4.13,0,0,2.06-4.13,9.8-4.64,0,0,15.99-17.54,14.96-31.47,0,0-10.83-10.83-13.93-22.7,0,0-2.58-11.87-4.13-13.93,0,0,0-23.21,1.55-30.44,0,0,3.61-15.48,18.57-36.63,0,0,2.12-3.15,4.1-8.29.91-2.36.54-4.61,2.09-8.22v-12.38s-.52-5.67-.52-14.96c0,0-2.11-2.26-3-4.85s-1.53-5.31-2.83-6.73c-.94-1.02-.91-1.33-1.9-.28-.73.77-2.82,5.23-4.74,8.27-.85,1.33-1.24,1.76-2.19,3.26-3.88,6.18-8.78,11.56-10.1,13.75-1.55,2.58-1.77,5.18-1.97,7.91-.1,1.38-.1-.17-.1,3.96,0,0,1.03,14.44-9.8,27.34,0,0-17.02,23.21-6.19,31.47,0,0,5.67,4.64,5.67,11.35,0,0,1.55,11.87,4.13,15.99l.52,12.38s-2.06,12.38-8.77,14.96c0,0,2.71-8.23.52-12.9,0,0-.86-15.26-8.94-17.69,0,0-16.34,2.21-6.02,30.07,0,0,1.03,10.83,8.25,14.96,0,0,2.58,2.58-4.64,2.06,0,0-5.8-.96-7.03-3.32,0,0-4.84,2.28-10.51-4.42,0,0-3.66-3.2-4.52-7.02-.05-.24-.1-.48-.13-.72-.52-4.13-6.19-9.8-6.19-9.8,0,0,0-19.09,1.55-21.67s4.13-23.21,3.61-24.25-1.55-8.77,2.58-20.64c0,0,0-37.66,8.25-51.07,8.25-13.41,13.41-23.21,12.9-27.86-.52-4.64,6.71-22.7,10.83-23.21,0,0,.52-34.05,25.28-42.3,0,0,9.29-9.8,16.51-12.38,7.22-2.58,92.34-1.55,92.34-1.55"/>
  <path class="cls-5" d="M65,106.64s-13.11,13.39,16.52,32.29"/>
  <path class="cls-5" d="M48.89,116.03s3.63-2.5,9.2,6.75"/>
  <path class="cls-5" d="M37.99,120.93s-4.24-.26-4.24,3.35"/>
  <path class="cls-5" d="M26.02,163.49s19.5-6.26,24.71-12.42"/>
  <path class="cls-5" d="M48.02,153.48s3.79,23.5,29.06,29.65"/>
  <path class="cls-5" d="M47.17,179.49s3.81-8.25,4.48-15.99"/>
  <path class="cls-5" d="M62.56,128.3s-1.72,15-8.04,18.13"/>
  <line class="cls-5" x1="56.65" y1="129.85" x2="56.65" y2="131.62"/>
  <path class="cls-5" d="M52.62,146.43s1.77-1.66,3.06-4.42"/>
  <line class="cls-5" x1="55.68" y1="131.62" x2="55.68" y2="132.95"/>
  <path class="cls-5" d="M142.79,110.62s5.49,9.84-5.86,17.69"/>
  <path class="cls-5" d="M121.91,138.92s3.16.69,4.71-1.56"/>
  <path class="cls-5" d="M129.3,135.6s9.66-1.81,11.22-3.98"/>
  <path class="cls-5" d="M142.79,129.85s6.01-.18,7.3-2.87"/>
  <path class="cls-5" d="M153.18,120.93s3.1-.77,3.23-4.9"/>
  <path class="cls-5" d="M160.93,116.03s9.9-5.67,12.82-1.55"/>
  <path class="cls-5" d="M153.18,132.95s-.4,8.22,1.74,9.06"/>
  <path class="cls-5" d="M156.41,136.48s-2.31,4.66,1.49,6.8"/>
  <path class="cls-5" d="M159.11,148.02s9.14,8.73,14.63,9.27c0,0,7.55,1.57,9.1,5.18"/>
  <path class="cls-5" d="M184.58,162.46s6.52,1.37,7.3,5.85"/>
  <path class="cls-5" d="M196.29,163.49s3.06-3.1,3.57-11.87"/>
  <path class="cls-5" d="M145.66,177.39s16.18-12.03,19.2-24.57"/>
  <path class="cls-5" d="M161.88,159.89s-.19,12.89,4.46,19.08"/>
  <path class="cls-5" d="M84.31,181.03s6.85-1.55,12.71-8"/>
  <line class="cls-5" x1="99.21" y1="157.29" x2="99.21" y2="161.25"/>
  <path class="cls-5" d="M107.19,157.56s-4.31,5.76-1.47,10.75"/>
  <path class="cls-5" d="M105.97,173.04s4.06,6.01,14.93,10.1"/>
  <path class="cls-5" d="M124.55,183.14s7.31,1.58,10.36,0"/>
  <line class="cls-5" x1="155.71" y1="156.38" x2="153.15" y2="161.25"/>
  <path class="cls-5" d="M177.5,151.63s-.18,1.87,3.1,1.19"/>
  <path class="cls-5" d="M14.15,152.66s1.18,9.41,3.94,12.44"/>
  <path class="cls-5" d="M-.81,329.61s4.68,2.58,7.24,0c0,0-1.08,4.3-6.22,4.73l-1.02-4.73Z"/>
  <path class="cls-5" d="M206.54,332.62s-5.64-.43-6.67-1.46c0,0-1.9,5.2,4.47,4.92l2.2-3.46Z"/>
  <path class="cls-5" d="M161.18,355.92s-.52,10.32,7.22,14.96c0,0,3.61,4.64,3.61,6.19,0,0,2.78,1.76,5.26,6.81"/>
  <path class="cls-5" d="M163.24,380.76s1.55-4.21,8.77-3.69"/>
  <path class="cls-5" d="M181.26,383.89s.04-5.27,4.16-7.85"/>
  <path class="cls-5" d="M179.23,374.49s4.56-1.55,5.38,0"/>
  <path class="cls-5" d="M138.99,385.32s1.03-9.8,8.77-9.29c0,0,7.61-3.12,9.74,11.34"/>
  <path class="cls-5" d="M162.21,385.84s-2.42,2.59-1.47,5.68"/>
  <line class="cls-5" x1="138.59" y1="376.04" x2="138.59" y2="379.51"/>
  <path class="cls-5" d="M150.34,369.33l1.03,3.61"/>
  <path class="cls-5" d="M151.38,368.74s.59,4.72,3.13,5.75"/>
  <path class="cls-5" d="M21.89,376.55s2.34-1.03,2.72,0"/>
  <path class="cls-5" d="M43.04,372.94s-2.64.88-6.21,3.38c-3.23,2.27-7.23,5.87-10.71,11.37"/>
  <path class="cls-5" d="M36.83,376.32s8.64-1.56,10.78,9.91"/>
  <path class="cls-5" d="M56.45,374.49s-8.74,4.4-6.69,11.74"/>
  <path class="cls-5" d="M40.98,368.82s8.77-6.19,9.29-16.51"/>
  <path class="cls-5" d="M56.45,368.82s-2.65,3.61-2.87,5.67"/>
  <path class="cls-5" d="M63.2,376.33s6.38,1.87,3.17,11.37"/>
  <line class="cls-5" x1="66.25" y1="370.88" x2="66.25" y2="375.49"/>
  <path class="cls-5" d="M66.25,360.56s1.03-6.71,3.1-9.29c0,0-1.55-5.16-6.19-7.74"/>
  <path class="cls-5" d="M71.41,338.9s0,3.61,2.06,6.19"/>
  <path class="cls-5" d="M60.58,341.47s-8.77.52-13.41-2.58"/>
  <path class="cls-5" d="M59.03,324.97s1.57,5.82,6.2,7.3"/>
  <path class="cls-5" d="M142.61,364.69s-3.1-10.32,2.06-17.54"/>
  <path class="cls-5" d="M149.31,344.57s6.84-1.55,8.84,0"/>
  <path class="cls-5" d="M152.49,341.44s6.11-.48,7.14-2.54"/>
  <path class="cls-5" d="M141.68,335.58s6.02-6.26,6.56-7.41"/>
  <line class="cls-5" x1="138.99" y1="338.45" x2="137.7" y2="340.17"/>
  <line class="cls-5" x1="136.41" y1="342.51" x2="135.71" y2="344.57"/>
  <line class="cls-5" x1="139.92" y1="344.57" x2="140.54" y2="346.12"/>
  <path class="cls-5" d="M136.41,349.07s0,2.28,1.29,2.76"/>
  <path class="cls-5" d="M163.24,327.55s1.55,0,2.06-2.06"/>
  <path class="cls-5" d="M157.05,315.16s3.1,4.13,5.16,3.61"/>
  <path class="cls-5" d="M148.25,314.69s2.61,1.51,1.58,3.57"/>
  <path class="cls-5" d="M137.06,298.1s3.19,3.21,4.62,8.07"/>
  <path class="cls-5" d="M142.61,299.69s4.64,4.13,4.64,7.74"/>
  <path class="cls-5" d="M153.73,303.56s3.45,1.95,4.42.85,5.09-4.72,5.09-4.72"/>
  <path class="cls-5" d="M164.27,317.67s8.77-1.99,9.29-17.47"/>
  <path class="cls-5" d="M170.54,314.69"/>
  <path class="cls-5" d="M59.03,314.58s5.16-5.6,5.16-8.18"/>
  <path class="cls-5" d="M66.25,304.4s1.43-2.86,4.59-5.6"/>
  <path class="cls-5" d="M59.03,304.4s5.69-6.04,6.2-11.05"/>
  <path class="cls-5" d="M66.77,290.92s.52-8.7,2.58-10.28"/>
  <path class="cls-5" d="M36.11,293.35s1.25-5.01,1.25-9.14"/>
  <path class="cls-5" d="M34.79,312.59s4.64,3.61,6.19,3.61"/>
  <path class="cls-5" d="M39.94,308.97s4.64,5.67,7.74,5.67"/>
  <path class="cls-5" d="M45.18,316.2s5.01-3.1,6.08-4.39"/>
  <path class="cls-5" d="M-4.23,343.32s-7.45-6.31-6.92-8.98-4.31-9.37-4.31-9.37l1.23-17.54s-4.13-.52,0-12.38"/>
  <path class="cls-5" d="M-22.86,324.46l1.93-16.52s-4.13-4.64-3.1-8.25"/>
  <line class="cls-5" x1="-20.93" y1="297.72" x2="-20.1" y2="295.05"/>
  <path class="cls-5" d="M-20.1,290.92s2.27-8.77,1.23-10.32"/>
  <path class="cls-5" d="M-13.63,293.35s1.62-17.5,0-19.51"/>
  <path class="cls-5" d="M-8.33,324.46s2.87-1.04,2.87-2.59"/>
  <path class="cls-5" d="M-6.13,323.17s2.48,7.05,2.61,8.81"/>
  <line class="cls-5" x1="21.89" y1="209.67" x2="32.29" y2="201.85"/>
  <path class="cls-5" d="M186.46,306.91s5.45,1.03,4.53-3.35"/>
  <path class="cls-5" d="M221.06,300.2s5.71,6.12,0,13.38c0,0-2.62,26.86-10.87,29.44"/>
  <path class="cls-5" d="M229.27,288.34v11.87s-1.02,2.2-1.55,9.8c-1.55,22.18,1.03,19.09-1.55,22.18"/>
  <path class="cls-5" d="M220.5,272.35s.51,17.47,3.09,25.76"/>
  <path class="cls-5" d="M182.33,201.67s3.61,6.19,7.74,5.16"/>
  <path class="cls-5" d="M186.2,207.9s1.81,5.12,6.96,5.12"/>
  <path class="cls-5" d="M193.16,206.95s13.41-3.73,1.55-31.07"/>
  <path class="cls-5" d="M202.96,202.7s2.58-8.77,4.64-8.77"/>
  <path class="cls-5" d="M11.05,208.89s4.13,2.58,3.1,10.06"/>
  <path class="cls-5" d="M16.12,173.04s-5.93,14.78-3.44,22.48c0,0,2.83,5.64,3.44,11.05"/>
  <path class="cls-5" d="M-10.14,243.27s-.43,17.87-2.77,23.21"/>
  <path class="cls-5" d="M60.58,186.19s11.35,11.35,13.41,11.35c0,0,3.39,4.5,9.54,0,0,0,8.66-8.65,13.49-6.13"/>
  <path class="cls-5" d="M108.08,191.41s2.54-2.2,16.47,9.19c0,0,12.11,3.13,14.82-1.77,0,0,3.23-6,7.88-5.96"/>
  <line class="cls-5" x1="68.06" y1="229.79" x2="80.18" y2="248.62"/>
  <path class="cls-5" d="M129.71,251.71s1.25-8.62,5.79-8.44"/>
  <path class="cls-5" d="M141.68,237.97s4.98-5.27,6.56-3.76"/>
  <path class="cls-6" d="M13.63,379.13s11.35.52,2.58,10.83c0,0-4.8-.81-7.82,2.43,0,0-4.77,3.6-3.12-3.29,0,0,.1-6.88,8.36-9.98Z"/>
  <path class="cls-6" d="M33.46,379.13l-7.96,9.29s-2.58,7.22,1.03,9.29l5.16-5.16,2.87.2s7.45-5.35,4.87-10c0,0-.59-5.16-5.97-3.61Z"/>
  <path class="cls-6" d="M60.58,381.71s-8.01-6.22-12.52,9.01c0,0,.21,9.93,3.53,6.65,0,0,10.02-8.95,10.02-13.6,0,0-.52-1.55-1.03-2.06Z"/>
  <path class="cls-6" d="M148.28,393.58s-4.13-8.25,1.55-12.38c0,0,5.16-1.55,8.25,7.74,0,0,.63,9.87-2,10.61,0,0-6.25-4.42-5.73-5.45,0,0-1.55.52-2.06-.52Z"/>
  <path class="cls-6" d="M167.88,382.75s-2.89,5.88,5.52,11.45l2.73-.1,5.26,3.9s1.96-3.38.41-8.02c0,0-6.19-10-9.29-8.87,0,0-4.13-1.45-4.64,1.64Z"/>
  <path class="cls-6" d="M193.93,380.28s-6.44-3.21-8.5,3.5c0,0-.88,4.49,6.78,5.6,0,0,7.15,1.62,8.7,4.2,0,0-1.56-9.58-6.97-13.3Z"/>
  <path class="cls-4" d="M39.43,4.09s5.67-2.06,17.54,13.93c0,0,12.38,18.06,13.93,19.09,0,0,6.19,11.35,11.35,12.38,0,0,6.71,4.64,7.74,6.71,0,0,12.53-6.71,28.71,0,0,0,10.5-4.64,14.63-11.87,0,0,8.92-9.37,11.68-14.23,0,0,8.44-13.63,27.53-22.4,0,0-14.44,17.54-17.02,27.34,0,0-6.19,20.12-13.41,29.41,0,0-3.1,5.16-5.16,8.25,0,0,2.58,3.1,2.58,9.29,0,0,7.74-8.25,17.54-10.32,0,0,10.32-6.19,19.09-6.19,0,0-3.84,11.51-12.38,22.2,0,0-12.9,16.49-28.38,19.07,0,0,.52,20.64-11.87,28.89,0,0-7.74,18.06-18.06,18.57s-22.7-4.64-24.25-17.02c0,0-9.29-11.87-8.25-19.6,0,0,0-10.83-5.67-13.41,0,0-20.12-3.61-31.98-38.69,0,0,14.96,7.74,17.54,7.22s14.96,4.64,17.02,8.77c0,0,4.64-4.64-3.61-17.54,0,0-12.38-14.96-11.87-20.64.52-5.67-3.1-28.37-8.77-30.95l-6.19-8.25Z"/>
  <path class="cls-4" d="M42.01,72.18s25.28,9.8,28.89,29.41c0,0,1.55,6.19,3.61,6.71,0,0,2.06,2.58,2.58,4.64"/>
  <path class="cls-4" d="M170.46,69.09s-22.99,10.9-32.5,29.92c0,0-4.13,11.87-8.25,15.48"/>
  <path class="cls-4" d="M47.28,79.12s-.78-3.27,1.62-3.56"/>
  <path class="cls-4" d="M50.78,84.05s-.78-5.21,3.74-4.93"/>
  <path class="cls-4" d="M57.23,91.79s-2.32-8.18,2.32-9.25"/>
  <path class="cls-4" d="M67.8,96.95s-8.11-2.03-4.83-9.78"/>
  <line class="cls-4" x1="62.19" y1="94.92" x2="66.25" y2="97.98"/>
  <path class="cls-4" d="M142.79,97.98s4.56-3.25,2.19-9.36"/>
  <path class="cls-4" d="M147.87,93.3s3.72-3.06,0-9.25"/>
  <path class="cls-4" d="M155.83,88.67s5.2-2.63-.92-9.56"/>
  <path class="cls-4" d="M163.76,80.44s.01-4.77-2.83-5.74"/>
  <path class="cls-4" d="M167.55,75.56s-.55-2.86-2.69-3.38"/>
  <path class="cls-4" d="M52.62,21.52s1.12-.63,4.02,0"/>
  <path class="cls-4" d="M64.22,36.33s3.06-1.73,3.58,1.33"/>
  <path class="cls-4" d="M59.55,48.49s3.1-.04,3.61-4.16"/>
  <path class="cls-4" d="M66.01,53.57s1.27-8.22,3.34-8.22h3.35"/>
  <line class="cls-4" x1="69.95" y1="71.11" x2="75.36" y2="79.12"/>
  <path class="cls-4" d="M72.7,67.95s1.29,2.97,1.55,5.93"/>
  <line class="cls-4" x1="75.36" y1="69.09" x2="75.36" y2="66.4"/>
  <path class="cls-4" d="M86.63,67.74s-.77-2.78,1.29-2.27"/>
  <line class="cls-4" x1="92.56" y1="59.29" x2="89.99" y2="56.19"/>
  <line class="cls-4" x1="115.82" y1="59.29" x2="118.69" y2="56.19"/>
  <path class="cls-4" d="M131.73,75.56s2.62,1.26,5.2-2.86"/>
  <path class="cls-4" d="M69.95,87.16s.28-4.59,1.65-4.62"/>
  <path class="cls-4" d="M73.48,84.85s0,7.57,3.61,9.58"/>
  <path class="cls-4" d="M89.99,80.44s4.13,2.41,2.58,9.2c0,0,1.62.95,3.13,0"/>
  <path class="cls-4" d="M120.94,66.51"/>
  <path class="cls-4" d="M114.93,82.54s-2.98.3-1.33,2.71"/>
  <path class="cls-4" d="M119.8,79.11s2.98-4.45,3.1-3.37l.11,1.08h0"/>
  <line class="cls-4" x1="139.47" y1="85.25" x2="139.51" y2="81.99"/>
  <path class="cls-4" d="M136.93,84.05s-.22,3.13-1.66,3.11"/>
  <path class="cls-4" d="M132.84,89.64s-1.58,4.13-4.42,3.66-2.65,4.68-2.65,4.68"/>
  <line class="cls-4" x1="125.76" y1="100.67" x2="124.55" y2="102.1"/>
  <path class="cls-4" d="M124.55,103.54s4.64,10.72,0,20.12"/>
  <path class="cls-4" d="M78.64,116.03s3.1,7.22,1.03,9.8"/>
  <line class="cls-4" x1="80.38" y1="107.96" x2="80.38" y2="110.62"/>
  <line class="cls-4" x1="77.09" y1="106.64" x2="78.64" y2="109.29"/>
  <path class="cls-4" d="M80.38,102.1s-.71-10.68-2.51-12.05"/>
  <path class="cls-4" d="M87.21,103.54s1.23-5.56,4.07-3.76"/>
  <path class="cls-4" d="M102.77,94.92s2.25,3.36-.88,6.56"/>
  <path class="cls-4" d="M87.92,143.12s1.55.77,3.35,0"/>
  <path class="cls-4" d="M95.7,142.01s2.73,4.11,7.02,1.45"/>
  <path class="cls-4" d="M109.18,143.46s.41,3.18,2.21,0"/>
  <path class="cls-4" d="M116.48,103.54s5.64-.18,2.21-2.87"/>
  <line class="cls-4" x1="109.18" y1="99.42" x2="110.29" y2="101.39"/>
  <path class="cls-4" d="M111.39,98.2"/>
  <path class="cls-1" d="M88.32,104.41s-13.3,15.84-.92,29.72l.92-2.36.69.25s4.07,2.06,5.1,1.03c0,0,4.04.83,4.86.42,0,0,10.09,2.43,11.38,1.78l5.14.11s10.05-7.86,3.89-26.55c0,0-5.75-.62-7,.98,0,0-3.83-4.59-6.15-4.59l-8.89,5.39-.14-4.87s-2.19,2.47-4.45,3.3-.27-.17-.27-.17c0,0-4.28.38-4.16.94,0,0-.63-4.62,0-5.38Z"/>
  <path class="cls-3" d="M87.41,126.35s-4.64,2.16,0,7.78c0,0,2.06-3.14,0-7.78Z"/>
  <path class="cls-3" d="M92.05,127.38s-5.67,2.58-1.03,9.29c0,0,3.1-.52,1.03-9.29Z"/>
  <path class="cls-3" d="M97.21,127.9s-5.67,3.61-1.55,10.32c0,0,4.13-2.58,1.55-10.32Z"/>
  <path class="cls-3" d="M101.86,127.9s-6.48,8.25-.66,10.32c0,0,3.25-3.61.66-10.32Z"/>
  <path class="cls-3" d="M106.59,127.9s-6.14,4.64-1.82,10.32c0,0,3.98.52,1.82-10.32Z"/>
  <path class="cls-3" d="M111.65,130.48s-4.85,2.59-2.16,7.74c0,0,3.71-.52,2.16-7.74Z"/>
  <path class="cls-3" d="M114.46,127.9s-2.48,3.61-.58,8.77c0,0,4.94-4.13.58-8.77Z"/>
  <path class="cls-3" d="M87.92,105.2s-3.73,3.3-1.09,8.87c0,0,.98,2.06,2.84-4.44,0,0-2.27-2.89-1.75-4.44Z"/>
  <path class="cls-3" d="M91.91,105.2s-3.75,2.23,0,7.05c0,0,.74,4.3,2.25.69,0,0,2.26-6.71-2.25-7.74Z"/>
  <path class="cls-3" d="M97.21,104.17s-3.45,4.64,2.66,8.77c0,0,1.69-.52,1.58-7.74,0,0-.11-1.55-1.66,1.03l-2.58-2.06Z"/>
  <path class="cls-3" d="M102,105.2s1.96,8.56,3.23,9.18c0,0,4.09-5.57,3.45-10.21,0,0-2.14-.22-3.45,2.47,0,0-2.05-.41-3.23-1.44Z"/>
  <path class="cls-3" d="M110.35,107.96v6.42s3.29-3.43,2.81-7.86c0,0,.02-5.6-2.81,1.44Z"/>
  <path class="cls-3" d="M114.16,108.55s-.52,9.47,2.1,5.38c0,0,2.62-3.57,2.1-5.64,0,0-3.24-1.03-4.2.26Z"/>
</svg>