<?xml version="1.0" encoding="UTF-8"?>
<svg id="Camisa" xmlns="http://www.w3.org/2000/svg" version="1.1" viewBox="0 0 251 267">
  <defs>
    <style>
      .cls-1 {
        fill: #000;
      }

      .cls-1, .cls-2, .cls-3, .cls-4, .cls-5 {
        stroke: #000;
        stroke-miterlimit: 10;
      }

      .cls-2 {
        fill: #15151c;
      }

      .cls-3 {
        fill: #fff;
      }

      .cls-4 {
        fill: #252528;
      }

      .cls-5 {
        fill: #252526;
      }
    </style>
  </defs>
  <path class="cls-2" d="M75.29,226.27l-14.24,37.15s-4.95-17.96-26.01-5.57l-42.29-13s-22.12-8.05-30.79,34.06l-1.86,25.39s-7.43-29.1,0-69.36c0,0,17.96-69.98,31.58-91.03,0,0,29.72-53.87,31.58-58.21,0,0,12.38-38.39,30.34-9.29l45.21,65.64-23.53,84.22Z"/>
  <path class="cls-2" d="M-36.18,260.95S-21.93,181.69.36,142.05c0,0,33.44-51.4,35.92-61.92"/>
  <path class="cls-2" d="M35.55,92.17s-13.51,50.5-14.75,65.36"/>
  <path class="cls-2" d="M44.33,77.7"/>
  <path class="cls-2" d="M30.08,140.82s1.64-25.96,5.46-34.66c0,0,6.3-16.74,5.06-20.46,0,0,.62-4.87,3.72-8.01"/>
  <path class="cls-2" d="M44.33,80.13s3.1,27.87,8.67,40.87"/>
  <path class="cls-2" d="M180.97,226.27l13.21,23.53s15.48-9.91,30.96,17.96l38.36-22.91s22.12-8.05,30.79,34.06l1.86,25.39s7.43-29.1,0-69.36c0,0-17.96-69.98-31.58-91.03,0,0-29.72-53.87-31.58-58.21,0,0-12.38-38.39-30.34-9.29l-45.21,65.64,23.53,84.22Z"/>
  <path class="cls-2" d="M292.44,260.95s-14.24-79.26-36.54-118.9c0,0-33.44-51.4-35.92-61.92"/>
  <path class="cls-2" d="M220.72,92.17s13.51,50.5,14.75,65.36"/>
  <path class="cls-2" d="M211.94,77.7"/>
  <path class="cls-2" d="M226.18,140.82s-1.64-25.96-5.46-34.66c0,0-6.3-16.74-5.06-20.46,0,0-.62-4.87-3.72-8.01"/>
  <path class="cls-2" d="M211.94,80.13s-3.1,27.87-8.67,40.87"/>
  <path class="cls-5" d="M179.94,112.95c-2.2,2.75,14.27-4.28,11.82-1.91-.03.03-.03.07,0,.1,1.1.85,18.56,13.64,19.76,15.44,0,0,3.72,3.72,9.91,7.43,0,0,20.44,13.62,20.44,45.21,0,0,10.53,13,14.86,34.68,0,0,4.95,12.38,8.67,14.86,0,0,11.15,27.25,11.15,37.15,0,0-1.86,30.34,1.24,37.15,0,0,3.72,27.25,2.48,37.77,0,0,1.86,11.77,2.48,15.48,0,0,1.24,8.05-1.86,14.24l-.62,14.86s-6.19,10.53-8.67,12.38c0,0-9.91,13-17.34,11.15,0,0-7.43,4.33-13,3.1,0,0-5.57.62-.62-3.1,0,0,11.77-12.38,14.24-24.77l.62-17.96s-4.95-24.15-15.48-11.77c0,0-4.33,6.19-3.1,13,0,0-1.86,6.81-4.33,8.05s0,9.29,1.24,9.29c0,0-4.33,3.1-8.05-9.29v-9.91s-4.33-4.33,1.24-10.53c0,0,4.95-10.53,4.33-15.48,0,0,1.24-9.29,11.15-15.48,0,0,4.95-6.81,0-19.82-4.95-13-15.48-27.25-15.48-27.25,0,0-4.33-15.48-4.33-22.91s-1.86-14.86-1.86-14.86c0,0-17.34-17.96-19.2-27.25,0,0-4.33,15.48-8.05,16.72l.62,28.49s4.33,9.29,5.57,22.91c0,0,18.57,26.04,17.34,43.97-3.1,45.21,1.86,37.15-3.1,45.21-4.95,8.05,0,0,0,0,0,0-2.48,17.34-17.34,35.92,0,0,4.33,27.87,19.82,36.54,0,0,6.19,1.86,8.05,6.81,0,0,3.1-4.95,13,8.67,0,0,4.33,4.95,5.57,12.38,0,0-6.19-4.33-11.77-4.33,0,0-8.67,2.48-11.15,0,0,0,1.24,7.43,0,9.91,0,0-2.48-1.24-6.81-4.95,0,0-10.53.62-13.62-.62,0,0-8.05-3.72-8.05-4.95s0-.62,0-.62c0,0,1.24,9.91-1.86,13,0,0-4.33-1.86-7.43-6.81,0,0-6.81,2.48-12.38-4.95,0,0-1.86-4.33-1.24-5.57,0,0-4.95-2.48-4.33-6.81l.62-21.67s-1.86-12.38-4.33-13.62c0,0-2.48-3.72,1.24-8.67,0,0,4.33-9.91,0-16.1,0,0-6.81-12.38.62-27.87,0,0,3.96-4.6,3.84-11.28,0,0-9.41-11.63-13.75-14.73,0,0-15.48-14.86-14.24-19.82,0,0-8.05,6.81-22.91,0,0,0-2.48,7.43-11.77,17.96,0,0-12.38,15.48-17.34,19.2,0,0,6.81,8.67,7.43,17.96s-4.33,23.53-4.33,23.53c0,0,.62,6.19,4.33,11.77,0,0,0,6.81-4.33,16.72,0,0-4.95,8.67-1.24,21.67,0,0,.62,6.19,0,9.29,0,0-4.95,3.1-8.67,7.43,0,0-1.24,3.1-10.53,4.33,0,0-4.95,5.57-6.81,6.19s-3.1-13-3.1-13c0,0-2.48,6.19-13.62,6.19,0,0-3.72.62-5.57,0l-6.19,6.19s-3.72-.62-1.24-10.53c0,0-6.19,6.81-11.15,1.24,0,0-3.72-1.24-8.05,1.86,0,0-5.57,4.95-4.95.62,0,0-2.49-9.9,9.91-15.48,0,0,3.72-7.43,10.53-4.95,0,0,2.48-4.95,11.77-5.57,0,0,19.2-21.05,17.96-37.77,0,0-13-13-16.72-27.25,0,0-3.1-14.24-4.95-16.72,0,0,0-27.87,1.86-36.54,0,0,4.33-18.58,22.29-43.97,0,0,2.54-3.78,4.92-9.95,1.09-2.83.65-5.53,2.51-9.87v-14.86s-.62-6.81-.62-17.96c0,0-2.53-2.71-3.61-5.83s-1.84-6.37-3.4-8.08c-1.13-1.23-1.09-1.59-2.28-.33-.87.92-3.38,6.28-5.69,9.92-1.02,1.6-1.49,2.11-2.62,3.91-4.66,7.42-10.54,13.87-12.12,16.51-1.86,3.1-2.13,6.21-2.36,9.49-.12,1.65-.12-.2-.12,4.75,0,0,1.24,17.34-11.77,32.82,0,0-20.44,27.87-7.43,37.77,0,0,6.81,5.57,6.81,13.62,0,0,1.86,14.24,4.95,19.2l.62,14.86s-2.48,14.86-10.53,17.96c0,0,3.26-9.88.62-15.48,0,0-1.03-18.31-10.73-21.23,0,0-19.61,2.65-7.23,36.09,0,0,1.24,13,9.91,17.96,0,0,3.1,3.1-5.57,2.48,0,0-6.96-1.15-8.44-3.98,0,0-5.81,2.74-12.62-5.31,0,0-4.39-3.84-5.42-8.43-.06-.28-.11-.57-.15-.86-.62-4.95-7.43-11.77-7.43-11.77,0,0,0-22.91,1.86-26.01s4.95-27.87,4.33-29.1-1.86-10.53,3.1-24.77c0,0,0-45.21,9.91-61.31,9.91-16.1,16.1-27.87,15.48-33.44s8.05-27.25,13-27.87c0,0,.62-40.87,30.34-50.78,0,0,11.15-11.77,19.82-14.86s110.85-1.86,110.85-1.86"/>
  <path class="cls-5" d="M79.97,125.2s-15.73,16.07,19.82,38.76"/>
  <path class="cls-5" d="M60.64,136.48s4.35-3,11.05,8.1"/>
  <path class="cls-5" d="M47.56,142.36s-5.09-.31-5.09,4.03"/>
  <path class="cls-5" d="M33.18,193.45s23.41-7.52,29.66-14.91"/>
  <path class="cls-5" d="M59.6,181.43s4.54,28.21,34.89,35.59"/>
  <path class="cls-5" d="M58.57,212.65s4.57-9.91,5.38-19.2"/>
  <path class="cls-5" d="M77.04,151.21s-2.06,18-9.65,21.76"/>
  <line class="cls-5" x1="69.95" y1="153.07" x2="69.95" y2="155.19"/>
  <path class="cls-5" d="M65.12,172.97s2.12-1.99,3.67-5.31"/>
  <line class="cls-5" x1="68.79" y1="155.19" x2="68.79" y2="156.78"/>
  <path class="cls-5" d="M173.35,129.98s6.59,11.81-7.03,21.23"/>
  <path class="cls-5" d="M148.28,163.96s3.79.83,5.65-1.87"/>
  <path class="cls-5" d="M157.16,159.97s11.59-2.17,13.47-4.78"/>
  <path class="cls-5" d="M173.35,153.07s7.21-.22,8.76-3.45"/>
  <path class="cls-5" d="M185.83,142.36s3.72-.93,3.87-5.88"/>
  <path class="cls-5" d="M195.12,136.48s11.89-6.81,15.38-1.86"/>
  <path class="cls-5" d="M185.83,156.78s-.48,9.86,2.08,10.88"/>
  <path class="cls-5" d="M189.7,161.03s-2.77,5.59,1.79,8.17"/>
  <path class="cls-5" d="M192.95,174.87s10.97,10.48,17.56,11.12c0,0,9.07,1.88,10.93,6.21"/>
  <path class="cls-5" d="M223.51,192.21s7.83,1.65,8.76,7.02"/>
  <path class="cls-5" d="M237.58,193.45s3.67-3.72,4.29-14.24"/>
  <path class="cls-5" d="M176.8,210.13s19.42-14.44,23.05-29.49"/>
  <path class="cls-5" d="M196.27,189.13s-.22,15.47,5.35,22.9"/>
  <path class="cls-5" d="M103.16,214.51s8.23-1.86,15.26-9.6"/>
  <line class="cls-5" x1="121.04" y1="186" x2="121.04" y2="190.75"/>
  <path class="cls-5" d="M130.62,186.33s-5.18,6.91-1.77,12.9"/>
  <path class="cls-5" d="M129.16,204.91s4.87,7.21,17.92,12.12"/>
  <path class="cls-5" d="M151.46,217.03s8.78,1.9,12.44,0"/>
  <line class="cls-5" x1="188.86" y1="184.92" x2="185.79" y2="190.75"/>
  <path class="cls-5" d="M215.02,179.21s-.22,2.24,3.72,1.43"/>
  <path class="cls-5" d="M18.94,180.45s1.42,11.29,4.73,14.94"/>
  <line class="cls-5" x1="28.23" y1="248.88" x2="40.71" y2="239.49"/>
  <path class="cls-5" d="M220.81,239.28s4.33,7.43,9.29,6.19"/>
  <path class="cls-5" d="M225.46,246.75s2.17,6.15,8.36,6.15"/>
  <path class="cls-5" d="M233.82,245.61s16.1-4.47,1.86-37.29"/>
  <path class="cls-5" d="M245.58,240.52s3.1-10.53,5.57-10.53"/>
  <path class="cls-5" d="M15.22,247.95s4.95,3.1,3.72,12.08"/>
  <path class="cls-5" d="M21.3,204.91s-7.12,17.74-4.12,26.98c0,0,3.39,6.77,4.12,13.27"/>
  <path class="cls-5" d="M-10.22,289.21s-.51,21.45-3.33,27.87"/>
  <path class="cls-5" d="M74.67,220.7s13.62,13.62,16.1,13.62c0,0,4.07,5.4,11.46,0,0,0,10.39-10.39,16.19-7.36"/>
  <path class="cls-5" d="M131.69,226.96s3.05-2.64,19.77,11.03c0,0,14.53,3.76,17.79-2.12,0,0,3.88-7.2,9.45-7.16"/>
  <line class="cls-5" x1="83.65" y1="273.03" x2="98.2" y2="295.63"/>
  <path class="cls-5" d="M157.65,299.34s1.5-10.35,6.94-10.13"/>
  <path class="cls-5" d="M172.03,282.85s5.98-6.33,7.88-4.51"/>
  <path class="cls-4" d="M49.28,2.1s6.81-2.48,21.05,16.72c0,0,14.86,21.67,16.72,22.91,0,0,7.43,13.62,13.62,14.86,0,0,8.05,5.57,9.29,8.05,0,0,15.04-8.05,34.46,0,0,0,12.61-5.57,17.56-14.24,0,0,10.7-11.25,14.02-17.08,0,0,10.13-16.36,33.04-26.89,0,0-17.34,21.05-20.44,32.82,0,0-7.43,24.15-16.1,35.3,0,0-3.72,6.19-6.19,9.91,0,0,3.1,3.72,3.1,11.15,0,0,9.29-9.91,21.05-12.38,0,0,12.38-7.43,22.91-7.43,0,0-4.61,13.82-14.86,26.65,0,0-15.49,19.79-34.07,22.89,0,0,.62,24.77-14.24,34.68,0,0-9.29,21.67-21.67,22.29-12.38.62-27.25-5.57-29.1-20.44,0,0-11.15-14.24-9.91-23.53,0,0,0-13-6.81-16.1,0,0-24.15-4.33-38.39-46.44,0,0,17.96,9.29,21.05,8.67s17.96,5.57,20.44,10.53c0,0,5.57-5.57-4.33-21.05,0,0-14.86-17.96-14.24-24.77s-3.72-34.06-10.53-37.15l-7.43-9.91Z"/>
  <path class="cls-4" d="M52.38,83.85s30.34,11.77,34.68,35.3c0,0,1.86,7.43,4.33,8.05,0,0,2.48,3.1,3.1,5.57"/>
  <path class="cls-4" d="M206.57,80.13s-27.59,13.08-39.01,35.92c0,0-4.95,14.24-9.91,18.58"/>
  <path class="cls-4" d="M58.7,92.17s-.94-3.93,1.94-4.27"/>
  <path class="cls-4" d="M62.9,98.09s-.93-6.25,4.49-5.91"/>
  <path class="cls-4" d="M70.64,107.38s-2.79-9.82,2.79-11.1"/>
  <path class="cls-4" d="M83.34,113.57s-9.73-2.43-5.79-11.74"/>
  <line class="cls-4" x1="76.61" y1="111.14" x2="81.48" y2="114.81"/>
  <path class="cls-4" d="M173.35,114.81s5.47-3.9,2.63-11.24"/>
  <path class="cls-4" d="M179.46,109.19s4.47-3.67,0-11.1"/>
  <path class="cls-4" d="M189.01,103.64s6.25-3.16-1.1-11.48"/>
  <path class="cls-4" d="M198.52,93.75s.02-5.73-3.4-6.89"/>
  <path class="cls-4" d="M203.08,87.9s-.66-3.44-3.23-4.06"/>
  <path class="cls-4" d="M65.12,23.03s1.35-.75,4.83,0"/>
  <path class="cls-4" d="M79.04,40.81s3.68-2.08,4.29,1.59"/>
  <path class="cls-4" d="M73.43,55.4s3.72-.04,4.33-5"/>
  <path class="cls-4" d="M81.19,61.51s1.53-9.86,4.01-9.86h4.03"/>
  <line class="cls-4" x1="85.92" y1="82.55" x2="92.41" y2="92.17"/>
  <path class="cls-4" d="M89.22,78.76s1.55,3.57,1.86,7.12"/>
  <line class="cls-4" x1="92.41" y1="80.13" x2="92.41" y2="76.9"/>
  <path class="cls-4" d="M105.94,78.52s-.93-3.34,1.55-2.72"/>
  <line class="cls-4" x1="113.06" y1="68.36" x2="109.97" y2="64.65"/>
  <line class="cls-4" x1="140.97" y1="68.36" x2="144.42" y2="64.65"/>
  <path class="cls-4" d="M160.08,87.9s3.14,1.52,6.24-3.44"/>
  <path class="cls-4" d="M85.92,101.83s.34-5.51,1.98-5.55"/>
  <path class="cls-4" d="M90.15,99.05s0,9.09,4.33,11.49"/>
  <path class="cls-4" d="M109.97,93.75s4.95,2.89,3.1,11.04c0,0,1.95,1.14,3.76,0"/>
  <path class="cls-4" d="M147.12,77.03"/>
  <path class="cls-4" d="M139.91,96.27s-3.58.36-1.59,3.25"/>
  <path class="cls-4" d="M145.75,92.16s3.58-5.34,3.72-4.04l.13,1.3h0"/>
  <line class="cls-4" x1="169.37" y1="99.53" x2="169.42" y2="95.61"/>
  <path class="cls-4" d="M166.32,98.09s-.27,3.76-1.99,3.74"/>
  <path class="cls-4" d="M161.41,104.8s-1.9,4.96-5.31,4.39-3.18,5.62-3.18,5.62"/>
  <line class="cls-4" x1="152.91" y1="118.04" x2="151.46" y2="119.76"/>
  <path class="cls-4" d="M151.46,121.49s5.57,12.87,0,24.15"/>
  <path class="cls-4" d="M96.34,136.48s3.72,8.67,1.24,11.77"/>
  <line class="cls-4" x1="98.43" y1="126.79" x2="98.43" y2="129.98"/>
  <line class="cls-4" x1="94.49" y1="125.2" x2="96.34" y2="128.39"/>
  <path class="cls-4" d="M98.43,119.76s-.85-12.82-3.02-14.46"/>
  <path class="cls-4" d="M106.63,121.49s1.48-6.68,4.88-4.51"/>
  <path class="cls-4" d="M125.32,111.14s2.7,4.03-1.06,7.88"/>
  <path class="cls-4" d="M107.49,168.99s1.86.93,4.03,0"/>
  <path class="cls-4" d="M116.82,167.66s3.28,4.94,8.43,1.74"/>
  <path class="cls-4" d="M133.01,169.4s.49,3.82,2.65,0"/>
  <path class="cls-4" d="M141.77,121.49s6.77-.22,2.65-3.45"/>
  <line class="cls-4" x1="133.01" y1="116.54" x2="134.34" y2="118.9"/>
  <path class="cls-4" d="M135.67,115.08"/>
  <path class="cls-1" d="M107.97,122.53s-15.96,19.01-1.1,35.68l1.1-2.84.82.3s4.89,2.48,6.13,1.24c0,0,4.85,1,5.83.5,0,0,12.11,2.92,13.67,2.14l6.17.13s12.06-9.43,4.67-31.87c0,0-6.9-.74-8.4,1.18,0,0-4.6-5.51-7.38-5.51l-10.67,6.47-.17-5.85s-2.63,2.96-5.34,3.96-.33-.2-.33-.2c0,0-5.13.45-4.99,1.13,0,0-.76-5.54,0-6.45Z"/>
  <path class="cls-3" d="M106.87,148.87s-5.57,2.59,0,9.34c0,0,2.48-3.77,0-9.34Z"/>
  <path class="cls-3" d="M112.44,150.1s-6.81,3.1-1.24,11.15c0,0,3.72-.62,1.24-11.15Z"/>
  <path class="cls-3" d="M118.64,150.72s-6.81,4.33-1.86,12.38c0,0,4.95-3.1,1.86-12.38Z"/>
  <path class="cls-3" d="M124.22,150.72s-7.77,9.91-.8,12.38c0,0,3.9-4.33.8-12.38Z"/>
  <path class="cls-3" d="M129.89,150.72s-7.36,5.57-2.19,12.38c0,0,4.78.62,2.19-12.38Z"/>
  <path class="cls-3" d="M135.98,153.82s-5.82,3.11-2.6,9.29c0,0,4.46-.62,2.6-9.29Z"/>
  <path class="cls-3" d="M139.35,150.72s-2.97,4.33-.7,10.53c0,0,5.93-4.95.7-10.53Z"/>
  <path class="cls-3" d="M107.49,123.48s-4.47,3.96-1.31,10.65c0,0,1.17,2.48,3.41-5.32,0,0-2.72-3.47-2.1-5.32Z"/>
  <path class="cls-3" d="M112.28,123.48s-4.5,2.68,0,8.46c0,0,.89,5.16,2.7.83,0,0,2.71-8.05-2.7-9.29Z"/>
  <path class="cls-3" d="M118.64,122.24s-4.14,5.57,3.2,10.53c0,0,2.02-.62,1.89-9.29,0,0-.13-1.86-1.99,1.24l-3.1-2.48Z"/>
  <path class="cls-3" d="M124.39,123.48s2.35,10.28,3.87,11.02c0,0,4.91-6.69,4.15-12.26,0,0-2.57-.27-4.15,2.96,0,0-2.46-.49-3.87-1.73Z"/>
  <path class="cls-3" d="M134.42,126.79v7.7s3.95-4.12,3.38-9.43c0,0,.02-6.72-3.38,1.73Z"/>
  <path class="cls-3" d="M138.98,127.5s-.62,11.37,2.52,6.46c0,0,3.14-4.29,2.52-6.77,0,0-3.89-1.24-5.04.31Z"/>
</svg>