<?xml version="1.0" encoding="UTF-8"?>
<svg id="Capa_2" data-name="Capa 2" xmlns="http://www.w3.org/2000/svg" viewBox="0 0 92.61 241.31">
  <defs>
    <style>
      .cls-1 {
        fill: #eaeaea;
      }

      .cls-1, .cls-2, .cls-3, .cls-4, .cls-5, .cls-6, .cls-7, .cls-8, .cls-9 {
        stroke: #000;
        stroke-miterlimit: 10;
        stroke-width: .5px;
      }

      .cls-2 {
        fill: #f4f4f4;
      }

      .cls-3 {
        fill: none;
      }

      .cls-4 {
        fill: #000;
      }

      .cls-5 {
        fill: #f3c5a7;
      }

      .cls-6 {
        fill: #533e31;
      }

      .cls-7 {
        fill: #5c5750;
      }

      .cls-8 {
        fill: #5d564f;
      }

      .cls-9 {
        fill: #403a32;
      }
    </style>
  </defs>
  <g id="pieatras">
    <g id="PIE2">
      <g>
        <path class="cls-6" d="M48.27,211.26s-6.01,13.03-13.35,13.03c0,0-10.7,2.42-10.09,10.51,0,0,10.7,4.85,23.24,1.62,0,0,7.95-6.47,8.56-3.23,0,0-.31,3.23,4.59,1.62,0,0,4.59-1.62,5.2-3.23,0,0,0-13.74-1.83-15.76l-16.32-4.54Z"/>
        <path class="cls-3" d="M45.04,217.63s2.11.44,5.48,3.14"/>
        <path class="cls-3" d="M43.05,220.06s1.29.18,5.6,3.42"/>
        <path class="cls-3" d="M40.81,222.09s2.21-.67,5.04,3.79"/>
        <path class="cls-3" d="M36.76,223.97s3.67.63,6.57,6.74"/>
        <path class="cls-3" d="M25.22,231.6s-.09,3.2,9.39,2.79c0,0,9.79,2.22,15.9-2.12,0,0,3.67-2.94,9.79-2.63,0,0,5.31-.97,6.02-2.55"/>
      </g>
      <g id="PiernaIzquie">
        <path class="cls-8" d="M69.37,214.9c-12.84,10.51-21.41-2.42-21.41-2.42,3.67-8.49-1.53-41.22-1.53-41.22h16.82l6.12,43.65Z"/>
        <path class="cls-3" d="M49.8,208.43s2.75,3.98,4.59,3.81"/>
      </g>
    </g>
  </g>
  <g id="pieadelante">
    <g id="PIE1">
      <g>
        <path class="cls-6" d="M57.75,217.72s-4.89,10.1-12.23,10.1c0,0-10.7,2.42-10.09,10.51,0,0,10.7,4.85,23.24,1.62,0,0,7.95-6.47,8.56-3.23,0,0-.31,3.23,4.59,1.62,0,0,4.59-1.62,5.2-3.23,0,0,0-13.74-1.83-15.76l-17.43-1.62Z"/>
        <path class="cls-3" d="M55.63,221.17s2.11.44,5.48,3.14"/>
        <path class="cls-3" d="M53.64,223.6s1.29.18,5.6,3.42"/>
        <path class="cls-3" d="M51.4,225.63s2.21-.67,5.04,3.79"/>
        <path class="cls-3" d="M47.35,227.51s3.67.63,6.57,6.74"/>
        <path class="cls-3" d="M35.81,235.14s-.09,3.2,9.39,2.79c0,0,9.79,2.22,15.9-2.12,0,0,3.67-2.94,9.79-2.63,0,0,5.31-.97,6.02-2.55"/>
      </g>
      <g id="PiernaDere">
        <path class="cls-8" d="M55.79,216.11s1.22,8.89,20.18,2.83c0,0-1.14-41.22-2.71-46.88h-19.34l1.86,44.05Z"/>
        <path class="cls-3" d="M59.27,206.41s3.67,5.66,9.79,10.1"/>
      </g>
    </g>
  </g>
  <g id="manoadelante">
    <g id="BARZO2">
      <path class="cls-5" d="M31.14,129.1s-8.82,4.45-9.19,5.21-3.78,1.51-4.62,4.34c0,0-1.68,2.86-2.32,3.04,0,0-2.32,3.04-2.17,6.68-.85,2.22-.87,4.45,0,5.63.09.12.77,1.01,1.51.87,0,0,.35-.07,1.58-1.53h0c-.75,3.06-.46,5.45.4,5.95.15.09.64.31,1.61-.46.81,1.99,1.54,2.1,1.73,2.11,1.16.06,2.46-2.55,3.01-6.7-.15,3.57.65,6.03,1.63,6.25.82.18,1.67-1.23,1.9-1.62,0,0,.99-3.2.96-4.27l2.75-5.5s3.42-.26,7.77-10.81l-6.55-9.19Z"/>
      <polyline class="cls-3" points="19.85 141.4 16.34 146.3 15.92 153.34"/>
      <path class="cls-3" d="M22.12,144.65l-2.65,5.4s-.41,7.6-1.55,8.79"/>
      <path class="cls-3" d="M25.53,146.72s-2.99,4.96-2.86,7.53"/>
      <g>
        <path class="cls-1" d="M58.85,69.25s8.27-16.86,17.67-7.83c0,0,6.53,10.93-2.07,25.06l-8.89,20.93-3.17,6.45-12.37,15.07-10.97,12.21s-10.6-5.44-11.05-13.54l18.23-20.82s.2-3.23,2.06-4.21c0,0,9.41-32.15,10.55-33.33Z"/>
        <path class="cls-3" d="M49.19,101.88s2.42,1.26,7.39.72"/>
        <path class="cls-3" d="M47.49,105.35s2,3.81,6.6,4.02"/>
        <path class="cls-3" d="M54.67,70.43s-.21,7.72.6,9.18"/>
      </g>
    </g>
  </g>
  <g id="cuerpo">
    <g>
      <path class="cls-7" d="M54.08,47.49s-9.79,16.29-15.9,17.21c0,0-2.75,6.81-1.53,9.06,0,0-4.12,17.6-.99,22.92l21.63-44.68-3.21-4.52Z"/>
      <path class="cls-9" d="M40.27,73.73s-2.4,2.91.66,4.42c0,0-5.95,15.66-5.27,18.53,0,0-3.6-3.46.99-22.92l3.63-.03Z"/>
      <path class="cls-9" d="M36.65,73.76c.42.67,3.63-.03,3.63-.03,1.18-1.06,1.88-3.53,1.88-3.53-1.22-.31-1.88-6.3-1.88-6.3l-2.1.8s-2.75,7.12-1.53,9.06Z"/>
      <path class="cls-1" d="M58.05,39.93s5.5,4.59,5.5,5.2-.61,1.53-.61,1.53c0,0,19.88,7.64,25.38,24.77,0,0,4.59,9.79,3.98,40.98l-.92,51.68.97,21.08s-26.05,10.11-62.44.94l3.36-44.03s0-41.85,4.13-53.49c0,0,6.57-22.96,20.64-48.64Z"/>
      <path class="cls-3" d="M62.94,46.66s-7.34,5.2-9.79,20.18l-5.5,2.75,3.06,6.12s-11.31,16.51-14.07,27.83"/>
      <line class="cls-3" x1="35.12" y1="152.15" x2="34.21" y2="187.1"/>
      <ellipse class="cls-3" cx="37.56" cy="112.4" rx=".92" ry="2.45"/>
      <ellipse class="cls-3" cx="36.34" cy="132.28" rx="1.22" ry="2.45"/>
      <path class="cls-5" d="M9.43,19.13c1.29-2.56.61-3.62,2.25-6.68.69-1.29,1.41-2.31,2.03-3.1C20.01,1.32,32.08-1.59,44.6,1.4c2.41,1.07,8.07,4.01,11.62,10.4,6.86,12.34-.81,25.61-1.22,26.3.76,1.01,1.53,2.02,2.29,3.04,0,0-8.41,20.2-18.81,23.57-.07-.83-.32-1.41-.61-1.83-1.64-2.36-6.57-2.48-12.23-.31-1.14.42-2.97,1.13-5.2,2.14-3.16,1.43-4.15,2.12-5.81,2.14-1.09.01-2.92-.26-5.2-2.14-.16-1.03-.26-2.69.31-4.59.26-.86.59-1.57.92-2.14-.26-.18-1.48-1.06-1.83-2.75-.37-1.75.45-3.08.61-3.34-.22-.11-.54-.34-.84-.7-.38-.46-.69-1.16-.38-2.08,0,0-.61-3.98-1.83-3.67,0,0-4.25,1.62-5.67-.08-.18-.22-.5-.76-.44-1.75,0,0,.61-9.17,7.03-13.45-.96-1.43-2.07-3.59-1.53-5.81.54-2.2,2.14-2.16,3.67-5.2Z"/>
      <path class="cls-3" d="M51.32,42.07s2.14-.61,3.67-3.98"/>
      <path class="cls-3" d="M49.8,47.27s2.14.26,3.36,3.04"/>
      <path class="cls-3" d="M36.65,58.89s3.06,2.45,5.81,1.83"/>
      <line class="cls-3" x1="43.37" y1="47.88" x2="45.51" y2="53.38"/>
      <path class="cls-3" d="M43.37,51.48s2.14,2.6,2.14,4.85"/>
      <path class="cls-3" d="M10.96,20.66s4.28-1.83,7.64-1.22"/>
      <path class="cls-3" d="M10.96,19.32s1.53-4.16,9.17-2.63"/>
      <path class="cls-3" d="M33,20.66s-5.18,5.33,0,6.18"/>
      <path class="cls-3" d="M34.2,35.34s-1.19,5.11-3.5,5.92-1.76,6.01-1.76,6.01"/>
      <path class="cls-3" d="M24.74,58.89s3.04-2.75,3.04-6.12"/>
      <path class="cls-3" d="M17.67,41.3s6.44,5.18,6.29,12.6"/>
      <path class="cls-3" d="M6.37,45.43s2.14-1.53,3.98-.92c0,0,3.98-3.98-1.53-5.5"/>
      <path class="cls-3" d="M11.06,40.14s7.55,7.74,8.77,14.77"/>
      <path class="cls-3" d="M9.43,51.88s7.3.13,8.23,3.57"/>
      <path class="cls-3" d="M11.57,57.66s1.53,0,2.75,1.22"/>
      <path class="cls-3" d="M23.96,63.2s7.8-5.14,9.63-6.87c0,0,6.73-2.34,5.5-14.11"/>
      <path class="cls-3" d="M37.87,31.67c.58-4.28,3.78-7.41,7.34-7.64,3.5-.23,5.93,2.44,6.27,2.82.16.6,1.99,7.84-2.91,13.39-3.3,3.74-7.64,4.43-8.87,4.59"/>
      <path class="cls-3" d="M41.16,33.54c.76-4.22,3.89-6.38,5.89-5.85,1.38.37,2.38,2.06,2.75,3.96"/>
      <path class="cls-3" d="M42.46,32.05c.17.11,2.02,1.31,2.14,3.59.09,1.63-.74,3.19-2.14,4.07"/>
      <path class="cls-4" d="M11.74,24.45s5.65-2.57,8.4,1.1c0,0-2.12-.98-8.4-1.1Z"/>
      <path class="cls-4" d="M8.21,30.75v1.38c0,4.14,2.53,7.49,5.66,7.49s5.66-3.2,5.66-7.34l-.31-1.53v-.31l5.5-.31,14.07-1.22.43-1.04-15.92.38h-4.7v-.21c-1.01-2.05-2.76-3.4-4.74-3.4,0,0-2.29-.61-3.21,0,0,0-2.45,1.53-3.06,3.67h-1.33l1.03,1.83-1.03.76h1.94"/>
      <ellipse class="cls-2" cx="13.41" cy="31.98" rx="3.36" ry="6.42" transform="translate(-1.68 .76) rotate(-3.05)"/>
    </g>
  </g>
  <g id="manoatras">
    <g id="BRAZO1">
      <path class="cls-5" d="M58.36,150.01s-7.34,10.09-7.34,11.01-3.36,3.98-2.75,7.03c0,0-.31,3.67-.92,4.28,0,0-.92,4.28,1.22,7.34.27,2.53,1.45,4.48,3.06,4.89.17.04,1.4.34,2.14-.31,0,0,.35-.31.92-2.45h0c.84,3.19,2.45,5.06,3.67,4.89.21-.03.88-.18,1.53-1.53,1.97,1.16,2.84.74,3.06.61,1.31-.77,1.33-3.95-.31-7.95,1.77,3.21,3.99,4.79,5.2,4.28,1.01-.42,1.18-2.25,1.22-2.75,0,0-1.53-3.36-2.14-4.28l-.21-6.72s4.79-2.76,3.88-14.99l-12.23-3.36Z"/>
      <polyline class="cls-3" points="52.55 168.67 51.32 175.39 54.69 181.82"/>
      <path class="cls-3" d="M56.83,169.89v6.56s3.67,6.89,3.06,8.73"/>
      <path class="cls-3" d="M61.72,169.28s-.61,6.42.92,8.56"/>
      <path class="cls-3" d="M52.24,162.55s2.45-2.14,3.06-2.14"/>
      <path class="cls-3" d="M53.01,167.21s.46-2.15,2.29-2.95"/>
      <path class="cls-3" d="M56.83,166.72s.37-1.9,1.56-1.97"/>
      <path class="cls-3" d="M61.11,167.21s.18-.73,1.01-1.47"/>
      <ellipse class="cls-3" cx="52.17" cy="183.02" rx="1.42" ry="1.68" transform="translate(-84.52 50.6) rotate(-30)"/>
      <ellipse class="cls-3" cx="57.98" cy="184.85" rx="1.42" ry="1.68" transform="translate(-84.66 53.75) rotate(-30)"/>
      <ellipse class="cls-3" cx="61.95" cy="184.24" rx="1.42" ry="1.68" transform="translate(-83.82 55.66) rotate(-30)"/>
      <path class="cls-3" d="M66,180.59s1.59,1.07,1.56,1.6"/>
      <g>
        <path class="cls-1" d="M56.52,78.46s0-20.49,15.29-19.26c0,0,13.15,4.89,11.31,23.24l1.53,24.46v7.84l-5.5,21.82-5.5,18.35s-14.68,2.75-19.57-3.98l8.87-30.95s-1.53-2.95,0-5.11c0,0-7.03-34.58-6.42-36.41Z"/>
        <path class="cls-3" d="M63.56,113.62s3.36-.61,8.56-4.59"/>
        <path class="cls-3" d="M63.56,117.84s4.28,1.9,9.48-1.16"/>
        <path class="cls-3" d="M52.55,82.43s3.96,6.86,5.65,7.56"/>
      </g>
    </g>
  </g>
</svg>