<?xml version="1.0" encoding="UTF-8"?>
<svg id="Capa_1" data-name="Capa 1" xmlns="http://www.w3.org/2000/svg" viewBox="0 0 1290 405">
  <defs>
    <style>
      .cls-1 {
        fill: #62883e;
      }

      .cls-1, .cls-2, .cls-3, .cls-4, .cls-5, .cls-6 {
        stroke: #000;
        stroke-miterlimit: 10;
        stroke-width: .74px;
      }

      .cls-1, .cls-7, .cls-6 {
        opacity: .9;
      }

      .cls-2 {
        fill: none;
      }

      .cls-7 {
        stroke-width: 0px;
      }

      .cls-7, .cls-5 {
        fill: #8bb145;
      }

      .cls-3 {
        fill: #684925;
      }

      .cls-4 {
        fill: #45672b;
      }

      .cls-5 {
        opacity: .8;
      }

      .cls-6 {
        fill: #729a3f;
      }
    </style>
  </defs>
  <path class="cls-4" d="M1040.16,101.9c-4.58-4.58-5.44-11.78-2.18-17.14,2.99-4.91,8.86-7.35,14.53-5.96.38-1.55,1.7-5.97,5.81-8.94,4.86-3.52,11.67-3.58,17.44-.21-.14-.33-2.74-6.77.73-11.71,3.28-4.67,10.63-6.1,16.71-2.24,1.56-5.36,5.42-9.41,10.17-10.43,3.18-.68,5.88.17,7.27.75.06-.95.37-4.22,2.91-6.71,2.82-2.77,7.25-3.46,11.27-1.76.61-.56,5.12-4.51,11.25-3.46,5.16.89,9.43,4.97,10.9,10.43.7-.51,4.99-3.56,10.17-2.24,5.17,1.32,9.09,6.43,9.45,12.67,3.66-4.64,9.56-4.97,12.35-2.24,1.89,1.85,2.37,5.11,1.45,8.2,1.52.27,5.32,1.16,8.72,4.47,4.14,4.04,4.91,8.98,5.09,10.43,3.98-4.82,10.76-6.05,15.99-2.98,4.99,2.93,7.43,9.12,5.81,14.91,5.09,2.02,8.73,6.58,9.45,11.92.88,6.54-3.03,11.22-3.63,11.92,7.41-2.12,14.51,2.19,15.99,8.2,1.09,4.42-.94,9.51-5.09,12.67,4.98.13,8.71,4.05,8.72,8.2,0,3.07-2.01,6.01-5.09,7.45,10.13,6.01,12.35,17.82,7.99,23.85-2.96,4.1-9.12,5.73-15.26,4.47,1.8,5.44.71,11.42-2.91,15.65-4.07,4.76-10.68,6.54-16.71,4.47,1.48,4.64,0,9.73-3.63,12.67-3.95,3.2-9.67,3.23-13.81,0,.11,5.07-2.87,9.58-7.27,11.18-3.66,1.33-7.83.45-10.88-2.24-1.07,1.3-5.51,6.39-13.1,7.45-6.03.84-10.67-1.34-12.35-2.24-13.08-.25-26.16-.5-39.24-.75-1.06.42-3.16,1.07-5.81.75-3.41-.42-5.68-2.22-6.54-2.98-.5.36-3.16,2.2-6.54,1.49-3.15-.66-5.7-3.28-6.54-6.71-2.11,4.7-6.72,7.38-10.9,6.71-5.41-.87-9.71-7.29-7.99-14.16-4.07,4.25-10.58,4.86-15.26,1.49-4.82-3.47-6.42-10.22-3.63-15.65-2.99,2.11-6.83,2.07-9.45,0-3.01-2.38-2.92-6.3-2.91-6.71-.51.13-5.45,1.26-9.45-2.24-3.22-2.82-3.58-6.68-3.63-7.45-7.12.58-12.98-4.09-13.81-9.69-.85-5.75,3.97-10.13,4.31-10.43-3.53-2.09-5.53-5.97-5.03-9.69.64-4.8,5.36-8.68,10.9-8.2-1.07-.67-6.31-4.06-6.54-8.94-.28-5.95,6.91-13.11,18.17-13.42-.5-.47-4.34-4.18-3.63-8.2.8-4.53,7.26-8.62,15.26-6.71Z"/>
  <path class="cls-1" d="M1042.16,105.17c-4.59-3.99-5.4-10.82-2.03-15.58,3.58-5.07,10.9-6.4,16.24-2.71-.11-1.75-.02-5.08,2.03-8.13,3.29-4.87,10.25-6.99,17.37-5.08-.08-.76-.49-5.53,2.94-9.14,3.23-3.4,8.55-4.38,13.31-2.38,1.46-4.43,5.05-7.78,9.48-8.62,2.96-.56,5.48.14,6.77.62.05-.79.34-3.49,2.71-5.54,2.63-2.28,6.76-2.86,10.5-1.45.57-.46,4.77-3.73,10.48-2.86,4.81.73,8.78,4.11,10.15,8.62.65-.42,4.65-2.94,9.48-1.85,4.81,1.09,8.47,5.32,8.8,10.47,3.41-3.83,8.91-4.1,11.51-1.85,1.76,1.52,2.21,4.22,1.35,6.77,3.72,2.14,5.44,4.45,6.32,6.2.5,1.01.89,2.14,2.03,3.39,1.45,1.58,3.22,2.34,4.51,2.73,3.92-.36,7.22-.24,9.7-.02,4.4.39,5.6,1.06,6.09,1.35,3.58,2.19,4.32,6.82,4.51,8.52,1.55.87,6.31,3.79,8.8,9.85,3.24,7.89.11,14.97-.45,16.17,4.72-1.2,9.6,1.16,11.51,5.42,1.75,3.9.66,8.63-2.71,11.51.53.37,4.31,3.09,4.74,8.13.48,5.64-3.69,9.18-4.06,9.48,9.16,4.35,11.66,14.37,8.12,19.64-2.52,3.77-8.35,5.46-14.21,4.06.7-3.8.99-4.81,1.1-4.79.4.06,1.48,13.28-5.16,19.69-4.06,3.93-10.17,4.49-15.57,4.06-1.44,1.64-2.3,2.25-2.71,2.03-.87-.46.12-4.85,1.12-4.9.53-.03,1.08,1.16,1.58,2.87,1.64,3.82.79,8.2-2.03,10.84-3.37,3.16-8.98,3.29-12.86,0-8.19.84-17.89,1.08-28.66-.16-4.08-.47-7.92-1.11-11.51-1.85-12.18-.21-24.37-.41-36.55-.62-.99.34-2.95.89-5.41.62-3.18-.35-5.29-1.83-6.09-2.46-.47.3-2.94,1.82-6.09,1.23-2.94-.55-5.3-2.71-6.09-5.54-1.96,3.89-6.26,6.1-10.15,5.54-5.04-.72-9.04-6.02-7.45-11.7-3.8,3.51-9.85,4.01-14.21,1.23-4.49-2.86-5.98-8.44-3.38-12.93-2.78,1.74-6.37,1.71-8.8,0-2.8-1.97-2.72-5.21-2.71-5.54-2.36-.12-5.44-.56-8.8-1.85-7.83-3-12.22-8.72-13.98-11.36-2.98-3.08-4.44-7.25-3.38-10.84,1.58-5.36,8.72-9.15,16.24-6.77-6.63-1.79-12.03-5.24-12.18-8.81-.18-4.35,7.4-9.99,19.63-10.84q1.58,1.58,4.74,4.74-3.16-3.16-4.74-4.74c-2.88-1.83-4.92-4.67-4.74-7.45.28-4.23,5.74-8.57,12.86-7.45Z"/>
  <path class="cls-6" d="M1044,102.96c-4.22-3.61-4.96-9.76-1.87-14.06,3.29-4.58,10.02-5.78,14.93-2.45-.1-1.58-.02-4.59,1.87-7.34,3.02-4.4,9.42-6.31,15.96-4.59-.07-.69-.45-4.99,2.7-8.25,2.97-3.07,7.85-3.96,12.23-2.15,1.34-4,4.64-7.02,8.71-7.78,2.72-.51,5.03.13,6.22.56.05-.71.32-3.15,2.49-5,2.41-2.06,6.21-2.58,9.65-1.31.53-.42,4.38-3.37,9.63-2.58,4.42.66,8.07,3.71,9.33,7.78.6-.38,4.27-2.65,8.71-1.67,4.42.98,7.78,4.8,8.09,9.45,3.13-3.46,8.18-3.71,10.57-1.67,1.61,1.38,2.03,3.81,1.24,6.12,3.42,1.93,5,4.01,5.81,5.6.46.91.82,1.94,1.87,3.06,1.34,1.43,2.96,2.11,4.14,2.46,3.6-.32,6.63-.22,8.92-.02,4.04.35,5.15.95,5.6,1.22,3.29,1.98,3.97,6.16,4.14,7.69,1.42.78,5.8,3.42,8.09,8.89,2.98,7.12.1,13.51-.41,14.6,4.34-1.08,8.82,1.04,10.57,4.89,1.61,3.52.61,7.79-2.49,10.4.48.33,3.96,2.79,4.35,7.34.44,5.1-3.39,8.29-3.73,8.56,8.42,3.93,10.71,12.97,7.46,17.73-2.32,3.4-7.67,4.93-13.06,3.67.64-3.43.91-4.34,1.01-4.32.37.05,1.36,11.98-4.74,17.78-3.73,3.54-9.35,4.05-14.3,3.67-1.32,1.48-2.12,2.03-2.49,1.83-.8-.42.11-4.38,1.03-4.42.49-.02.99,1.05,1.45,2.59,1.51,3.45.73,7.4-1.87,9.78-3.1,2.85-8.25,2.97-11.82,0-7.53.76-16.44.98-26.33-.14-3.75-.42-7.28-1-10.57-1.67-11.2-.19-22.39-.37-33.59-.56-.91.31-2.71.8-4.98.56-2.92-.31-4.86-1.66-5.6-2.22-.43.27-2.7,1.64-5.6,1.11-2.7-.5-4.87-2.45-5.6-5-1.8,3.51-5.75,5.51-9.33,5-4.63-.65-8.31-5.43-6.84-10.56-3.49,3.17-9.05,3.62-13.06,1.11-4.13-2.59-5.5-7.62-3.11-11.67-2.56,1.57-5.85,1.54-8.09,0-2.57-1.78-2.5-4.7-2.49-5-2.17-.11-5-.5-8.09-1.67-7.19-2.71-11.23-7.87-12.85-10.25-2.74-2.78-4.08-6.55-3.11-9.78,1.46-4.84,8.02-8.26,14.93-6.11-6.09-1.62-11.06-4.73-11.2-7.95-.17-3.93,6.8-9.02,18.04-9.78q1.45,1.43,4.35,4.28-2.9-2.85-4.35-4.28c-2.65-1.65-4.53-4.22-4.35-6.73.26-3.82,5.27-7.74,11.82-6.73Z"/>
  <path class="cls-5" d="M1084.33,85.65c-2.78-2.48-3.27-6.71-1.23-9.66,2.17-3.15,6.6-3.97,9.83-1.68-.06-1.09-.01-3.15,1.23-5.04,1.99-3.02,6.21-4.34,10.51-3.15-.05-.47-.3-3.43,1.78-5.67,1.95-2.11,5.17-2.72,8.06-1.48.88-2.75,3.06-4.82,5.74-5.35,1.79-.35,3.32.09,4.1.38.03-.49.21-2.16,1.64-3.44,1.59-1.42,4.09-1.77,6.36-.9.35-.29,2.89-2.31,6.35-1.77,2.91.45,5.31,2.55,6.15,5.35.4-.26,2.82-1.82,5.74-1.15,2.91.67,5.13,3.3,5.33,6.49,2.06-2.38,5.39-2.55,6.97-1.15,1.06.95,1.34,2.62.82,4.2,2.25,1.33,3.29,2.76,3.83,3.85.31.62.54,1.33,1.23,2.1.88.98,1.95,1.45,2.73,1.69,2.37-.22,4.37-.15,5.87-.01,2.66.24,3.39.65,3.69.84,2.16,1.36,2.61,4.23,2.73,5.28.94.54,3.82,2.35,5.33,6.11,1.96,4.9.07,9.29-.27,10.03,2.86-.74,5.81.72,6.97,3.36,1.06,2.42.4,5.36-1.64,7.14.32.23,2.61,1.92,2.87,5.04.29,3.5-2.23,5.69-2.46,5.88,5.55,2.7,7.06,8.91,4.92,12.19-1.53,2.34-5.05,3.39-8.6,2.52.42-2.36.6-2.98.67-2.97.24.03.89,8.24-3.12,12.22-2.46,2.44-6.16,2.78-9.42,2.52-.87,1.02-1.39,1.39-1.64,1.26-.53-.29.07-3.01.68-3.04.32-.02.65.72.96,1.78.99,2.37.48,5.08-1.23,6.72-2.04,1.96-5.43,2.04-7.78,0-4.96.52-10.83.67-17.35-.1-2.47-.29-4.79-.69-6.97-1.15-7.37-.13-14.75-.25-22.12-.38-.6.21-1.78.55-3.28.38-1.92-.22-3.2-1.14-3.69-1.53-.28.19-1.78,1.13-3.69.76-1.78-.34-3.21-1.68-3.69-3.44-1.19,2.41-3.79,3.78-6.15,3.44-3.05-.45-5.48-3.73-4.51-7.26-2.3,2.18-5.96,2.49-8.6.76-2.72-1.78-3.62-5.24-2.05-8.02-1.68,1.08-3.85,1.06-5.33,0-1.7-1.22-1.65-3.23-1.64-3.44-1.43-.07-3.29-.35-5.33-1.15-4.74-1.86-7.39-5.41-8.47-7.04-1.81-1.91-2.69-4.5-2.05-6.72.96-3.32,5.28-5.68,9.83-4.2-4.01-1.11-7.28-3.25-7.37-5.46-.11-2.7,4.48-6.2,11.88-6.72q.96.98,2.87,2.94-1.91-1.96-2.87-2.94c-1.74-1.13-2.98-2.9-2.87-4.62.17-2.62,3.47-5.32,7.78-4.62Z"/>
  <path class="cls-7" d="M1071.1,115.25c-2.48-2.36-2.91-6.4-1.1-9.22,1.94-3,5.89-3.79,8.77-1.6-.06-1.04-.01-3.01,1.1-4.81,1.77-2.88,5.54-4.14,9.38-3.01-.04-.45-.27-3.27,1.59-5.41,1.74-2.01,4.62-2.59,7.19-1.41.79-2.62,2.73-4.6,5.12-5.1,1.6-.33,2.96.08,3.66.36.03-.47.19-2.06,1.46-3.28,1.42-1.35,3.65-1.69,5.67-.86.31-.27,2.58-2.21,5.66-1.69,2.6.43,4.74,2.43,5.48,5.1.35-.25,2.51-1.74,5.12-1.09,2.6.64,4.57,3.15,4.75,6.2,1.84-2.27,4.81-2.43,6.21-1.09.95.9,1.19,2.5.73,4.01,2.01,1.27,2.94,2.63,3.41,3.67.27.6.48,1.27,1.1,2,.79.94,1.74,1.38,2.44,1.61,2.12-.21,3.9-.14,5.24-.01,2.37.23,3.03.62,3.29.8,1.93,1.3,2.33,4.04,2.44,5.04.84.51,3.41,2.24,4.75,5.83,1.75,4.67.06,8.86-.24,9.57,2.55-.71,5.18.68,6.21,3.21.94,2.31.36,5.11-1.46,6.81.28.22,2.33,1.83,2.56,4.81.26,3.34-1.99,5.43-2.19,5.61,4.95,2.57,6.29,8.5,4.39,11.62-1.36,2.23-4.51,3.23-7.68,2.41.38-2.25.53-2.84.59-2.84.22.03.8,7.86-2.79,11.65-2.19,2.32-5.49,2.66-8.41,2.41-.78.97-1.24,1.33-1.46,1.2-.47-.27.06-2.87.61-2.9.29-.02.58.69.85,1.7.89,2.26.43,4.85-1.1,6.41-1.82,1.87-4.85,1.95-6.95,0-4.42.5-9.66.64-15.48-.09-2.2-.28-4.28-.65-6.21-1.09-6.58-.12-13.16-.24-19.74-.36-.53.2-1.59.52-2.92.36-1.72-.21-2.86-1.09-3.29-1.46-.25.18-1.59,1.08-3.29.73-1.59-.32-2.87-1.61-3.29-3.28-1.06,2.3-3.38,3.61-5.48,3.28-2.72-.43-4.88-3.56-4.02-6.92-2.05,2.08-5.32,2.37-7.68.73-2.43-1.7-3.23-5-1.83-7.65-1.5,1.03-3.44,1.01-4.75,0-1.51-1.17-1.47-3.08-1.46-3.28-1.28-.07-2.94-.33-4.75-1.09-4.23-1.78-6.6-5.16-7.55-6.72-1.61-1.83-2.4-4.29-1.83-6.41.86-3.17,4.71-5.42,8.77-4.01-3.58-1.06-6.5-3.1-6.58-5.21-.1-2.57,4-5.91,10.6-6.41q.85.94,2.56,2.81-1.71-1.87-2.56-2.81c-1.56-1.08-2.66-2.76-2.56-4.41.15-2.5,3.1-5.07,6.95-4.41Z"/>
  <path class="cls-7" d="M1116.46,104.23c-2.48-2.36-2.91-6.4-1.1-9.22,1.94-3,5.89-3.79,8.77-1.6-.06-1.04-.01-3.01,1.1-4.81,1.77-2.88,5.54-4.14,9.38-3.01-.04-.45-.27-3.27,1.59-5.41,1.74-2.01,4.62-2.59,7.19-1.41.79-2.62,2.73-4.6,5.12-5.1,1.6-.33,2.96.08,3.66.36.03-.47.19-2.06,1.46-3.28,1.42-1.35,3.65-1.69,5.67-.86.31-.27,2.58-2.21,5.66-1.69,2.6.43,4.74,2.43,5.48,5.1.35-.25,2.51-1.74,5.12-1.09,2.6.64,4.57,3.15,4.75,6.2,1.84-2.27,4.81-2.43,6.21-1.09.95.9,1.19,2.5.73,4.01,2.01,1.27,2.94,2.63,3.41,3.67.27.6.48,1.27,1.1,2,.79.94,1.74,1.38,2.44,1.61,2.12-.21,3.9-.14,5.24-.01,2.37.23,3.03.62,3.29.8,1.93,1.3,2.33,4.04,2.44,5.04.84.51,3.41,2.24,4.75,5.83,1.75,4.67.06,8.86-.24,9.57,2.55-.71,5.18.68,6.21,3.21.94,2.31.36,5.11-1.46,6.81.28.22,2.33,1.83,2.56,4.81.26,3.34-1.99,5.43-2.19,5.61,4.95,2.57,6.29,8.5,4.39,11.62-1.36,2.23-4.51,3.23-7.68,2.41.38-2.25.53-2.84.59-2.84.22.03.8,7.86-2.79,11.65-2.19,2.32-5.49,2.66-8.41,2.41-.78.97-1.24,1.33-1.46,1.2-.47-.27.06-2.87.61-2.9.29-.02.58.69.85,1.7.89,2.26.43,4.85-1.1,6.41-1.82,1.87-4.85,1.95-6.95,0-4.42.5-9.66.64-15.48-.09-2.2-.28-4.28-.65-6.21-1.09-6.58-.12-13.16-.24-19.74-.36-.53.2-1.59.52-2.92.36-1.72-.21-2.86-1.09-3.29-1.46-.25.18-1.59,1.08-3.29.73-1.59-.32-2.87-1.61-3.29-3.28-1.06,2.3-3.38,3.61-5.48,3.28-2.72-.43-4.88-3.56-4.02-6.92-2.05,2.08-5.32,2.37-7.68.73-2.43-1.7-3.23-5-1.83-7.65-1.5,1.03-3.44,1.01-4.75,0-1.51-1.17-1.47-3.08-1.46-3.28-1.28-.07-2.94-.33-4.75-1.09-4.23-1.78-6.6-5.16-7.55-6.72-1.61-1.83-2.4-4.29-1.83-6.41.86-3.17,4.71-5.42,8.77-4.01-3.58-1.06-6.5-3.1-6.58-5.21-.1-2.57,4-5.91,10.6-6.41q.85.94,2.56,2.81-1.71-1.87-2.56-2.81c-1.56-1.08-2.66-2.76-2.56-4.41.15-2.5,3.1-5.07,6.95-4.41Z"/>
  <path class="cls-3" d="M1086.66,191.33s23.98,30.56,24.71,43.23.73,81.56-12.35,106.74c0,0-4.36,8.78-23.25,10.27,0,0,13.18,7.45,37.11,0,0,0,20.29,12.67,37.73,12.67,0,0-7.27-4.47-10.9-12.67,0,0,10.9,8.94,29.07,5.22,0,0-20.35-11.18-20.35-23.1,0,0-9.45-62.6-4.36-87.94,0,0-.73-17.89,7.99-29.07,0,0,22.53-26.83,21.8-29.07l-10.17,1.49s-4.36,13.42-23.98,27.58c0,0,.52-28.32,2.44-29.07,0,0-3.89,1.49-8.98-4.47,0,0-2.91,14.91-13.81,2.24,0,0-5.09,8.94-3.63,27.58,0,0-23.98-21.61-25.43-22.36s-3.63.75-3.63.75Z"/>
  <path class="cls-4" d="M75.49,175.14c-2.67-3.07-3.17-7.89-1.27-11.48,1.74-3.28,5.16-4.92,8.47-3.99.22-1.03.99-4,3.39-5.99,2.83-2.35,6.8-2.4,10.16-.14-.08-.22-1.6-4.53.42-7.84,1.91-3.13,6.19-4.09,9.74-1.5.91-3.59,3.16-6.3,5.93-6.99,1.85-.46,3.43.12,4.23.5.03-.64.21-2.82,1.69-4.49,1.64-1.85,4.23-2.31,6.57-1.18.36-.37,2.98-3.02,6.56-2.32,3.01.59,5.49,3.33,6.35,6.99.41-.34,2.91-2.38,5.93-1.5,3.01.88,5.3,4.31,5.5,8.48,2.13-3.1,5.57-3.33,7.2-1.5,1.1,1.24,1.38,3.42.85,5.49.89.18,3.1.78,5.08,2.99,2.41,2.7,2.86,6.02,2.96,6.99,2.32-3.23,6.27-4.05,9.31-2,2.91,1.96,4.33,6.1,3.39,9.98,2.96,1.35,5.08,4.41,5.5,7.98.51,4.38-1.76,7.51-2.12,7.98,4.32-1.42,8.45,1.47,9.31,5.49.63,2.96-.55,6.37-2.96,8.48,2.9.08,5.07,2.71,5.08,5.49,0,2.05-1.17,4.03-2.96,4.99,5.9,4.03,7.19,11.93,4.66,15.97-1.73,2.75-5.31,3.84-8.89,2.99,1.05,3.64.41,7.65-1.69,10.48-2.37,3.19-6.22,4.38-9.74,2.99.86,3.11,0,6.51-2.12,8.48-2.3,2.14-5.63,2.16-8.04,0,.06,3.39-1.67,6.42-4.23,7.48-2.13.89-4.56.3-6.34-1.5-.62.87-3.21,4.28-7.63,4.99-3.51.56-6.21-.9-7.2-1.5-7.62-.17-15.24-.33-22.86-.5-.62.28-1.84.72-3.39.5-1.99-.28-3.31-1.49-3.81-2-.29.24-1.84,1.47-3.81,1-1.84-.44-3.32-2.2-3.81-4.49-1.23,3.15-3.91,4.94-6.35,4.49-3.15-.58-5.66-4.88-4.66-9.48-2.37,2.84-6.16,3.25-8.89,1-2.81-2.32-3.74-6.84-2.12-10.48-1.74,1.41-3.98,1.39-5.5,0-1.75-1.6-1.7-4.22-1.69-4.49-.3.09-3.18.85-5.5-1.5-1.87-1.89-2.08-4.47-2.12-4.99-4.15.39-7.56-2.74-8.04-6.49-.5-3.85,2.31-6.78,2.51-6.99-2.06-1.4-3.22-4-2.93-6.49.37-3.21,3.12-5.81,6.35-5.49-.62-.45-3.68-2.72-3.81-5.99-.16-3.98,4.03-8.78,10.58-8.98-.29-.32-2.53-2.8-2.12-5.49.47-3.03,4.23-5.77,8.89-4.49Z"/>
  <path class="cls-1" d="M74.68,175.97c-2.79-2.73-3.28-7.39-1.23-10.64,2.18-3.46,6.62-4.37,9.86-1.85-.06-1.2-.01-3.47,1.23-5.55,1.99-3.33,6.22-4.78,10.54-3.47-.05-.52-.3-3.78,1.78-6.24,1.96-2.32,5.19-2.99,8.08-1.63.88-3.03,3.06-5.31,5.75-5.89,1.8-.39,3.32.1,4.11.42.03-.54.21-2.38,1.64-3.79,1.59-1.56,4.1-1.95,6.37-.99.35-.31,2.9-2.55,6.36-1.95,2.92.5,5.33,2.81,6.16,5.89.4-.29,2.82-2.01,5.75-1.26,2.92.74,5.14,3.63,5.34,7.15,2.07-2.62,5.41-2.8,6.98-1.26,1.07,1.04,1.34,2.88.82,4.63,2.26,1.46,3.3,3.04,3.84,4.24.31.69.54,1.47,1.23,2.31.88,1.08,1.96,1.6,2.74,1.86,2.38-.24,4.38-.16,5.89-.01,2.67.27,3.4.72,3.7.93,2.17,1.5,2.62,4.66,2.74,5.82.94.59,3.83,2.59,5.34,6.73,1.97,5.39.07,10.23-.27,11.05,2.87-.82,5.82.79,6.98,3.7,1.06,2.67.4,5.9-1.64,7.86.32.25,2.62,2.11,2.88,5.55.29,3.86-2.24,6.27-2.46,6.48,5.56,2.97,7.07,9.81,4.93,13.42-1.53,2.57-5.07,3.73-8.63,2.78.42-2.59.6-3.28.67-3.27.24.04.9,9.07-3.13,13.45-2.47,2.68-6.17,3.07-9.45,2.78-.87,1.12-1.4,1.54-1.64,1.39-.53-.32.07-3.31.68-3.35.32-.02.65.79.96,1.96,1,2.61.48,5.6-1.23,7.4-2.05,2.16-5.45,2.25-7.8,0-4.97.58-10.85.74-17.39-.11-2.47-.32-4.81-.76-6.98-1.26-7.39-.14-14.79-.28-22.18-.42-.6.23-1.79.6-3.29.42-1.93-.24-3.21-1.25-3.7-1.68-.29.21-1.79,1.24-3.7.84-1.78-.37-3.22-1.85-3.7-3.79-1.19,2.66-3.8,4.17-6.16,3.79-3.06-.49-5.49-4.11-4.52-7.99-2.3,2.4-5.98,2.74-8.63.84-2.73-1.96-3.63-5.77-2.05-8.83-1.69,1.19-3.86,1.17-5.34,0-1.7-1.35-1.65-3.56-1.64-3.79-1.43-.08-3.3-.38-5.34-1.26-4.75-2.05-7.41-5.96-8.49-7.76-1.81-2.11-2.7-4.95-2.05-7.4.96-3.66,5.29-6.25,9.86-4.63-4.03-1.22-7.3-3.58-7.39-6.01-.11-2.97,4.49-6.82,11.91-7.4q.96,1.08,2.88,3.24-1.92-2.16-2.88-3.24c-1.75-1.25-2.99-3.19-2.88-5.09.17-2.89,3.48-5.86,7.8-5.09Z"/>
  <path class="cls-6" d="M77.93,175.12c-2.49-2.44-2.92-6.61-1.1-9.53,1.94-3.1,5.91-3.92,8.8-1.66-.06-1.07-.01-3.11,1.1-4.97,1.78-2.98,5.56-4.28,9.41-3.11-.04-.47-.27-3.38,1.59-5.59,1.75-2.08,4.63-2.68,7.21-1.46.79-2.71,2.73-4.76,5.13-5.27,1.6-.35,2.97.09,3.67.38.03-.48.19-2.13,1.47-3.39,1.42-1.4,3.66-1.75,5.69-.89.31-.28,2.58-2.28,5.68-1.75,2.6.45,4.76,2.51,5.5,5.27.35-.26,2.52-1.8,5.13-1.13,2.61.67,4.59,3.25,4.77,6.4,1.85-2.34,4.82-2.51,6.23-1.13.95.93,1.2,2.58.73,4.14,2.02,1.31,2.95,2.72,3.42,3.79.27.62.48,1.31,1.1,2.07.79.97,1.75,1.43,2.44,1.67,2.12-.22,3.91-.15,5.26-.01,2.38.24,3.04.65,3.3.83,1.94,1.34,2.34,4.17,2.44,5.21.84.53,3.42,2.32,4.77,6.03,1.75,4.83.06,9.16-.24,9.89,2.56-.73,5.2.71,6.23,3.31.95,2.39.36,5.28-1.47,7.04.29.22,2.34,1.89,2.57,4.97.26,3.45-2,5.61-2.2,5.8,4.96,2.66,6.31,8.79,4.4,12.01-1.37,2.3-4.52,3.34-7.7,2.49.38-2.32.53-2.94.6-2.93.22.03.8,8.12-2.8,12.04-2.2,2.4-5.51,2.75-8.43,2.49-.78,1-1.25,1.37-1.47,1.24-.47-.28.06-2.97.61-3,.29-.02.58.71.86,1.75.89,2.34.43,5.01-1.1,6.63-1.83,1.93-4.86,2.01-6.97,0-4.44.52-9.69.66-15.52-.1-2.21-.29-4.29-.68-6.23-1.13-6.6-.13-13.2-.25-19.8-.38-.53.21-1.6.54-2.93.38-1.72-.21-2.87-1.12-3.3-1.51-.25.18-1.59,1.11-3.3.75-1.59-.34-2.87-1.66-3.3-3.39-1.06,2.38-3.39,3.73-5.5,3.39-2.73-.44-4.9-3.68-4.03-7.16-2.06,2.15-5.34,2.45-7.7.75-2.43-1.75-3.24-5.16-1.83-7.91-1.51,1.07-3.45,1.05-4.77,0-1.52-1.2-1.47-3.19-1.47-3.39-1.28-.07-2.95-.34-4.77-1.13-4.24-1.84-6.62-5.33-7.58-6.94-1.62-1.89-2.41-4.44-1.83-6.63.86-3.28,4.73-5.6,8.8-4.14-3.59-1.09-6.52-3.21-6.6-5.39-.1-2.66,4.01-6.11,10.63-6.63q.86.97,2.57,2.9-1.71-1.93-2.57-2.9c-1.56-1.12-2.67-2.86-2.57-4.56.15-2.59,3.11-5.24,6.97-4.56Z"/>
  <path class="cls-5" d="M100.96,165.2c-1.58-1.62-1.86-4.39-.7-6.32,1.24-2.06,3.76-2.6,5.6-1.1-.04-.71,0-2.06.7-3.3,1.13-1.98,3.53-2.84,5.99-2.06-.03-.31-.17-2.25,1.01-3.71,1.11-1.38,2.95-1.78,4.59-.97.5-1.8,1.74-3.16,3.27-3.5,1.02-.23,1.89.06,2.33.25.02-.32.12-1.41.93-2.25.91-.93,2.33-1.16,3.62-.59.2-.19,1.64-1.51,3.61-1.16,1.66.3,3.03,1.67,3.5,3.5.22-.17,1.6-1.19,3.27-.75,1.66.44,2.92,2.16,3.03,4.25,1.17-1.55,3.07-1.67,3.96-.75.61.62.76,1.71.47,2.75,1.28.87,1.87,1.8,2.18,2.52.17.41.31.87.7,1.37.5.64,1.11.95,1.55,1.11,1.35-.15,2.49-.1,3.34,0,1.52.16,1.93.43,2.1.55,1.23.89,1.49,2.77,1.55,3.46.53.35,2.17,1.54,3.03,4,1.12,3.2.04,6.08-.15,6.56,1.63-.49,3.31.47,3.96,2.2.6,1.58.23,3.5-.93,4.67.18.15,1.49,1.25,1.63,3.3.16,2.29-1.27,3.73-1.4,3.85,3.16,1.77,4.02,5.83,2.8,7.97-.87,1.53-2.88,2.22-4.9,1.65.24-1.54.34-1.95.38-1.94.14.02.51,5.39-1.78,7.99-1.4,1.59-3.51,1.82-5.36,1.65-.5.67-.79.91-.93.82-.3-.19.04-1.97.39-1.99.18-.01.37.47.55,1.16.57,1.55.27,3.33-.7,4.4-1.16,1.28-3.09,1.34-4.43,0-2.82.34-6.16.44-9.87-.06-1.4-.19-2.73-.45-3.96-.75-4.2-.08-8.4-.17-12.59-.25-.34.14-1.02.36-1.87.25-1.1-.14-1.82-.74-2.1-1-.16.12-1.01.74-2.1.5-1.01-.22-1.83-1.1-2.1-2.25-.68,1.58-2.16,2.48-3.5,2.25-1.74-.29-3.12-2.44-2.57-4.75-1.31,1.42-3.39,1.63-4.9.5-1.55-1.16-2.06-3.43-1.17-5.25-.96.71-2.19.69-3.03,0-.97-.8-.94-2.11-.93-2.25-.81-.05-1.87-.23-3.03-.75-2.7-1.22-4.21-3.54-4.82-4.61-1.03-1.25-1.53-2.94-1.17-4.4.55-2.17,3.01-3.71,5.6-2.75-2.29-.73-4.15-2.13-4.2-3.57-.06-1.77,2.55-4.06,6.76-4.4q.54.64,1.63,1.92-1.09-1.28-1.63-1.92c-.99-.74-1.7-1.89-1.63-3.02.1-1.72,1.98-3.48,4.43-3.02Z"/>
  <path class="cls-7" d="M113.28,177.24c-1.46-1.37-1.72-3.72-.65-5.36,1.14-1.74,3.47-2.2,5.17-.93-.03-.6,0-1.75.65-2.79,1.05-1.67,3.26-2.4,5.53-1.75-.02-.26-.16-1.9.93-3.14,1.03-1.17,2.72-1.51,4.24-.82.46-1.52,1.61-2.67,3.02-2.96.94-.19,1.74.05,2.15.21.02-.27.11-1.2.86-1.91.84-.79,2.15-.98,3.34-.5.18-.16,1.52-1.28,3.34-.98,1.53.25,2.79,1.41,3.23,2.96.21-.15,1.48-1.01,3.02-.64,1.53.37,2.7,1.83,2.8,3.6,1.09-1.32,2.84-1.41,3.66-.64.56.52.7,1.45.43,2.33,1.18.74,1.73,1.53,2.01,2.13.16.35.28.74.65,1.16.46.54,1.03.8,1.44.94,1.25-.12,2.3-.08,3.09,0,1.4.14,1.78.36,1.94.47,1.14.75,1.38,2.35,1.44,2.93.49.3,2.01,1.3,2.8,3.39,1.03,2.71.03,5.15-.14,5.56,1.5-.41,3.06.4,3.66,1.86.56,1.34.21,2.97-.86,3.96.17.13,1.37,1.06,1.51,2.79.15,1.94-1.17,3.16-1.29,3.26,2.92,1.5,3.71,4.94,2.59,6.75-.8,1.3-2.66,1.88-4.52,1.4.22-1.31.31-1.65.35-1.65.13.02.47,4.57-1.64,6.77-1.29,1.35-3.24,1.54-4.96,1.4-.46.56-.73.77-.86.7-.28-.16.04-1.67.36-1.68.17,0,.34.4.5.99.52,1.32.25,2.82-.65,3.73-1.07,1.09-2.86,1.13-4.09,0-2.61.29-5.69.37-9.12-.05-1.3-.16-2.52-.38-3.66-.64-3.88-.07-7.76-.14-11.63-.21-.31.12-.94.3-1.72.21-1.01-.12-1.68-.63-1.94-.85-.15.1-.94.63-1.94.42-.93-.19-1.69-.93-1.94-1.91-.63,1.34-1.99,2.1-3.23,1.91-1.6-.25-2.88-2.07-2.37-4.02-1.21,1.21-3.14,1.38-4.52.42-1.43-.98-1.9-2.9-1.08-4.45-.89.6-2.03.59-2.8,0-.89-.68-.87-1.79-.86-1.91-.75-.04-1.73-.19-2.8-.64-2.49-1.03-3.89-3-4.45-3.9-.95-1.06-1.41-2.49-1.08-3.73.5-1.84,2.78-3.15,5.17-2.33-2.11-.62-3.83-1.8-3.88-3.03-.06-1.5,2.36-3.44,6.25-3.73q.5.54,1.51,1.63-1.01-1.09-1.51-1.63c-.92-.63-1.57-1.61-1.51-2.56.09-1.45,1.83-2.95,4.09-2.56Z"/>
  <path class="cls-3" d="M102.58,235.01s13.97,20.46,14.39,28.94c.42,8.48.42,54.6-7.2,71.46,0,0-2.54,5.88-13.55,6.88,0,0,7.68,4.99,21.62,0,0,0,11.82,8.48,21.98,8.48,0,0-4.23-2.99-6.35-8.48,0,0,6.35,5.99,16.93,3.49,0,0-11.85-7.48-11.85-15.47,0,0-5.5-41.91-2.54-58.87,0,0-.42-11.97,4.66-19.46,0,0,13.12-17.96,12.7-19.46l-5.93,1s-2.54,8.98-13.97,18.46c0,0,.3-18.96,1.42-19.46,0,0-2.27,1-5.23-2.99,0,0-1.69,9.98-8.04,1.5,0,0-2.96,5.99-2.12,18.46,0,0-13.97-14.47-14.82-14.97s-2.12.5-2.12.5Z"/>
  <line class="cls-2" x1="1116.82" y1="242.62" x2="1115.36" y2="287.49"/>
</svg>